M48
;Layer_Color=9474304
;FILE_FORMAT=2:5
INCH,TZ
;TYPE=PLATED
T1F00S00C0.01200
;TYPE=NON_PLATED
T2F00S00C0.03543
%
T01
X331000Y13000
X318500Y11500
X321000Y8500
X311000Y13000
Y17000
X314500
X305500Y11000
X300500Y8500
X240500Y13642
X219500Y15500
X185000
X103000Y11500
X88500Y8000
X64000Y12000
X63000Y15500
X15457Y8043
X14000Y160500
X14350Y166366
X19500Y144500
X27000Y133000
Y127000
Y121000
Y115000
Y109000
Y103000
Y97000
X25500Y88000
X20500Y77500
X23000Y70748
X40000Y67500
X40850Y58150
X48701Y56000
X54500Y61500
X64000Y67000
Y72000
X67500Y69500
X73500Y58500
X70600Y48642
X64449Y35500
X51850Y38000
X35500Y40500
Y45551
Y48701
X24000Y42402
X21500Y35000
X33457Y23500
X58150Y23150
X63500Y19000
X68500Y23000
X74000Y29409
X94543Y22500
X94350Y40000
X99500Y42500
Y45551
Y48701
Y51850
Y55000
X104000Y58150
X110000Y61299
X107000Y64449
X102000Y68000
X91043Y71043
X78220Y98720
X103000Y101500
X112500Y104000
X110000Y94500
X117000Y89500
X119500Y87000
X125500Y88500
X132402Y74098
X139000Y74000
X144000Y69000
X147000Y68000
X149500Y66000
X153000
X156500Y68500
X154000Y72000
X153500Y51500
X160299Y48701
X160000Y55000
X163500
X157500Y37500
X151000Y41000
X146000
X144000Y43500
X143500Y46500
X144000Y35500
X144500Y19000
X149500Y17500
X156500
X157500Y23000
X160748Y23500
X163700Y26000
X138701Y23000
X117500Y22900
X113000Y20500
X106500Y34500
X108500Y37500
X110800Y46000
X96000Y110000
Y113500
X107500Y124882
X110000Y127441
X113500
X115500Y130500
X115177Y122323
X117000Y119500
X119500Y117000
X131500Y124000
X146000Y127441
Y132559
Y137677
X142500Y142500
X139500
X136500
X122043Y141043
X114957
X108500Y145000
X111500Y149500
X114594Y154095
X123500Y153500
X128000Y151000
X150500Y153500
X162043Y142043
X155618Y135118
X155677Y122323
X166500Y130000
X166000Y90500
X170000
X160748Y87252
X151500Y90500
X154000Y93000
X142000Y106000
X104000Y130000
X104177Y137677
X100500Y146500
X102500Y149500
X81000Y159000
X78043Y157000
X77000Y163000
X80000Y165500
X84500Y172500
X87500Y173500
X114000Y172500
X119500
X138689Y169978
X144595Y172500
X168689Y169978
X64500Y158000
X59000
X55957Y156457
X52000Y127500
X60701Y124500
X71000Y128500
X18000Y113000
X174500Y130000
X185000
X209000Y131000
Y141000
X212500
X216500
X225000Y142500
X234957Y141543
X242043
X250000Y145500
Y132500
Y124882
X264500Y124500
Y132559
Y136500
Y141500
X273500
X274957Y150957
X282043
X286500Y161000
Y164000
Y167000
Y172000
X298500Y167000
X296000Y164000
X293500Y161000
X302500Y162000
Y158000
X319500Y159500
X320142Y171358
X328000Y131500
X329000Y124000
X329500Y106000
X316000Y102000
X313500Y99500
X317000Y89500
X308500
Y86500
X325000Y90500
X322000Y58000
X319500Y56500
X321500Y43500
X326000Y26500
Y23500
Y20500
X300500Y42500
X297500Y43500
X291083Y40917
X297000Y57000
X300500Y54500
X294500Y71000
X291083Y73000
X288000
X285000
X278091Y69500
X266500Y66000
X265500Y57500
X270500Y60000
X273000Y46500
X256000Y44000
X258000Y41500
X259500Y29000
X260464Y25964
X265000Y27000
X270500Y26000
X273500
X231500Y23000
X227000Y22500
X224000Y21500
X221500Y23000
X206000Y21000
X203500Y23500
X192000Y22500
X188500Y26300
X191000Y30000
X180000
X178500Y22500
X182000
X186000Y41500
X199000Y40500
Y37000
X203000Y41500
X207000
X213000Y39500
X231500Y40500
X230000Y43000
X228500Y45500
X233000Y38000
X225500Y71000
X222047Y76047
X224016Y86984
X223000Y94000
X227000
Y110000
X223000
X207000
X198500Y112500
X194500Y83000
X192000Y80000
X197500Y69500
X202543Y72043
X208000Y71000
X205500Y55500
X199000Y51850
X183500Y64000
Y67500
X186000Y69000
X179500Y87500
X180500Y153500
X174594Y172500
X198689Y169978
X204594Y172500
X210500Y153500
X240500
X238500Y150500
X236000Y130000
X233000Y132500
X235677Y122323
X235000Y105500
X243000Y110000
X257000Y110500
X260000
X263000
X269500
X259500Y115000
X276177Y122323
X286000Y123500
X301500Y135000
X308500
X306000Y109000
X274500Y91500
X270500Y82000
X266500
X264595Y172500
X258689Y169978
X234594Y172500
X228689Y169978
X332500Y121000
X332000Y109000
X320500Y195000
X320000Y205000
X294350Y211350
Y184000
X286500Y176500
X282311Y177500
X276406Y175000
X276401Y196000
X282300Y193500
X264595Y198500
X258689Y201000
X252311Y193500
X246406Y196000
X234594Y198500
X228689Y201000
X222311Y193500
X216406Y196000
X204594Y198500
X198689Y201000
X192311Y193500
X186406Y196000
X174594Y198500
X186406Y175000
X192311Y177500
X216406Y175000
X222311Y177500
X246406Y175000
X252311Y177500
X162311
X156405Y175000
Y196000
X162311Y193500
X168689Y201000
X144595Y198500
X138689Y201000
X132311Y193500
X126406Y196000
X119500
X121500Y193500
X114594Y198500
X111000
X104437Y195000
Y192000
X104500Y204000
X97563Y213563
X108000Y180500
X118000Y177500
X121500
X126406Y175000
X132311Y177500
X90543Y176543
X82500Y175500
X78000
X73400Y177000
X65500
X61465
X43000Y178000
X45750Y181250
X39250Y186250
X40798Y188803
X33346Y193846
X25500Y184500
Y181250
X35500Y210000
X45000Y211500
X45650Y201350
X59946Y199000
X54500Y210000
X8000Y193000
X5500Y187000
T02
X71110Y193000
X84890
M30
