%FSLAX25Y25*%
%MOIN*%
G70*
G01*
G75*
G04 Layer_Physical_Order=4*
G04 Layer_Color=16711680*
%ADD10R,0.08661X0.09843*%
%ADD11R,0.01969X0.07874*%
%ADD12R,0.06102X0.05118*%
%ADD13C,0.04000*%
G04:AMPARAMS|DCode=14|XSize=60mil|YSize=300mil|CornerRadius=0mil|HoleSize=0mil|Usage=FLASHONLY|Rotation=90.000|XOffset=0mil|YOffset=0mil|HoleType=Round|Shape=Octagon|*
%AMOCTAGOND14*
4,1,8,-0.15000,-0.01500,-0.15000,0.01500,-0.13500,0.03000,0.13500,0.03000,0.15000,0.01500,0.15000,-0.01500,0.13500,-0.03000,-0.13500,-0.03000,-0.15000,-0.01500,0.0*
%
%ADD14OCTAGOND14*%

%ADD15R,0.03150X0.03150*%
%ADD16R,0.03937X0.11811*%
%ADD17C,0.01000*%
%ADD18C,0.02000*%
%ADD19C,0.01200*%
%ADD20C,0.02362*%
%ADD21C,0.02200*%
%ADD22C,0.04000*%
%ADD23C,0.07543*%
%ADD24C,0.04200*%
%ADD25R,0.04000X0.04000*%
%ADD26R,0.01181X0.06693*%
%ADD27R,0.07677X0.01575*%
%ADD28R,0.04134X0.02362*%
%ADD29R,0.06693X0.01378*%
%ADD30R,0.06299X0.01378*%
%ADD31R,0.02165X0.07677*%
%ADD32R,0.07677X0.02165*%
%ADD33R,0.07874X0.02362*%
%ADD34R,0.15748X0.06693*%
%ADD35R,0.15748X0.05906*%
%ADD36R,0.07677X0.05118*%
%ADD37R,0.05118X0.05906*%
%ADD38R,0.04331X0.03937*%
%ADD39R,0.04000X0.04000*%
%ADD40R,0.03937X0.04331*%
%ADD41C,0.01500*%
%ADD42C,0.03000*%
%ADD43C,0.01400*%
D13*
X30000Y30000D02*
D03*
X80000Y80000D02*
D03*
X120000Y30000D02*
D03*
X170000Y80000D02*
D03*
X6000Y6000D02*
D03*
X334000D02*
D03*
X6000Y214000D02*
D03*
X334000D02*
D03*
D14*
X355000Y15000D02*
D03*
Y25000D02*
D03*
Y35000D02*
D03*
Y45000D02*
D03*
Y55000D02*
D03*
Y65000D02*
D03*
Y75000D02*
D03*
Y85000D02*
D03*
Y95000D02*
D03*
Y105000D02*
D03*
Y115000D02*
D03*
Y125000D02*
D03*
Y135000D02*
D03*
Y145000D02*
D03*
Y155000D02*
D03*
Y165000D02*
D03*
Y175000D02*
D03*
Y185000D02*
D03*
Y195000D02*
D03*
Y205000D02*
D03*
D17*
X142500Y142500D02*
Y149500D01*
X139500Y142500D02*
Y149500D01*
X136500Y142500D02*
Y149500D01*
X19500Y197000D02*
X37500D01*
X18000Y195500D02*
X19500Y197000D01*
X18000Y147500D02*
Y195500D01*
X37500Y197000D02*
X45750Y188750D01*
X38500Y199000D02*
X46250Y191250D01*
X27000Y199000D02*
X38500D01*
X20000Y206000D02*
X27000Y199000D01*
X57500Y179300D02*
Y193500D01*
X47000Y204000D02*
X57500Y193500D01*
X32000Y204000D02*
X47000D01*
X59500Y178500D02*
Y195000D01*
X50000Y204500D02*
X59500Y195000D01*
X50000Y204500D02*
Y210000D01*
X30000Y206000D02*
X32000Y204000D01*
X30000Y206000D02*
Y210000D01*
X20000Y206000D02*
Y210000D01*
X40746Y188750D02*
X40798Y188803D01*
X33346Y188750D02*
X40746D01*
X45000Y211500D02*
X47000Y213500D01*
X63000D01*
X66500Y210000D01*
X70000D01*
X54500D02*
X60000D01*
X33346Y186250D02*
X39250D01*
X41000Y180000D02*
Y183500D01*
X39750Y178750D02*
X41000Y180000D01*
X33346Y178750D02*
X39750D01*
X41000Y183500D02*
X43750Y186250D01*
X51653D01*
X43000Y178000D02*
Y182500D01*
X44250Y183750D01*
X51653D01*
X35500Y210000D02*
X40000D01*
X33346Y191250D02*
Y193846D01*
X45750Y188750D02*
X51653D01*
X46250Y191250D02*
X51653D01*
X57250Y176250D02*
X59500Y178500D01*
X51653Y176250D02*
X57250D01*
X56950Y178750D02*
X57500Y179300D01*
X51653Y178750D02*
X56950D01*
X10500Y157000D02*
X14000Y160500D01*
X10500Y9000D02*
Y157000D01*
X63043Y152500D02*
Y155957D01*
X61000Y158000D02*
X63043Y155957D01*
X59000Y158000D02*
X61000D01*
X63043Y146500D02*
Y152500D01*
X230000Y129500D02*
Y141500D01*
X226500Y145000D02*
X230000Y141500D01*
X209600Y145000D02*
X226500D01*
X250000Y145500D02*
Y150000D01*
X225000Y142500D02*
X227500Y140000D01*
X204443Y139843D02*
X209600Y145000D01*
X209000Y131000D02*
X210559Y132559D01*
X218976D01*
X169382Y124882D02*
X174500Y130000D01*
X161024Y124882D02*
X169382D01*
X161024Y130000D02*
X166500D01*
X27000Y36500D02*
X38500D01*
X22543Y32043D02*
X27000Y36500D01*
X22543Y19000D02*
Y32043D01*
X20000Y36500D02*
Y40000D01*
Y36500D02*
X21500Y35000D01*
X67598Y23902D02*
X69000Y22500D01*
X87457D01*
X67598Y23902D02*
Y29409D01*
X206000Y21000D02*
X210000D01*
X190300Y16700D02*
X202700D01*
X203500Y17500D01*
Y23500D01*
X220000Y20500D02*
X223000D01*
X224000Y21500D01*
X270500Y31000D02*
X275500Y36000D01*
X270500Y26000D02*
Y31000D01*
X273897Y30197D02*
X275925D01*
X273500Y29800D02*
X273897Y30197D01*
X273500Y26000D02*
Y29800D01*
X211400Y14900D02*
X214000Y17500D01*
X189100Y14900D02*
X211400D01*
X186000Y18000D02*
X189100Y14900D01*
X187000Y20000D02*
X190300Y16700D01*
X178000Y20000D02*
X187000D01*
X195315Y26260D02*
X204760D01*
X200000Y20000D02*
Y26260D01*
X182000Y22500D02*
X192000D01*
X208000Y34500D02*
X213200D01*
X206500Y33000D02*
X208000Y34500D01*
X206500Y28000D02*
Y33000D01*
X204760Y26260D02*
X206500Y28000D01*
X216000Y15500D02*
X219500D01*
X214000Y17500D02*
X216000Y15500D01*
X214000Y17500D02*
Y22000D01*
X179500Y18000D02*
X186000D01*
X212200Y23800D02*
X214000Y22000D01*
X212200Y23800D02*
Y28617D01*
X35500Y40000D02*
Y40500D01*
X34752Y39252D02*
X35500Y40000D01*
X29409Y39252D02*
X34752D01*
X24000Y51850D02*
X29409D01*
X24000Y50000D02*
Y51850D01*
X20000Y50000D02*
X24000D01*
X40000Y38000D02*
Y48500D01*
X38500Y36500D02*
X40000Y38000D01*
X36650Y51850D02*
X40000Y48500D01*
X29409Y51850D02*
X36650D01*
X186500Y88000D02*
X208500D01*
X186000Y87500D02*
X186500Y88000D01*
X179500Y87500D02*
X186000D01*
X151000Y72000D02*
X154000D01*
X148150Y74850D02*
X151000Y72000D01*
X148150Y74850D02*
Y80591D01*
X150000Y68500D02*
X156500D01*
X147000Y71500D02*
X150000Y68500D01*
X132402Y48902D02*
X149500Y66000D01*
X132402Y29409D02*
Y48902D01*
X135551Y46551D02*
X153000Y64000D01*
X135551Y29409D02*
Y46551D01*
X153000Y64000D02*
Y66000D01*
X131500Y71500D02*
X147000D01*
X44000Y169000D02*
X59000D01*
X19500Y144500D02*
X44000Y169000D01*
X46000Y167000D02*
X60000D01*
X15500Y136500D02*
X46000Y167000D01*
X15500Y61500D02*
Y136500D01*
X114000Y172500D02*
X116511Y169989D01*
X258700D01*
X24500Y129500D02*
X27000Y127000D01*
X24500Y129500D02*
Y142000D01*
X47500Y165000D01*
X74000D01*
X74500Y165500D01*
X80000D01*
X121500Y193500D02*
X132311D01*
X118000Y151500D02*
X129000Y162500D01*
X113000Y151500D02*
X118000D01*
X112500Y152000D02*
X113000Y151500D01*
X107095Y154095D02*
X114594D01*
X102500Y149500D02*
X107095Y154095D01*
X114500Y165000D02*
X275000D01*
X102000Y152500D02*
X114500Y165000D01*
X98500Y152500D02*
X102000D01*
X264595Y173000D02*
X264600D01*
X119500Y172594D02*
X264189D01*
X110000Y152000D02*
X112500D01*
X129000Y162500D02*
X277000D01*
X123500Y153500D02*
X129500D01*
X130500Y128500D02*
Y152500D01*
X129500Y153500D02*
X130500Y152500D01*
X128000Y139000D02*
Y151000D01*
X126677Y137677D02*
X128000Y139000D01*
X121024Y137677D02*
X126677D01*
X100500Y142500D02*
X110000Y152000D01*
X27000Y141500D02*
X48500Y163000D01*
X77000D01*
X27000Y133000D02*
Y141500D01*
X101000Y164000D02*
X117000Y180000D01*
X82500Y164000D02*
X101000D01*
X79000Y160500D02*
X82500Y164000D01*
X56500Y160500D02*
X79000D01*
X50500Y154500D02*
X56500Y160500D01*
X119500Y196000D02*
X126406D01*
X93000Y142500D02*
X100500D01*
X60000Y167000D02*
X61000Y168000D01*
X59000Y169000D02*
X60000Y170000D01*
X14000Y5500D02*
X91500D01*
X10500Y9000D02*
X14000Y5500D01*
X91500D02*
X94543Y8543D01*
Y12000D01*
X13000Y59500D02*
X15457Y57043D01*
Y19000D02*
Y57043D01*
X15500Y61500D02*
X22000Y55000D01*
X18000Y63000D02*
Y113000D01*
Y63000D02*
X22850Y58150D01*
X20500Y64500D02*
Y77500D01*
Y64500D02*
X23701Y61299D01*
X22000Y55000D02*
X29409D01*
X22850Y58150D02*
X29409D01*
X23701Y61299D02*
X29409D01*
X38500Y8000D02*
X88500D01*
X37000Y9500D02*
X38500Y8000D01*
X74000Y33500D02*
X85000D01*
X72000Y35500D02*
X74000Y33500D01*
X64449Y35500D02*
X72000D01*
X87457Y26000D02*
Y31043D01*
X85000Y33500D02*
X87457Y31043D01*
X87457Y19000D02*
Y22500D01*
Y12000D02*
Y19000D01*
X5500Y187000D02*
X14457D01*
X8000Y193000D02*
X14457D01*
X43500Y143000D02*
X52000Y134500D01*
X31900Y143000D02*
X43500D01*
X52000Y127500D02*
Y134500D01*
X73400Y177000D02*
Y186500D01*
X77043D01*
X101000Y170000D02*
X115000Y184000D01*
X60000Y170000D02*
X101000D01*
X102000Y168000D02*
X116000Y182000D01*
X61000Y168000D02*
X102000D01*
X93043Y152500D02*
X98500D01*
Y158500D01*
X97500Y159500D02*
X98500Y158500D01*
X93437Y159500D02*
X97500D01*
X111000Y198500D02*
X113500Y201000D01*
X26750Y176250D02*
Y178250D01*
X27250Y178750D01*
X33346D01*
X21543Y175000D02*
X25500D01*
X26750Y176250D01*
X33346D01*
X25500Y193000D02*
X26500Y192000D01*
Y190000D02*
Y192000D01*
Y190000D02*
X27750Y188750D01*
X21543Y193000D02*
X25500D01*
X27750Y188750D02*
X33346D01*
X115000Y184000D02*
X294350D01*
X116000Y182000D02*
X288500D01*
X117000Y180000D02*
X287500D01*
X120500Y175000D02*
X126406D01*
X118000Y177500D02*
X120500Y175000D01*
X22543Y12000D02*
Y19000D01*
X75248Y39252D02*
X80591D01*
X73500Y41000D02*
X75248Y39252D01*
X73500Y41000D02*
Y58500D01*
X75000Y36000D02*
X91500D01*
X70600Y40400D02*
X75000Y36000D01*
X70600Y40400D02*
Y48642D01*
X50500Y146500D02*
Y154500D01*
X288500Y182000D02*
X291000Y179500D01*
Y158500D02*
Y179500D01*
X31457Y142557D02*
X31900Y143000D01*
X31457Y139000D02*
Y142557D01*
X51500Y139500D02*
X55563D01*
X82500D02*
Y145800D01*
X81800Y146500D02*
X82500Y145800D01*
X78043Y146500D02*
X81800D01*
X93500Y108500D02*
Y128500D01*
X82500Y139500D02*
X93500Y128500D01*
X78437Y139500D02*
X82500D01*
X93500Y108500D02*
X94500Y107500D01*
X97500D01*
X99000Y109000D01*
X236000Y137677D02*
X241024D01*
X233000Y134677D02*
X236000Y137677D01*
X233000Y132500D02*
Y134677D01*
X155500Y112500D02*
X198500D01*
X152000Y109000D02*
X155500Y112500D01*
X99000Y109000D02*
X152000D01*
X139000Y113500D02*
X155500Y130000D01*
X96000Y113500D02*
X139000D01*
X86900Y142000D02*
X92500D01*
X85957Y142943D02*
X86900Y142000D01*
X85957Y142943D02*
Y146500D01*
X50500D02*
X55957D01*
X50500Y140500D02*
Y146500D01*
Y140500D02*
X51500Y139500D01*
X287500Y180000D02*
X289000Y178500D01*
Y159500D02*
Y178500D01*
X283500Y154000D02*
X289000Y159500D01*
X273500Y154000D02*
X283500D01*
X271000Y151500D02*
X273500Y154000D01*
X271000Y139000D02*
Y151500D01*
X317000Y162000D02*
X319500Y159500D01*
X302500Y162000D02*
X317000D01*
X275000Y165000D02*
X286500Y176500D01*
X271000Y139000D02*
X274882Y135118D01*
X281024D01*
X277000Y162500D02*
X286500Y172000D01*
X92500Y142000D02*
X93000Y142500D01*
X307500Y52000D02*
X331000Y28500D01*
Y13000D02*
Y28500D01*
X334000Y18000D02*
X337000Y15000D01*
X328000Y38000D02*
X334000Y32000D01*
Y18000D02*
Y32000D01*
X330000Y39000D02*
X336000Y33000D01*
Y26000D02*
Y33000D01*
Y26000D02*
X337000Y25000D01*
X328000Y38000D02*
Y59000D01*
X330000Y39000D02*
Y60000D01*
X332000Y40000D02*
Y61000D01*
Y40000D02*
X337000Y35000D01*
X325500Y61500D02*
X328000Y59000D01*
X295000Y61500D02*
X325500D01*
X326500Y63500D02*
X330000Y60000D01*
X287500Y63500D02*
X326500D01*
X327500Y65500D02*
X332000Y61000D01*
X288500Y65500D02*
X327500D01*
X328500Y67500D02*
X334000Y62000D01*
Y48000D02*
Y62000D01*
Y48000D02*
X337000Y45000D01*
X301500Y67500D02*
X328500D01*
X329500Y69500D02*
X336000Y63000D01*
Y56000D02*
Y63000D01*
Y56000D02*
X337000Y55000D01*
X302000Y69500D02*
X329500D01*
X337000Y65000D02*
X350000D01*
X330500Y71500D02*
X337000Y65000D01*
X302500Y71500D02*
X330500D01*
X337000Y75000D02*
X350000D01*
X335500Y73500D02*
X337000Y75000D01*
X303300Y73500D02*
X335500D01*
X337000Y165000D02*
X350000D01*
X335000Y167000D02*
X337000Y165000D01*
X298500Y167000D02*
X335000D01*
X337000Y145000D02*
X350000D01*
X325500Y133500D02*
X337000Y145000D01*
X325500Y113000D02*
Y133500D01*
X338000Y115000D02*
X350000D01*
X332000Y109000D02*
X338000Y115000D01*
X337000Y95000D02*
X350000D01*
X332500Y90500D02*
X337000Y95000D01*
X325000Y90500D02*
X332500D01*
X337000Y85000D02*
X350000D01*
X335500Y86500D02*
X337000Y85000D01*
X308500Y86500D02*
X335500D01*
X337000Y55000D02*
X350000D01*
X337000Y45000D02*
X350000D01*
X337000Y35000D02*
X350000D01*
X337000Y25000D02*
X350000D01*
X337000Y15000D02*
X350000D01*
X63500Y128500D02*
X71000D01*
X63043Y128957D02*
X63500Y128500D01*
X63043Y128957D02*
Y132500D01*
X62000Y127000D02*
X63001Y125999D01*
X61957Y121957D02*
X63001Y123001D01*
Y125999D01*
X57500Y127000D02*
X62000D01*
X55780Y121957D02*
X61957D01*
X43500Y117000D02*
Y120000D01*
Y117000D02*
X48780Y111720D01*
X42500Y121000D02*
X43500Y120000D01*
X45500Y118000D02*
Y125500D01*
Y118000D02*
X49220Y114280D01*
X44000Y127000D02*
X45500Y125500D01*
X47500Y119000D02*
Y131500D01*
Y119000D02*
X49661Y116839D01*
X46000Y133000D02*
X47500Y131500D01*
X38543Y121000D02*
X42500D01*
X78220Y124516D02*
Y132323D01*
X55957Y128543D02*
X57500Y127000D01*
X55957Y128543D02*
Y132500D01*
X61000Y112500D02*
X70457Y121957D01*
X61000Y99000D02*
Y112500D01*
X54000Y92000D02*
X61000Y99000D01*
X63000Y111500D02*
X70898Y119398D01*
X63000Y97500D02*
Y111500D01*
X55500Y90000D02*
X63000Y97500D01*
X65000Y110500D02*
X71339Y116839D01*
X65000Y96500D02*
Y110500D01*
X56500Y88000D02*
X65000Y96500D01*
X67000Y109500D02*
X71780Y114280D01*
X67000Y95500D02*
Y109500D01*
X58150Y86650D02*
X67000Y95500D01*
X69000Y108500D02*
X72220Y111720D01*
X69000Y94500D02*
Y108500D01*
X61299Y86799D02*
X69000Y94500D01*
X71000Y107500D02*
X72661Y109161D01*
X71000Y93000D02*
Y107500D01*
X64449Y86449D02*
X71000Y93000D01*
X73000Y106300D02*
X73302Y106602D01*
X73000Y92000D02*
Y106300D01*
X67598Y86598D02*
X73000Y92000D01*
X73302Y106602D02*
X78220D01*
X93500Y139500D02*
X94500Y140500D01*
X104000D02*
X108500Y145000D01*
X94500Y140500D02*
X104000D01*
X97000Y73000D02*
Y102500D01*
Y73000D02*
X102000Y68000D01*
X80591Y61299D02*
X110000D01*
X80591Y64449D02*
X107000D01*
X97000Y102500D02*
X101000Y106500D01*
X112551Y64449D02*
X119409D01*
X100000Y77000D02*
X112551Y64449D01*
X100000Y77000D02*
Y102000D01*
X113402Y67598D02*
X119409D01*
X103000Y78000D02*
X113402Y67598D01*
X103000Y78000D02*
Y101500D01*
X100000Y102000D02*
X102000Y104000D01*
X271500Y49000D02*
X292000D01*
X266500Y44000D02*
X271500Y49000D01*
X256000Y44000D02*
X266500D01*
X272697Y79803D02*
X275925D01*
X270500Y82000D02*
X272697Y79803D01*
X278091Y65591D02*
Y69500D01*
X275500Y63000D02*
X278091Y65591D01*
X255000Y63000D02*
X275500D01*
X250000Y58000D02*
X255000Y63000D01*
X140000Y111500D02*
X153382Y124882D01*
X97500Y111500D02*
X140000D01*
X96000Y110000D02*
X97500Y111500D01*
X101000Y106500D02*
X137500D01*
X102000Y104000D02*
X112500D01*
X70457Y121957D02*
X78220D01*
X70898Y119398D02*
X78220D01*
X71339Y116839D02*
X78220D01*
X71780Y114280D02*
X78220D01*
X72220Y111720D02*
X78220D01*
X72661Y109161D02*
X78220D01*
X111500Y138000D02*
Y149500D01*
X108618Y135118D02*
X111500Y138000D01*
X98976Y135118D02*
X108618D01*
X252311Y177500D02*
X282311D01*
X222311D02*
X252311D01*
X192311D02*
X222311D01*
X162311D02*
X192311D01*
X132311D02*
X162311D01*
X121500D02*
X132311D01*
X246406Y175000D02*
X276406D01*
X216406D02*
X246406D01*
X186406D02*
X216406D01*
X156405D02*
X186406D01*
X126406D02*
X156405D01*
X252311Y193500D02*
X282300D01*
X222311D02*
X252311D01*
X192311D02*
X222311D01*
X162311D02*
X192311D01*
X132311D02*
X162311D01*
X246406Y196000D02*
X276401D01*
X216406D02*
X246406D01*
X186406D02*
X216406D01*
X156405D02*
X186406D01*
X126406D02*
X156405D01*
X234594Y198500D02*
X264595D01*
X204594D02*
X234594D01*
X174594D02*
X204594D01*
X144595D02*
X174594D01*
X114594D02*
X144595D01*
X228689Y201000D02*
X258689D01*
X198689D02*
X228689D01*
X168689D02*
X198689D01*
X138689D02*
X168689D01*
X113500D02*
X138689D01*
X23000Y70748D02*
X29409D01*
X93500Y133300D02*
Y139500D01*
X80591Y42402D02*
X99500D01*
X213250Y39750D02*
X213500Y39500D01*
X302500Y158000D02*
X309000D01*
X320000Y147000D01*
Y133500D02*
Y147000D01*
X304000Y155500D02*
X305000Y154500D01*
X294000Y155500D02*
X304000D01*
X291000Y158500D02*
X294000Y155500D01*
X249941Y132559D02*
X250000Y132500D01*
X241024Y132559D02*
X249941D01*
X251500Y130000D02*
X258976D01*
X247000Y125500D02*
X251500Y130000D01*
X247000Y122000D02*
Y125500D01*
X309000Y185000D02*
X350000D01*
X293500Y169500D02*
X309000Y185000D01*
X293500Y161000D02*
Y169500D01*
X302500Y175000D02*
X350000D01*
X296000Y168500D02*
X302500Y175000D01*
X296000Y164000D02*
Y168500D01*
X305000Y129000D02*
Y154500D01*
X282000Y156500D02*
X286500Y161000D01*
X149500Y156500D02*
X282000D01*
X279000Y158500D02*
X284500Y164000D01*
X148500Y158500D02*
X279000D01*
X284500Y164000D02*
X286500D01*
X278000Y160500D02*
X284500Y167000D01*
X147500Y160500D02*
X278000D01*
X284500Y167000D02*
X286500D01*
X319000Y132500D02*
X320000Y133500D01*
X309000Y132500D02*
X319000D01*
X308000Y131500D02*
X309000Y132500D01*
X308000Y126000D02*
Y131500D01*
Y126000D02*
X309000Y125000D01*
X314449D01*
X181000Y36500D02*
X186000Y41500D01*
X166500Y36500D02*
X181000D01*
X149500Y17500D02*
X153000D01*
X144500Y22500D02*
X149500Y17500D01*
X143000Y22500D02*
X144500D01*
X153000Y17500D02*
X155500Y20000D01*
X108000Y47000D02*
X112850Y51850D01*
X106000Y36500D02*
Y48000D01*
X113000Y55000D01*
X224500Y58000D02*
X250000D01*
X301909Y74891D02*
X303300Y73500D01*
X299744Y74256D02*
X302500Y71500D01*
X297579Y73921D02*
X302000Y69500D01*
X295413Y73587D02*
X301500Y67500D01*
X282421Y71579D02*
X288500Y65500D01*
X280256Y70744D02*
X287500Y63500D01*
X293500Y60000D02*
X295000Y61500D01*
X320500Y59500D02*
X322000Y58000D01*
X296000Y59500D02*
X320500D01*
X294000Y57500D02*
X296000Y59500D01*
X320500Y112000D02*
X323000Y114500D01*
X307000Y112000D02*
X320500D01*
X301500Y117500D02*
X307000Y112000D01*
X321500Y109000D02*
X325500Y113000D01*
X306000Y109000D02*
X321500D01*
X331500Y135000D02*
X350000D01*
X328000Y131500D02*
X331500Y135000D01*
X332500Y117000D02*
Y121000D01*
X322000Y106500D02*
X332500Y117000D01*
X296500Y106500D02*
X322000D01*
X328000Y104500D02*
X329500Y106000D01*
X296000Y104500D02*
X328000D01*
X332500Y105000D02*
X350000D01*
X317000Y89500D02*
X332500Y105000D01*
X297500Y109000D02*
X306000D01*
X295551Y110949D02*
X297500Y109000D01*
X295551Y110949D02*
Y115000D01*
X288000D02*
X296500Y106500D01*
X287500Y113000D02*
X296000Y104500D01*
X295500Y102000D02*
X316000D01*
X287000Y110500D02*
X295500Y102000D01*
X295000Y99500D02*
X313500D01*
X286500Y108000D02*
X295000Y99500D01*
X246118Y135118D02*
X252500Y141500D01*
X264500D01*
X273500D02*
X288000D01*
Y143500D02*
X289500Y145000D01*
X288000Y141500D02*
Y143500D01*
Y141500D02*
X289500Y140000D01*
Y145000D02*
X295551D01*
X289500Y140000D02*
X295551D01*
X301000Y125000D02*
X305000Y129000D01*
X162000Y153500D02*
X180500D01*
X158500Y150000D02*
X162000Y153500D01*
X158500Y142000D02*
Y150000D01*
X151618Y135118D02*
X158500Y142000D01*
X155618Y135118D02*
X161024D01*
X138976D02*
X151618D01*
X153382Y124882D02*
X161024D01*
X155500Y130000D02*
X161024D01*
X138976Y132559D02*
X146000D01*
X138976Y127441D02*
X146000D01*
X130500Y128500D02*
X134118Y124882D01*
X126500Y121000D02*
Y129200D01*
X125700Y130000D02*
X126500Y129200D01*
X121024Y130000D02*
X125700D01*
X128500Y120000D02*
Y130000D01*
X125941Y132559D02*
X128500Y130000D01*
X121024Y132559D02*
X125941D01*
X125500Y117000D02*
X128500Y120000D01*
X125000Y119500D02*
X126500Y121000D01*
X116318Y135118D02*
X121024D01*
X115500Y134300D02*
X116318Y135118D01*
X115500Y130500D02*
Y134300D01*
X112500Y104000D02*
X137000D01*
X98976Y127441D02*
X110000D01*
X98976Y124882D02*
X107500D01*
X103000Y101500D02*
X136500D01*
X138500Y99500D02*
X155500D01*
X136500Y101500D02*
X138500Y99500D01*
X139500Y101500D02*
X154500D01*
X137000Y104000D02*
X139500Y101500D01*
X85957Y104043D02*
X87500Y102500D01*
Y72000D02*
Y102500D01*
X86248Y70748D02*
X87500Y72000D01*
X80591Y70748D02*
X86248D01*
X137500Y106500D02*
X140500Y103500D01*
X153500D01*
X320000Y205000D02*
X350000D01*
X208000Y118000D02*
X246000D01*
X200000Y110000D02*
X208000Y118000D01*
X157000Y110000D02*
X200000D01*
X209000Y116000D02*
X247000D01*
X201000Y108000D02*
X209000Y116000D01*
X158000Y108000D02*
X201000D01*
X209000Y137500D02*
X211382Y135118D01*
X209000Y137500D02*
Y141000D01*
X209182Y124882D02*
X218976D01*
X204457Y120157D02*
X209182Y124882D01*
X195000Y120157D02*
X204457D01*
X195000Y139843D02*
X204443D01*
X302000Y121000D02*
Y124000D01*
X288500Y119500D02*
Y124700D01*
X285759Y127441D02*
X288500Y124700D01*
X281024Y127441D02*
X285759D01*
X288500Y119500D02*
X290500Y117500D01*
X286000Y118000D02*
Y123500D01*
X285000Y117000D02*
X286000Y118000D01*
X320500Y195000D02*
X350000D01*
X150500Y146500D02*
Y153500D01*
X144000Y140000D02*
X150500Y146500D01*
X135000Y140000D02*
X144000D01*
X244500Y105500D02*
X245000Y106000D01*
X285500D01*
X235000Y105500D02*
X244500D01*
X114051Y45551D02*
X119409D01*
X112850Y51850D02*
X119409D01*
X113000Y55000D02*
X119409D01*
X113150Y58150D02*
X119409D01*
X104000Y49000D02*
X113150Y58150D01*
X102000Y50000D02*
X113299Y61299D01*
X119409D01*
X226000Y120000D02*
X245000D01*
X223677Y122323D02*
X226000Y120000D01*
X218976Y122323D02*
X223677D01*
X48701Y29409D02*
Y56000D01*
X70748Y29409D02*
X74000D01*
X141850Y23650D02*
X143000Y22500D01*
X141850Y23650D02*
Y29409D01*
X155500Y20000D02*
X157500D01*
X158500Y19000D02*
X177000D01*
X157500Y20000D02*
X158500Y19000D01*
X113000Y41500D02*
X113902Y42402D01*
X119409D01*
X161500Y74500D02*
X163500Y76500D01*
X155000Y74500D02*
X161500D01*
X154449Y75051D02*
X155000Y74500D01*
X138701Y29409D02*
Y46201D01*
X129252Y50252D02*
X147000Y68000D01*
X129252Y29409D02*
Y50252D01*
X125500Y50500D02*
X144000Y69000D01*
X125500Y40000D02*
Y50500D01*
X80591Y58150D02*
X104000D01*
X76543Y15500D02*
Y19000D01*
Y12000D02*
Y15500D01*
X63000D02*
X76543D01*
X58543D02*
Y19000D01*
Y15500D02*
X63000D01*
X58543Y12000D02*
Y15500D01*
X41300Y23300D02*
X41700D01*
X40543Y22543D02*
X41300Y23300D01*
X40543Y19000D02*
Y22543D01*
X39252Y24052D02*
Y29409D01*
X37000Y21800D02*
X39252Y24052D01*
X37000Y9500D02*
Y21800D01*
X278091Y69500D02*
Y79803D01*
X280256Y70744D02*
Y79803D01*
X282421Y71579D02*
Y79803D01*
X293500Y72000D02*
X294500Y71000D01*
X293500Y72000D02*
Y74500D01*
X293248Y74752D02*
X293500Y74500D01*
X293248Y74752D02*
Y79803D01*
X284587Y73413D02*
X285000Y73000D01*
X284587Y73413D02*
Y79803D01*
X295413Y73587D02*
Y79803D01*
X297579Y73921D02*
Y79803D01*
X299744Y74256D02*
Y79803D01*
X301909Y74891D02*
Y79803D01*
X225500Y71000D02*
X230500Y66000D01*
X246000D01*
X227500Y73500D02*
X233000Y68000D01*
X221000Y73500D02*
X227500D01*
X218110Y76390D02*
X221000Y73500D01*
X205500Y86000D02*
X208000Y83500D01*
Y71000D02*
Y83500D01*
X210236Y72264D02*
X224500Y58000D01*
X210236Y72264D02*
Y81378D01*
X225500Y60000D02*
X249000D01*
X212205Y73295D02*
X225500Y60000D01*
X212205Y73295D02*
Y81378D01*
X226500Y62000D02*
X248000D01*
X214173Y74327D02*
X226500Y62000D01*
X214173Y74327D02*
Y81378D01*
X227500Y64000D02*
X247000D01*
X216142Y75358D02*
X227500Y64000D01*
X216142Y75358D02*
Y81378D01*
X218110Y76390D02*
Y81378D01*
X219000Y55000D02*
X295000D01*
X207500Y66500D02*
X219000Y55000D01*
X188500Y66500D02*
X207500D01*
X186000Y69000D02*
X188500Y66500D01*
X206500Y64500D02*
X218000Y53000D01*
X186500Y64500D02*
X206500D01*
X183500Y67500D02*
X186500Y64500D01*
X205500Y62500D02*
X217000Y51000D01*
X293000D01*
X271500Y44000D02*
X281000D01*
X269000Y41500D02*
X271500Y44000D01*
X258000Y41500D02*
X269000D01*
X185000Y62500D02*
X205500D01*
X183500Y64000D02*
X185000Y62500D01*
X160000Y55000D02*
X163150Y58150D01*
X153500Y52000D02*
X162799Y61299D01*
X146000Y47500D02*
X162949Y64449D01*
X153500Y51500D02*
Y52000D01*
X162799Y61299D02*
X170591D01*
X146000Y45500D02*
Y47500D01*
X162949Y64449D02*
X170591D01*
X163150Y58150D02*
X170591D01*
X156000Y48000D02*
X160000Y52000D01*
X151500Y48000D02*
X156000D01*
X146500Y43000D02*
X151500Y48000D01*
X144000Y43500D02*
X146000Y45500D01*
X143500Y48000D02*
X163098Y67598D01*
X143500Y46500D02*
Y48000D01*
X310500Y54500D02*
X321500Y43500D01*
X300500Y54500D02*
X310500D01*
X293248Y39248D02*
X297500Y43500D01*
X293248Y30197D02*
Y39248D01*
X295413Y37413D02*
X300500Y42500D01*
X295413Y30197D02*
Y37413D01*
X290500Y117500D02*
X301500D01*
X304075Y85075D02*
X305500Y86500D01*
X304075Y79803D02*
Y85075D01*
X320500Y25747D02*
X325747Y20500D01*
X326000D01*
X322500Y26747D02*
X325747Y23500D01*
X326000D01*
X241024Y135118D02*
X246118D01*
X321000Y116000D02*
Y129000D01*
X142000Y106000D02*
X153000D01*
X157000Y110000D01*
X128500Y23300D02*
X129252Y24052D01*
X125300Y23300D02*
X128500D01*
X124543Y22543D02*
X125300Y23300D01*
X129252Y24052D02*
Y29409D01*
X124543Y19000D02*
Y22543D01*
X136500Y149500D02*
X147500Y160500D01*
X139500Y149500D02*
X148500Y158500D01*
X142500Y149500D02*
X149500Y156500D01*
X176500Y150500D02*
X181500D01*
X168000Y142000D02*
X176500Y150500D01*
X168000Y140000D02*
Y142000D01*
X177500Y148500D02*
X182500D01*
X170000Y141000D02*
X177500Y148500D01*
X170000Y136500D02*
Y141000D01*
X178500Y146500D02*
X183500D01*
X172000Y140000D02*
X178500Y146500D01*
X172000Y131000D02*
Y140000D01*
X128000Y61000D02*
Y72000D01*
X125150Y58150D02*
X128000Y61000D01*
X119409Y58150D02*
X125150D01*
X124752Y39252D02*
X125500Y40000D01*
X119409Y39252D02*
X124752D01*
X125500Y77500D02*
X131500Y71500D01*
X125500Y77500D02*
Y88500D01*
X132402Y74098D02*
Y80591D01*
X163500Y76500D02*
Y91500D01*
X163098Y67598D02*
X170591D01*
X141000Y74000D02*
X141850Y74850D01*
X139000Y74000D02*
X141000D01*
X141850Y74850D02*
Y80591D01*
X119500Y117000D02*
X125500D01*
X224000Y130000D02*
X225000Y131000D01*
X218976Y130000D02*
X224000D01*
X175000Y92000D02*
X211000D01*
X173500Y90500D02*
X175000Y92000D01*
X170000Y90500D02*
X173500D01*
X176500Y90000D02*
X210000D01*
X174000Y87500D02*
X176500Y90000D01*
X169000Y87500D02*
X174000D01*
X208500Y88000D02*
X210236Y86264D01*
X210000Y90000D02*
X212205Y87795D01*
X211000Y92000D02*
X214173Y88827D01*
X212000Y94000D02*
X216142Y89858D01*
X166000Y94000D02*
X212000D01*
X163500Y91500D02*
X166000Y94000D01*
X213000Y96000D02*
X218110Y90890D01*
X164500Y96000D02*
X213000D01*
X157600Y89100D02*
X164500Y96000D01*
X227000Y98000D02*
X231890Y93110D01*
X163000Y98000D02*
X227000D01*
X151299Y86299D02*
X163000Y98000D01*
X228000Y100000D02*
X233858Y94142D01*
X229000Y102000D02*
X235827Y95173D01*
X230000Y104000D02*
X237795Y96205D01*
X231000Y106000D02*
X239764Y97236D01*
X157600Y80592D02*
Y89100D01*
X151299Y80591D02*
Y86299D01*
X180500Y54500D02*
X200000D01*
X176850Y58150D02*
X180500Y54500D01*
X170591Y58150D02*
X176850D01*
X181500Y56500D02*
X201000D01*
X176701Y61299D02*
X181500Y56500D01*
X170591Y61299D02*
X176701D01*
X182500Y58500D02*
X202500D01*
X176551Y64449D02*
X182500Y58500D01*
X170591Y64449D02*
X176551D01*
X183500Y60500D02*
X204594D01*
X176402Y67598D02*
X183500Y60500D01*
X170591Y67598D02*
X176402D01*
X202500Y58500D02*
X205500Y55500D01*
X204500Y53000D02*
X209000D01*
X201000Y56500D02*
X204500Y53000D01*
X203500Y51000D02*
X208000D01*
X200000Y54500D02*
X203500Y51000D01*
X209000Y53000D02*
X220079Y41921D01*
Y28622D02*
Y41921D01*
X218110Y28622D02*
Y40890D01*
X208000Y51000D02*
X218110Y40890D01*
X216142Y28622D02*
Y39858D01*
X170591Y48701D02*
X207299D01*
X157500Y23000D02*
X159500Y21000D01*
X155000Y23000D02*
X157500D01*
X154449Y23551D02*
X155000Y23000D01*
X233000Y68000D02*
X245000D01*
X258000Y69000D02*
Y84000D01*
X256000Y70000D02*
Y85500D01*
X254000Y71000D02*
Y87000D01*
X252000Y72000D02*
Y88500D01*
X250000Y73000D02*
Y90000D01*
X248000Y74000D02*
Y91500D01*
X246000Y75000D02*
Y93000D01*
X244000Y76000D02*
Y94500D01*
X222047Y76047D02*
Y81378D01*
X246000Y66000D02*
X252000Y72000D01*
X247000Y64000D02*
X254000Y71000D01*
X248000Y62000D02*
X256000Y70000D01*
X249000Y60000D02*
X258000Y69000D01*
X216142Y21358D02*
Y28622D01*
X218110Y22390D02*
X220000Y20500D01*
X218110Y22390D02*
Y28622D01*
X170591Y51850D02*
X199000D01*
X244000Y40500D02*
X248000Y36500D01*
X254000Y26000D02*
Y39500D01*
X252000Y25000D02*
Y38500D01*
X250000Y24000D02*
Y37500D01*
X248000Y23000D02*
Y36500D01*
X243000Y38500D02*
X246000Y35500D01*
Y22000D02*
Y35500D01*
Y22000D02*
X252500Y15500D01*
X248000Y23000D02*
X253500Y17500D01*
X244000Y21000D02*
Y34500D01*
X242000Y36500D02*
X244000Y34500D01*
X238800D02*
X241000D01*
X237795Y33495D02*
X238800Y34500D01*
X237795Y28622D02*
Y33495D01*
X241000Y34500D02*
X242000Y33500D01*
Y20000D02*
Y33500D01*
X280256Y30197D02*
Y35744D01*
X245000Y68000D02*
X250000Y73000D01*
X235500Y70000D02*
X244000D01*
X231890Y73610D02*
X235500Y70000D01*
X231890Y73610D02*
Y81378D01*
X244000Y70000D02*
X248000Y74000D01*
X236500Y72000D02*
X243000D01*
X233858Y74642D02*
X236500Y72000D01*
X233858Y74642D02*
Y81378D01*
X243000Y72000D02*
X246000Y75000D01*
X242000Y74000D02*
X244000Y76000D01*
X237500Y74000D02*
X242000D01*
X235827Y75673D02*
X237500Y74000D01*
X235827Y75673D02*
Y81378D01*
X242000Y77000D02*
Y96000D01*
X241000Y76000D02*
X242000Y77000D01*
X238300Y76000D02*
X241000D01*
X237795Y76505D02*
X238300Y76000D01*
X237795Y76505D02*
Y81378D01*
X133177Y122323D02*
X138976D01*
X131500Y124000D02*
X133177Y122323D01*
X134118Y124882D02*
X138976D01*
X119500Y80500D02*
Y87000D01*
X117000Y119500D02*
X125000D01*
X119500Y80500D02*
X128000Y72000D01*
X117000Y80000D02*
Y89500D01*
Y80000D02*
X126000Y71000D01*
Y62500D02*
Y71000D01*
X124799Y61299D02*
X126000Y62500D01*
X119409Y61299D02*
X124799D01*
X160748Y80591D02*
Y87252D01*
X154449Y75051D02*
Y80591D01*
X133500Y138500D02*
X135000Y140000D01*
X133500Y130800D02*
Y138500D01*
X134300Y130000D02*
X138976D01*
X133500Y130800D02*
X134300Y130000D01*
X168441Y127441D02*
X172000Y131000D01*
X166059Y132559D02*
X170000Y136500D01*
X161024Y132559D02*
X166059D01*
X165677Y137677D02*
X168000Y140000D01*
X161024Y137677D02*
X165677D01*
X29409Y45551D02*
X35500D01*
X29409Y48701D02*
X35500D01*
X29409Y58150D02*
X40850D01*
X138701Y23000D02*
Y29409D01*
X258976Y132559D02*
X259035D01*
X250000Y124882D02*
X258976D01*
X218976Y127441D02*
X225441D01*
X245000Y120000D02*
X247000Y122000D01*
X320000Y130000D02*
X321000Y129000D01*
X179500Y15000D02*
X180000Y15500D01*
X178500Y17000D02*
X179500Y18000D01*
X177000Y19000D02*
X178000Y20000D01*
X225000Y13000D02*
X233858Y21858D01*
X226000Y11000D02*
X235827Y20827D01*
X227000Y9000D02*
X237795Y19795D01*
X228000Y7000D02*
X239764Y18764D01*
X159500Y21000D02*
X161700D01*
X161024Y127441D02*
X168441D01*
X70600Y48642D02*
Y71400D01*
X67500Y74500D02*
X70600Y71400D01*
X163200Y22500D02*
X166957D01*
X161700Y21000D02*
X163200Y22500D01*
X174043D02*
X178500D01*
X42402Y80591D02*
Y86598D01*
X41000Y88000D02*
X42402Y86598D01*
X25500Y88000D02*
X41000D01*
X132402Y19055D02*
Y29409D01*
X54500Y61500D02*
X58150Y57850D01*
X64000Y12000D02*
X69457D01*
X61299Y23701D02*
Y29409D01*
X42402Y24002D02*
Y29409D01*
X41700Y23300D02*
X42402Y24002D01*
X45000Y12700D02*
Y22000D01*
X44300Y12000D02*
X45000Y12700D01*
X40543Y12000D02*
X44300D01*
X45000Y22000D02*
X45551Y22551D01*
X47000Y20500D02*
X48701Y22201D01*
X47000Y12700D02*
Y20500D01*
Y12700D02*
X47700Y12000D01*
X50457D01*
X48701Y22201D02*
Y29409D01*
X51850Y19394D02*
Y29409D01*
X45551Y22551D02*
Y29409D01*
X29508Y67500D02*
X40000D01*
X180000Y122000D02*
X181843Y120157D01*
X180000Y122000D02*
Y126457D01*
X181843Y120157D02*
X195000D01*
X223000Y94000D02*
X227953Y89047D01*
Y81378D02*
Y89047D01*
X229921Y81378D02*
Y91079D01*
X45551Y80591D02*
Y87551D01*
X50000Y92000D01*
X54000D01*
X48701Y80591D02*
Y87201D01*
X51500Y90000D01*
X55500D01*
X51850Y80591D02*
Y86850D01*
X53000Y88000D01*
X56500D01*
X58150Y80591D02*
Y86650D01*
X61299Y80591D02*
Y86799D01*
X64449Y80591D02*
Y86449D01*
X67598Y80591D02*
Y86598D01*
X27000Y133000D02*
X31457D01*
X27000Y115000D02*
X31457D01*
X27000Y109000D02*
X31457D01*
X27000Y127000D02*
X31457D01*
X27000Y121000D02*
X31457D01*
X27000Y103000D02*
X31457D01*
X80591Y45551D02*
X99500D01*
X80591Y48701D02*
X99500D01*
X80591Y51850D02*
X99500D01*
X80591Y55000D02*
X99500D01*
X160299Y48701D02*
X170591D01*
X254000Y26000D02*
X256500Y23500D01*
X252000Y25000D02*
X255500Y21500D01*
X250000Y24000D02*
X254500Y19500D01*
X244000Y21000D02*
X251500Y13500D01*
X242000Y20000D02*
X250500Y11500D01*
X220079Y23421D02*
Y28622D01*
X231890Y81378D02*
Y93110D01*
X233858Y81378D02*
Y94142D01*
X235827Y81378D02*
Y95173D01*
X237795Y81378D02*
Y96205D01*
X239764Y81378D02*
Y97236D01*
X216142Y81378D02*
Y89858D01*
X214173Y81378D02*
Y88827D01*
X212205Y81378D02*
Y87795D01*
X218110Y81378D02*
Y90890D01*
X210236Y81378D02*
Y86264D01*
X233858Y21858D02*
Y28622D01*
X235827Y20827D02*
Y28622D01*
X237795Y19795D02*
Y28622D01*
X239764Y18764D02*
Y28622D01*
X38543Y103000D02*
X44500D01*
X45543Y104043D01*
X55780D01*
X44500Y97000D02*
X48984Y101484D01*
X55780D01*
X38543Y109000D02*
X43000D01*
X45398Y106602D01*
X55780D01*
X38543Y115000D02*
X42500D01*
X48339Y109161D01*
X55780D01*
X48780Y111720D02*
X55780D01*
X49220Y114280D02*
X55780D01*
X49661Y116839D02*
X55780D01*
X49500Y120500D02*
X50602Y119398D01*
X55780D01*
X38543Y133000D02*
X46000D01*
X38543Y127000D02*
X44000D01*
X38543Y97000D02*
X44500D01*
X78220Y104043D02*
X85957D01*
X218976Y124882D02*
X241024D01*
X320000Y115000D02*
X321000Y116000D01*
X29409Y70748D02*
X36248D01*
X40000Y74500D01*
X67500D01*
X29461Y64500D02*
X41000D01*
X48500Y72000D01*
X64000D01*
X49000Y69500D02*
X67500D01*
X45551Y29409D02*
Y63051D01*
X49500Y67000D01*
X64000D01*
X42500Y29508D02*
Y36000D01*
X43500Y37000D01*
Y64000D02*
X49000Y69500D01*
X43500Y37000D02*
Y64000D01*
X58150Y29409D02*
Y57850D01*
X63500Y19000D02*
X69457D01*
X63500D02*
Y21500D01*
X61299Y23701D02*
X63500Y21500D01*
X58150Y23150D02*
Y29409D01*
X27000Y97000D02*
X31457D01*
X51850Y29409D02*
Y38000D01*
X64449Y29409D02*
Y35500D01*
X38543Y139000D02*
X44000D01*
X49500Y133500D01*
Y120500D02*
Y133500D01*
X184500Y153500D02*
X210500D01*
X181500Y150500D02*
X184500Y153500D01*
X215000D02*
X240500D01*
X215500Y150500D02*
X238500D01*
X212500Y151000D02*
X215000Y153500D01*
X185000Y151000D02*
X212500D01*
X182500Y148500D02*
X185000Y151000D01*
X214000Y149000D02*
X215500Y150500D01*
X183500Y146500D02*
X186000Y149000D01*
X214000D01*
X211382Y135118D02*
X218976D01*
X93500Y133300D02*
X94241Y132559D01*
X98976D01*
X239764Y18764D02*
X249028Y9500D01*
X98976Y130000D02*
X104000D01*
X113500Y127441D02*
X121024D01*
X166000Y90500D02*
X169000Y87500D01*
X157000Y17000D02*
X178500D01*
X156500Y17500D02*
X157000Y17000D01*
X154449Y23551D02*
Y29409D01*
X299744Y30197D02*
Y35744D01*
X302000Y38000D01*
X297579Y30197D02*
Y36579D01*
X301000Y40000D01*
X180000Y133543D02*
Y137500D01*
X182343Y139843D01*
X195000D01*
X157500Y95500D02*
X162000Y100000D01*
X228000D01*
X156500Y97500D02*
X161000Y102000D01*
X229000D01*
X129252Y80591D02*
Y89248D01*
X137504Y97500D01*
X156500D01*
X132402Y80591D02*
Y88402D01*
X139500Y95500D01*
X157500D01*
X135551Y80591D02*
Y87551D01*
X141000Y93000D01*
X154000D01*
X138701Y80591D02*
Y86701D01*
X142500Y90500D01*
X151500D01*
X155500Y99500D02*
X160000Y104000D01*
X230000D01*
X154500Y101500D02*
X159000Y106000D01*
X231000D01*
X153500Y103500D02*
X158000Y108000D01*
X110000Y94500D02*
X124000D01*
X129252Y89248D01*
X160000Y52000D02*
X170441D01*
X314449Y130000D02*
X320000D01*
X314449Y115000D02*
X320000D01*
X295551Y125000D02*
X301000D01*
X295551Y120000D02*
X301000D01*
X301909Y30197D02*
Y35109D01*
X302800Y36000D01*
X305500D01*
X306500Y35000D01*
X302000Y38000D02*
X306500D01*
X308500Y36000D01*
X301000Y40000D02*
X307500D01*
X318500Y29000D01*
X304500Y46000D02*
X320500Y30000D01*
Y25747D02*
Y30000D01*
X305500Y48000D02*
X322500Y31000D01*
Y26747D02*
Y31000D01*
X306500Y50000D02*
X324500Y32000D01*
Y27500D02*
Y32000D01*
Y27500D02*
X325500Y26500D01*
X326000D01*
X318500Y11500D02*
Y29000D01*
X300500Y8500D02*
X321000D01*
X308500Y23000D02*
Y36000D01*
Y23000D02*
X314500Y17000D01*
X306500Y21500D02*
Y35000D01*
Y21500D02*
X311000Y17000D01*
X249028Y9500D02*
X297500D01*
X299000Y11000D01*
X305500D01*
X304075Y19925D02*
Y30197D01*
Y19925D02*
X311000Y13000D01*
X295650Y11500D02*
X304075Y19925D01*
X250500Y11500D02*
X295650D01*
X251500Y13500D02*
X294500D01*
X301909Y20909D01*
Y30197D01*
X252500Y15500D02*
X293500D01*
X299744Y21744D01*
Y30197D01*
X253500Y17500D02*
X292500D01*
X297579Y22579D01*
Y30197D01*
X254500Y19500D02*
X291500D01*
X295413Y23413D01*
Y30197D01*
X255500Y21500D02*
X290500D01*
X293248Y24248D01*
Y30197D01*
X236000Y130000D02*
X241024D01*
X225441Y127441D02*
X227500Y129500D01*
Y140000D01*
X216500Y141000D02*
X222000D01*
X225000Y138000D01*
Y131000D02*
Y138000D01*
X230000Y129500D02*
X232059Y127441D01*
X241024D01*
X252000Y88500D02*
X255000Y91500D01*
X242000Y96000D02*
X247500Y101500D01*
X282421Y79803D02*
Y85079D01*
X284587Y79803D02*
Y85413D01*
X281000Y91500D02*
X286752Y85748D01*
Y79803D02*
Y85748D01*
X291083Y79803D02*
Y84717D01*
X293248Y79803D02*
Y85252D01*
X295413Y79803D02*
Y85587D01*
X297579Y79803D02*
Y85921D01*
X299744Y79803D02*
Y86256D01*
X301909Y79803D02*
Y86591D01*
X302000Y89500D02*
X308500D01*
X297000Y57000D02*
X319000D01*
X319500Y56500D01*
X298000Y52000D02*
X307500D01*
X297000Y50000D02*
X306500D01*
X296000Y48000D02*
X305500D01*
X295000Y46000D02*
X304500D01*
X255000Y41500D02*
X258000D01*
X265000Y27000D02*
Y28500D01*
X292000Y49000D02*
X295000Y46000D01*
X293000Y51000D02*
X296000Y48000D01*
X294000Y53000D02*
X297000Y50000D01*
X218000Y53000D02*
X294000D01*
X295000Y55000D02*
X298000Y52000D01*
X301000Y120000D02*
X302000Y121000D01*
X301000Y125000D02*
X302000Y124000D01*
X305500Y86500D02*
X308500D01*
X227000Y94000D02*
X229921Y91079D01*
X218543Y110000D02*
X223000D01*
X227000D02*
X231457D01*
X260464Y25964D02*
X262000Y27500D01*
Y28500D01*
X258976Y132559D02*
X264500D01*
X246000Y118000D02*
X248000Y120000D01*
X247000Y116000D02*
X249000Y118000D01*
X280256Y79803D02*
Y84744D01*
X258976Y122323D02*
X263723D01*
X264500Y123100D01*
Y124500D01*
X248000Y120000D02*
X264000D01*
X249000Y118000D02*
X264500D01*
X260000Y110000D02*
Y110500D01*
X270500Y60000D02*
X293500D01*
X265500Y57500D02*
X294000D01*
X239764Y97236D02*
X246028Y103500D01*
X250000Y90000D02*
X254000Y94000D01*
X281800D01*
X291083Y84717D01*
X248000Y91500D02*
X252500Y96000D01*
X282500D01*
X293248Y85252D01*
X246000Y93000D02*
X251000Y98000D01*
X283000D01*
X295413Y85587D01*
X244000Y94500D02*
X249500Y100000D01*
X283500D01*
X297579Y85921D01*
X254000Y87000D02*
X256000Y89000D01*
X281000D01*
X284587Y85413D01*
X256000Y85500D02*
X257500Y87000D01*
X280500D01*
X282421Y85079D01*
X258000Y84000D02*
X259000Y85000D01*
X280000D01*
X280256Y84744D01*
X247500Y101500D02*
X248000Y102000D01*
X284000D01*
X299744Y86256D01*
X246028Y103500D02*
X246528Y104000D01*
X284500D01*
X301909Y86591D01*
X285500Y106000D02*
X302000Y89500D01*
X260000Y110500D02*
Y110753D01*
X262247Y113000D01*
X257000Y110247D02*
Y110500D01*
Y110247D02*
X259247Y108000D01*
X269500Y110500D02*
X287000D01*
X259247Y108000D02*
X286500D01*
X291083Y73000D02*
Y79803D01*
X256500Y23500D02*
X287500D01*
X288917Y24917D01*
Y30197D01*
X278091D02*
Y35109D01*
X282421Y30197D02*
Y36579D01*
X284587Y30197D02*
Y37413D01*
X286752Y30197D02*
Y38248D01*
X273000Y46500D02*
X281500D01*
X288917Y39083D01*
Y30197D02*
Y39083D01*
X281000Y44000D02*
X286752Y38248D01*
X280000Y42000D02*
X284587Y37413D01*
X259500Y29000D02*
X272500Y42000D01*
X280000D01*
X262000Y28500D02*
X273500Y40000D01*
X279000D01*
X282421Y36579D01*
X265000Y28500D02*
X274500Y38000D01*
X278000D01*
X280256Y35744D01*
X275500Y36000D02*
X277200D01*
X278091Y35109D01*
X235827Y28622D02*
Y34327D01*
X238000Y36500D01*
X242000D01*
X233858Y28622D02*
Y35358D01*
X237000Y38500D01*
X243000D01*
X231890Y28622D02*
Y36890D01*
X235500Y40500D02*
X244000D01*
X231890Y36890D02*
X233000Y38000D01*
X235500Y40500D01*
X229921Y28622D02*
Y38921D01*
X231500Y40500D02*
X233500Y42500D01*
X245000D01*
X250000Y37500D01*
X246000Y44500D02*
X252000Y38500D01*
X227953Y28622D02*
Y40953D01*
X230000Y43000D01*
X231500Y44500D02*
X246000D01*
X230000Y43000D02*
X231500Y44500D01*
X247000Y46500D02*
X254000Y39500D01*
X224016Y28622D02*
Y41016D01*
X228500Y45500D02*
X229500Y46500D01*
X247000D01*
X222047Y28622D02*
Y43047D01*
X204594Y60500D02*
X222047Y43047D01*
X227500Y48500D02*
X248000D01*
X255000Y41500D01*
X180000Y15500D02*
X185000D01*
X216142Y21358D02*
X219500Y18000D01*
X226500D01*
X231500Y23000D01*
X220079Y23421D02*
X220500Y23000D01*
X221500D01*
X170591Y45551D02*
X177051D01*
X178000Y46500D01*
X170591Y42402D02*
X176902D01*
X179000Y44500D01*
X214173Y28622D02*
Y33527D01*
X213200Y34500D02*
X214173Y33527D01*
X184725Y26300D02*
X188500D01*
X204000Y44500D02*
X207000Y41500D01*
X179000Y44500D02*
X204000D01*
X224016Y41016D02*
X228500Y45500D01*
X229921Y38921D02*
X231500Y40500D01*
X222047Y43047D02*
X227500Y48500D01*
X207299Y48701D02*
X216142Y39858D01*
X178000Y46500D02*
X206000D01*
X213000Y39500D01*
X184685Y33740D02*
X188740D01*
X195500Y40500D02*
X199000D01*
X188740Y33740D02*
X195500Y40500D01*
X195315Y33740D02*
Y36515D01*
X195800Y37000D01*
X199000D01*
X180240Y34500D02*
X181000Y33740D01*
X184685D01*
X151299Y29409D02*
Y34799D01*
X148150Y29409D02*
Y34750D01*
X160748Y23500D02*
Y29409D01*
X163700Y26000D02*
X166957D01*
Y29500D01*
X157500Y29508D02*
Y37500D01*
X146000Y41000D02*
X146500Y41500D01*
Y43000D01*
X144000Y35500D02*
X148500Y40000D01*
Y42000D01*
X152551Y46051D01*
X151000Y41000D02*
X154000Y44000D01*
X152551Y46051D02*
X164449D01*
X164949Y45551D01*
X170591D01*
X154000Y44000D02*
X163500D01*
X165000Y42500D01*
X170492D01*
X148150Y34750D02*
X155400Y42000D01*
X161000D01*
X166500Y36500D01*
X151299Y34799D02*
X156500Y40000D01*
X160000D01*
X165500Y34500D01*
X180240D01*
X237642Y13642D02*
X240500D01*
X229000Y5000D02*
X237642Y13642D01*
X105500Y5000D02*
X229000D01*
X113000Y20500D02*
Y41500D01*
X110500Y19500D02*
X115000Y15000D01*
X179500D01*
X114000Y13000D02*
X225000D01*
X113000Y11000D02*
X226000D01*
X112000Y9000D02*
X227000D01*
X111000Y7000D02*
X228000D01*
X110500Y19500D02*
Y22000D01*
X111000Y22500D01*
Y42500D01*
X114051Y45551D01*
X108500Y37500D02*
Y44000D01*
X108000Y44500D02*
X108500Y44000D01*
X108000Y44500D02*
Y47000D01*
X108500Y18500D02*
X114000Y13000D01*
X108500Y18500D02*
Y23000D01*
X109000Y23500D01*
X108500Y36000D02*
Y37500D01*
Y36000D02*
X109000Y35500D01*
Y23500D02*
Y35500D01*
X106500Y17500D02*
X113000Y11000D01*
X106000Y36500D02*
X106500Y36000D01*
X104500Y16500D02*
X112000Y9000D01*
X104000Y33000D02*
Y49000D01*
Y33000D02*
X104500Y32500D01*
Y16500D02*
Y32500D01*
X102000Y31800D02*
Y50000D01*
X102500Y15500D02*
X111000Y7000D01*
X102500Y15500D02*
Y31300D01*
X102000Y31800D02*
X102500Y31300D01*
X100500Y14000D02*
X103000Y11500D01*
X106500Y17500D02*
Y34500D01*
Y36000D01*
X98500Y12000D02*
X105500Y5000D01*
X94350Y36150D02*
Y40000D01*
Y36150D02*
X100500Y30000D01*
Y14000D02*
Y30000D01*
X98500Y12000D02*
Y29000D01*
X91500Y36000D02*
X98500Y29000D01*
X183500Y67500D02*
Y71500D01*
X192000Y80000D01*
X170591Y70748D02*
X178248D01*
X190500Y83000D01*
X194500D01*
X138701Y46201D02*
X166000Y73500D01*
X177500D01*
X190000Y86000D01*
X205500D01*
X255000Y91500D02*
X274500D01*
X281000D01*
X21543Y187000D02*
X27000D01*
X27750Y186250D01*
X33346D01*
X13000Y59500D02*
Y142500D01*
X18000Y147500D01*
X210236Y23736D02*
Y28622D01*
X210000Y23500D02*
X210236Y23736D01*
X203500Y23500D02*
X210000D01*
X263000Y110500D02*
X266000D01*
X268500Y113000D01*
X287500D01*
X262247D02*
X265500D01*
X267500Y115000D01*
X288000D01*
X259500D02*
X264500D01*
X266500Y117000D01*
X285000D01*
X264500Y118000D02*
X265500Y119000D01*
X269118D01*
X275000Y124882D01*
X281024D01*
X264000Y120000D02*
X265000Y121000D01*
X268059D01*
X274500Y127441D01*
X281024D01*
X258976Y130000D02*
X270000D01*
X272559Y132559D01*
X281024D01*
X267500Y137618D02*
X272559Y132559D01*
X267500Y137618D02*
Y148000D01*
X265500Y150000D02*
X267500Y148000D01*
X260000Y150000D02*
X265500D01*
X323000Y114500D02*
Y141500D01*
X336500Y155000D01*
X350000D01*
X87500Y201499D02*
X85501Y197500D01*
X83501Y201499D01*
X81502Y202498D02*
X80502Y203498D01*
X78503D01*
X77503Y202498D01*
Y198500D01*
X78503Y197500D01*
X80502D01*
X81502Y198500D01*
Y202498D01*
X75504Y197500D02*
Y198500D01*
X74504D01*
Y197500D01*
X75504D01*
X70505D02*
X68506D01*
X69506D01*
Y203498D01*
X70505Y202498D01*
X0Y-93335D02*
X3332Y-100000D01*
X6664Y-93335D01*
X9997Y-91669D02*
X11663Y-90003D01*
X14995D01*
X16661Y-91669D01*
Y-98334D01*
X14995Y-100000D01*
X11663D01*
X9997Y-98334D01*
Y-91669D01*
X19994Y-100000D02*
Y-98334D01*
X21660D01*
Y-100000D01*
X19994D01*
X28324D02*
X31656D01*
X29990D01*
Y-90003D01*
X28324Y-91669D01*
X280000Y205000D02*
Y210998D01*
X277001D01*
X276001Y209998D01*
Y207999D01*
X277001Y206999D01*
X280000D01*
X271003Y210998D02*
X273002D01*
X274002Y209998D01*
Y206000D01*
X273002Y205000D01*
X271003D01*
X270003Y206000D01*
Y209998D01*
X271003Y210998D01*
X268004Y205000D02*
Y210998D01*
X265005D01*
X264005Y209998D01*
Y207999D01*
X265005Y206999D01*
X268004D01*
X262006Y210998D02*
Y206000D01*
X261006Y205000D01*
X259007D01*
X258007Y206000D01*
Y210998D01*
X256008D02*
Y205000D01*
X252009D01*
X250010D02*
Y208999D01*
X248010Y210998D01*
X246011Y208999D01*
Y205000D01*
Y207999D01*
X250010D01*
X244012Y210998D02*
X240013D01*
X242012D01*
Y205000D01*
X234015Y210998D02*
X238014D01*
Y205000D01*
X234015D01*
X238014Y207999D02*
X236014D01*
X226017Y205000D02*
Y208999D01*
X224018Y210998D01*
X222019Y208999D01*
Y205000D01*
Y207999D01*
X226017D01*
X220019Y210998D02*
Y205000D01*
X216021D01*
X214021Y210998D02*
Y205000D01*
X210023D01*
X202025Y210998D02*
X198027D01*
X200026D01*
Y205000D01*
X196027Y210998D02*
Y205000D01*
Y207999D01*
X192028D01*
Y210998D01*
Y205000D01*
X186030Y210998D02*
X190029D01*
Y205000D01*
X186030D01*
X190029Y207999D02*
X188030D01*
X178033Y205000D02*
Y210998D01*
X175034D01*
X174034Y209998D01*
Y207999D01*
X175034Y206999D01*
X178033D01*
X176034D02*
X174034Y205000D01*
X168036Y210998D02*
X172035D01*
Y205000D01*
X168036D01*
X172035Y207999D02*
X170036D01*
X162038Y209998D02*
X163038Y210998D01*
X165037D01*
X166037Y209998D01*
Y208999D01*
X165037Y207999D01*
X163038D01*
X162038Y206999D01*
Y206000D01*
X163038Y205000D01*
X165037D01*
X166037Y206000D01*
X160039Y210998D02*
X158039D01*
X159039D01*
Y205000D01*
X160039D01*
X158039D01*
X151042Y209998D02*
X152041Y210998D01*
X154041D01*
X155040Y209998D01*
Y208999D01*
X154041Y207999D01*
X152041D01*
X151042Y206999D01*
Y206000D01*
X152041Y205000D01*
X154041D01*
X155040Y206000D01*
X149042Y210998D02*
X145044D01*
X147043D01*
Y205000D01*
X140045Y210998D02*
X142045D01*
X143044Y209998D01*
Y206000D01*
X142045Y205000D01*
X140045D01*
X139046Y206000D01*
Y209998D01*
X140045Y210998D01*
X137046Y205000D02*
Y210998D01*
X134047D01*
X133047Y209998D01*
Y207999D01*
X134047Y206999D01*
X137046D01*
X135047D02*
X133047Y205000D01*
X127050Y209998D02*
X128049Y210998D01*
X130049D01*
X131048Y209998D01*
Y208999D01*
X130049Y207999D01*
X128049D01*
X127050Y206999D01*
Y206000D01*
X128049Y205000D01*
X130049D01*
X131048Y206000D01*
X0Y-80000D02*
X4998D01*
X6664Y-78334D01*
X4998Y-76668D01*
X1666D01*
X0Y-75002D01*
X1666Y-73335D01*
X6664D01*
X9997Y-80000D02*
Y-73335D01*
X11663D01*
X13329Y-75002D01*
Y-80000D01*
Y-75002D01*
X14995Y-73335D01*
X16661Y-75002D01*
Y-80000D01*
X21660Y-73335D02*
X24992D01*
X26658Y-75002D01*
Y-80000D01*
X21660D01*
X19994Y-78334D01*
X21660Y-76668D01*
X26658D01*
X29990Y-73335D02*
Y-80000D01*
Y-76668D01*
X31656Y-75002D01*
X33323Y-73335D01*
X34989D01*
X39987Y-80000D02*
X43319D01*
X41653D01*
Y-73335D01*
X39987D01*
X58315Y-80000D02*
Y-73335D01*
X59981D01*
X61647Y-75002D01*
Y-80000D01*
Y-75002D01*
X63313Y-73335D01*
X64979Y-75002D01*
Y-80000D01*
X68311D02*
X71644D01*
X69977D01*
Y-73335D01*
X68311D01*
X76642Y-80000D02*
Y-73335D01*
X81640D01*
X83306Y-75002D01*
Y-80000D01*
X86639D02*
Y-73335D01*
X91637D01*
X93303Y-75002D01*
Y-80000D01*
X98302Y-73335D02*
X101634D01*
X103300Y-75002D01*
Y-80000D01*
X98302D01*
X96635Y-78334D01*
X98302Y-76668D01*
X103300D01*
X0Y-50003D02*
Y-60000D01*
X4998D01*
X6664Y-58334D01*
Y-56668D01*
X4998Y-55002D01*
X0D01*
X4998D01*
X6664Y-53335D01*
Y-51669D01*
X4998Y-50003D01*
X0D01*
X11663Y-60000D02*
X14995D01*
X16661Y-58334D01*
Y-55002D01*
X14995Y-53335D01*
X11663D01*
X9997Y-55002D01*
Y-58334D01*
X11663Y-60000D01*
X21660Y-51669D02*
Y-53335D01*
X19994D01*
X23326D01*
X21660D01*
Y-58334D01*
X23326Y-60000D01*
X29990Y-51669D02*
Y-53335D01*
X28324D01*
X31656D01*
X29990D01*
Y-58334D01*
X31656Y-60000D01*
X38321D02*
X41653D01*
X43319Y-58334D01*
Y-55002D01*
X41653Y-53335D01*
X38321D01*
X36655Y-55002D01*
Y-58334D01*
X38321Y-60000D01*
X46652D02*
Y-53335D01*
X48318D01*
X49984Y-55002D01*
Y-60000D01*
Y-55002D01*
X51650Y-53335D01*
X53316Y-55002D01*
Y-60000D01*
X66645Y-50003D02*
Y-60000D01*
X73310D01*
X78308Y-53335D02*
X81640D01*
X83306Y-55002D01*
Y-60000D01*
X78308D01*
X76642Y-58334D01*
X78308Y-56668D01*
X83306D01*
X86639Y-53335D02*
Y-58334D01*
X88305Y-60000D01*
X93303D01*
Y-61666D01*
X91637Y-63332D01*
X89971D01*
X93303Y-60000D02*
Y-53335D01*
X101634Y-60000D02*
X98302D01*
X96635Y-58334D01*
Y-55002D01*
X98302Y-53335D01*
X101634D01*
X103300Y-55002D01*
Y-56668D01*
X96635D01*
X106632Y-53335D02*
Y-60000D01*
Y-56668D01*
X108298Y-55002D01*
X109965Y-53335D01*
X111631D01*
D18*
X97000Y176500D02*
Y186937D01*
X94000Y173500D02*
X97000Y176500D01*
X87500Y173500D02*
X94000D01*
X14350Y166366D02*
Y180894D01*
X81000Y159000D02*
X85063D01*
X77043Y186500D02*
X83457D01*
X104043Y180500D02*
X108000D01*
X78000Y175500D02*
Y179543D01*
X82500Y175500D02*
Y179543D01*
X15457Y8043D02*
Y12000D01*
X94543Y19000D02*
Y26000D01*
X55957Y152500D02*
Y156457D01*
X78043Y152500D02*
Y157000D01*
X93043Y146500D02*
X100500D01*
X71000Y128500D02*
Y132457D01*
X70957Y132500D02*
Y139106D01*
X63043Y132500D02*
Y139106D01*
X91043Y71043D02*
Y92000D01*
X87598Y67598D02*
X91043Y71043D01*
X80591Y67598D02*
X87598D01*
X79000Y92000D02*
X83957D01*
X78220Y92780D02*
X79000Y92000D01*
X78220Y92780D02*
Y98720D01*
X163500Y55000D02*
X170591D01*
X274957Y146000D02*
Y150957D01*
X282043Y146000D02*
Y150957D01*
X329000Y124000D02*
X330000Y125000D01*
X78220Y98720D02*
Y101100D01*
X162043Y142043D02*
Y146000D01*
X185000Y130000D02*
X195000D01*
X207000Y110000D02*
X211457D01*
X301500Y135000D02*
Y151457D01*
X308500Y135000D02*
Y151457D01*
Y135000D02*
X314449D01*
X295551D02*
X301500D01*
X234957Y141543D02*
Y146000D01*
X242043Y141543D02*
Y146000D01*
X113501Y48701D02*
X119409D01*
X110800Y46000D02*
X113501Y48701D01*
X195457Y71543D02*
X197500Y69500D01*
X195457Y71543D02*
Y76000D01*
X330000Y125000D02*
X350000D01*
X238543Y110000D02*
X243000D01*
X139543Y19000D02*
X144500D01*
X24000Y42402D02*
X29409D01*
X33457Y19000D02*
Y23500D01*
Y12000D02*
Y19000D01*
X202543Y72043D02*
Y76000D01*
X203000Y37543D02*
Y41500D01*
X195315Y30000D02*
X202500D01*
X191000D02*
X195315D01*
X174543D02*
X180000D01*
X184685D01*
X114957Y141043D02*
Y146000D01*
X122043Y141043D02*
Y146000D01*
X117500Y19043D02*
Y22900D01*
X266500Y77543D02*
Y82000D01*
Y66000D02*
Y70457D01*
D19*
X69457Y158000D02*
X70957Y156500D01*
X64500Y158000D02*
X69457D01*
X41500Y171000D02*
X57500D01*
X38750Y173750D02*
X41500Y171000D01*
X33346Y173750D02*
X38750D01*
X70957Y152500D02*
Y156500D01*
X57700Y174300D02*
X67800D01*
X57150Y173750D02*
X57700Y174300D01*
X51653Y173750D02*
X57150D01*
X67800Y174300D02*
X69957Y176457D01*
X75600Y172100D02*
X76000Y172500D01*
X58600Y172100D02*
X75600D01*
X57500Y171000D02*
X58600Y172100D01*
X76000Y172500D02*
X84500D01*
X90543Y176543D02*
Y180500D01*
X69957Y176457D02*
Y180500D01*
Y186500D01*
X90543Y180500D02*
Y186500D01*
X85957Y146500D02*
Y152500D01*
X70957Y146500D02*
Y152500D01*
X55780Y124516D02*
X60701D01*
X288917Y74817D02*
Y79803D01*
X224016Y81378D02*
Y86984D01*
X291083Y30197D02*
Y40917D01*
X225984Y23516D02*
Y28622D01*
Y23516D02*
X227000Y22500D01*
X288000Y73900D02*
X288917Y74817D01*
X288000Y73000D02*
Y73900D01*
D20*
X84890Y193000D02*
D03*
X71110D02*
D03*
D21*
X40798Y188803D02*
D03*
X45000Y211500D02*
D03*
X54500Y210000D02*
D03*
X39250Y186250D02*
D03*
X35500Y210000D02*
D03*
X33346Y193846D02*
D03*
X14000Y160500D02*
D03*
X65500Y177000D02*
D03*
X45750Y181250D02*
D03*
X64500Y158000D02*
D03*
X250000Y145500D02*
D03*
X209000Y131000D02*
D03*
X21500Y35000D02*
D03*
X68500Y23000D02*
D03*
X203500Y23500D02*
D03*
X270500Y26000D02*
D03*
X206000Y21000D02*
D03*
X24000Y42402D02*
D03*
X179500Y87500D02*
D03*
X154000Y72000D02*
D03*
X80000Y165500D02*
D03*
X102500Y149500D02*
D03*
X114594Y154095D02*
D03*
X77000Y163000D02*
D03*
X19500Y144500D02*
D03*
X119500Y196000D02*
D03*
X14350Y166366D02*
D03*
X94543Y22500D02*
D03*
X5500Y187000D02*
D03*
X8000Y193000D02*
D03*
X25500Y181250D02*
D03*
X84500Y172500D02*
D03*
X90543Y176543D02*
D03*
X73400Y177000D02*
D03*
X108000Y180500D02*
D03*
X104500Y204000D02*
D03*
X104437Y192000D02*
D03*
Y195000D02*
D03*
X87500Y173500D02*
D03*
X82500Y175500D02*
D03*
X78000D02*
D03*
X97563Y213563D02*
D03*
X59946Y199000D02*
D03*
X61465Y177000D02*
D03*
X15457Y8043D02*
D03*
X294350Y184000D02*
D03*
X59000Y158000D02*
D03*
X233000Y132500D02*
D03*
X198500Y112500D02*
D03*
X319500Y159500D02*
D03*
X302500Y162000D02*
D03*
X286500Y176500D02*
D03*
X121500Y177500D02*
D03*
X286500Y172000D02*
D03*
X55957Y156457D02*
D03*
X78043Y157000D02*
D03*
X100500Y146500D02*
D03*
X81000Y159000D02*
D03*
X71000Y128500D02*
D03*
X108500Y145000D02*
D03*
X102000Y68000D02*
D03*
X104000Y58150D02*
D03*
X99500Y55000D02*
D03*
X107000Y64449D02*
D03*
X163500Y55000D02*
D03*
X273000Y46500D02*
D03*
X52000Y127500D02*
D03*
X118000Y177500D02*
D03*
X121500Y193500D02*
D03*
X274957Y150957D02*
D03*
X282043D02*
D03*
X302500Y158000D02*
D03*
X250000Y132500D02*
D03*
X329000Y124000D02*
D03*
X325000Y90500D02*
D03*
X264500Y141500D02*
D03*
X273500D02*
D03*
X78220Y98720D02*
D03*
X162043Y142043D02*
D03*
X155677Y122323D02*
D03*
X115177Y122323D02*
D03*
X96000Y113500D02*
D03*
X320142Y171358D02*
D03*
X320000Y205000D02*
D03*
X117500Y22900D02*
D03*
X185000Y130000D02*
D03*
X207000Y110000D02*
D03*
X212500Y141000D02*
D03*
X264500Y136500D02*
D03*
X276177Y122323D02*
D03*
X301500Y135000D02*
D03*
X234957Y141543D02*
D03*
X242043D02*
D03*
X146000Y137677D02*
D03*
X328000Y131500D02*
D03*
X235677Y122323D02*
D03*
X243000Y110000D02*
D03*
X144500Y19000D02*
D03*
X91043Y71043D02*
D03*
X74000Y29409D02*
D03*
X138701Y23000D02*
D03*
X110800Y46000D02*
D03*
X99500Y42500D02*
D03*
X63000Y15500D02*
D03*
X33457Y23500D02*
D03*
X319500Y56500D02*
D03*
X224016Y86984D02*
D03*
X197500Y69500D02*
D03*
X202543Y72043D02*
D03*
X160000Y55000D02*
D03*
X332500Y121000D02*
D03*
X329500Y106000D02*
D03*
X297000Y57000D02*
D03*
X297500Y43500D02*
D03*
X300500Y54500D02*
D03*
Y42500D02*
D03*
X286500Y167000D02*
D03*
X296000Y164000D02*
D03*
X306000Y109000D02*
D03*
X326000Y20500D02*
D03*
X311000Y17000D02*
D03*
X314500D02*
D03*
X260000Y110500D02*
D03*
X259500Y115000D02*
D03*
X308500Y89500D02*
D03*
X235000Y105500D02*
D03*
X264500Y124500D02*
D03*
X332000Y109000D02*
D03*
X317000Y89500D02*
D03*
X142000Y106000D02*
D03*
X136500Y142500D02*
D03*
X298500Y167000D02*
D03*
X147000Y68000D02*
D03*
X286500Y164000D02*
D03*
X139500Y142500D02*
D03*
X149500Y66000D02*
D03*
X293500Y161000D02*
D03*
X286500D02*
D03*
X142500Y142500D02*
D03*
X153000Y66000D02*
D03*
X144000Y69000D02*
D03*
X125500Y88500D02*
D03*
X156500Y68500D02*
D03*
X132402Y74098D02*
D03*
X183500Y64000D02*
D03*
X326000Y23500D02*
D03*
X157500Y23000D02*
D03*
X151000Y41000D02*
D03*
X199000Y40500D02*
D03*
X256000Y44000D02*
D03*
X326000Y26500D02*
D03*
X318500Y11500D02*
D03*
X322000Y58000D02*
D03*
X222047Y76047D02*
D03*
X225500Y71000D02*
D03*
X260464Y25964D02*
D03*
X265000Y27000D02*
D03*
X219500Y15500D02*
D03*
X207000Y41500D02*
D03*
X273500Y26000D02*
D03*
X259500Y29000D02*
D03*
X131500Y124000D02*
D03*
X111500Y149500D02*
D03*
X119500Y117000D02*
D03*
Y87000D02*
D03*
X117000Y119500D02*
D03*
Y89500D02*
D03*
X160748Y87252D02*
D03*
X170000Y90500D02*
D03*
X107500Y124882D02*
D03*
X110000Y94500D02*
D03*
Y127441D02*
D03*
X146000Y127441D02*
D03*
X174500Y130000D02*
D03*
X146000Y132559D02*
D03*
X35500Y45551D02*
D03*
X108500Y37500D02*
D03*
X35500Y48701D02*
D03*
X48701Y56000D02*
D03*
X40850Y58150D02*
D03*
X156500Y17500D02*
D03*
X113000Y20500D02*
D03*
X250000Y124882D02*
D03*
X185000Y15500D02*
D03*
X103000Y11500D02*
D03*
X94350Y40000D02*
D03*
X35500Y40500D02*
D03*
X155618Y135118D02*
D03*
X96000Y110000D02*
D03*
X166500Y130000D02*
D03*
X252311Y177500D02*
D03*
X258689Y169978D02*
D03*
X264595Y172500D02*
D03*
X276406Y175000D02*
D03*
X282311Y177500D02*
D03*
X282300Y193500D02*
D03*
X139000Y74000D02*
D03*
X70600Y48642D02*
D03*
X160748Y23500D02*
D03*
X178500Y22500D02*
D03*
X23000Y70748D02*
D03*
X18000Y113000D02*
D03*
X25500Y88000D02*
D03*
X110000Y61299D02*
D03*
X64000Y67000D02*
D03*
Y72000D02*
D03*
X54500Y61500D02*
D03*
X64000Y12000D02*
D03*
X73500Y58500D02*
D03*
X67500Y69500D02*
D03*
X20500Y77500D02*
D03*
X40000Y67500D02*
D03*
X194500Y83000D02*
D03*
X223000Y94000D02*
D03*
X27000Y133000D02*
D03*
Y127000D02*
D03*
Y121000D02*
D03*
Y115000D02*
D03*
Y109000D02*
D03*
Y103000D02*
D03*
X88500Y8000D02*
D03*
X149500Y17500D02*
D03*
X99500Y45551D02*
D03*
Y48701D02*
D03*
Y51850D02*
D03*
X153500Y51500D02*
D03*
X160299Y48701D02*
D03*
X224000Y21500D02*
D03*
X188500Y26300D02*
D03*
X231500Y23000D02*
D03*
X205500Y55500D02*
D03*
X230000Y43000D02*
D03*
X199000Y51850D02*
D03*
X157500Y37500D02*
D03*
X236000Y130000D02*
D03*
X192000Y22500D02*
D03*
X182000D02*
D03*
X63500Y19000D02*
D03*
X58150Y23150D02*
D03*
X64449Y35500D02*
D03*
X51850Y38000D02*
D03*
X27000Y97000D02*
D03*
X258689Y201000D02*
D03*
X264595Y198500D02*
D03*
X276401Y196000D02*
D03*
X252311Y193500D02*
D03*
X246406Y196000D02*
D03*
X234594Y198500D02*
D03*
X228689Y201000D02*
D03*
X222311Y193500D02*
D03*
X216406Y196000D02*
D03*
X204594Y198500D02*
D03*
X198689Y201000D02*
D03*
X192311Y193500D02*
D03*
X186406Y196000D02*
D03*
X174594Y198500D02*
D03*
X168689Y201000D02*
D03*
X162311Y193500D02*
D03*
X156405Y196000D02*
D03*
X144595Y198500D02*
D03*
X138689Y201000D02*
D03*
X132311Y193500D02*
D03*
X126406Y196000D02*
D03*
X114594Y198500D02*
D03*
X111000D02*
D03*
X246406Y175000D02*
D03*
X234594Y172500D02*
D03*
X228689Y169978D02*
D03*
X222311Y177500D02*
D03*
X216406Y175000D02*
D03*
X204594Y172500D02*
D03*
X198689Y169978D02*
D03*
X192311Y177500D02*
D03*
X186406Y175000D02*
D03*
X174594Y172500D02*
D03*
X168689Y169978D02*
D03*
X162311Y177500D02*
D03*
X156405Y175000D02*
D03*
X144595Y172500D02*
D03*
X138689Y169978D02*
D03*
X132311Y177500D02*
D03*
X126406Y175000D02*
D03*
X119500Y172500D02*
D03*
X114000D02*
D03*
X123500Y153500D02*
D03*
X150500D02*
D03*
X180500D02*
D03*
X210500D02*
D03*
X240500D02*
D03*
X238500Y150500D02*
D03*
X209000Y141000D02*
D03*
X216500D02*
D03*
X128000Y151000D02*
D03*
X225000Y142500D02*
D03*
X305500Y11000D02*
D03*
X308500Y86500D02*
D03*
X104000Y130000D02*
D03*
X103000Y101500D02*
D03*
X113500Y127441D02*
D03*
X112500Y104000D02*
D03*
X199000Y37000D02*
D03*
X166000Y90500D02*
D03*
X183500Y67500D02*
D03*
X192000Y80000D02*
D03*
X151500Y90500D02*
D03*
X154000Y93000D02*
D03*
X186000Y41500D02*
D03*
X115500Y130500D02*
D03*
X208000Y71000D02*
D03*
X186000Y69000D02*
D03*
X331000Y13000D02*
D03*
X321500Y43500D02*
D03*
X144000Y35500D02*
D03*
X146000Y41000D02*
D03*
X144000Y43500D02*
D03*
X143500Y46500D02*
D03*
X300500Y8500D02*
D03*
X321000D02*
D03*
X311000Y13000D02*
D03*
X258000Y41500D02*
D03*
X257000Y110500D02*
D03*
X313500Y99500D02*
D03*
X316000Y102000D02*
D03*
X265500Y57500D02*
D03*
X270500Y60000D02*
D03*
Y82000D02*
D03*
X269500Y110500D02*
D03*
X223000Y110000D02*
D03*
X227000Y94000D02*
D03*
Y110000D02*
D03*
X264500Y132559D02*
D03*
X263000Y110500D02*
D03*
X294500Y71000D02*
D03*
X285000Y73000D02*
D03*
X278091Y69500D02*
D03*
X291083Y73000D02*
D03*
X286000Y123500D02*
D03*
X274500Y91500D02*
D03*
X320500Y195000D02*
D03*
X294350Y211350D02*
D03*
X308500Y135000D02*
D03*
X291083Y40917D02*
D03*
X233000Y38000D02*
D03*
X221500Y23000D02*
D03*
X227000Y22500D02*
D03*
X203000Y41500D02*
D03*
X228500Y45500D02*
D03*
X231500Y40500D02*
D03*
X213000Y39500D02*
D03*
X180000Y30000D02*
D03*
X191000D02*
D03*
X163700Y26000D02*
D03*
X104177Y137677D02*
D03*
X114957Y141043D02*
D03*
X122043D02*
D03*
X240500Y13642D02*
D03*
X106500Y34500D02*
D03*
X60701Y124500D02*
D03*
X266500Y82000D02*
D03*
Y66000D02*
D03*
X288000Y73000D02*
D03*
X45650Y201350D02*
D03*
X25500Y184500D02*
D03*
X43000Y178000D02*
D03*
D22*
X97563Y199500D02*
Y213563D01*
D25*
X80000Y210000D02*
D03*
X20000D02*
D03*
X30000D02*
D03*
X40000D02*
D03*
X50000D02*
D03*
X60000D02*
D03*
X70000D02*
D03*
X20000Y40000D02*
D03*
Y50000D02*
D03*
X250000Y150000D02*
D03*
X210000Y20000D02*
D03*
X200000D02*
D03*
X120000Y210000D02*
D03*
D26*
X239764Y28622D02*
D03*
X237795D02*
D03*
X235827D02*
D03*
X233858D02*
D03*
X231890D02*
D03*
X229921D02*
D03*
X227953D02*
D03*
X225984D02*
D03*
X224016D02*
D03*
X222047D02*
D03*
X220079D02*
D03*
X218110D02*
D03*
X216142D02*
D03*
X214173D02*
D03*
X212205D02*
D03*
X210236D02*
D03*
X239764Y81378D02*
D03*
X237795D02*
D03*
X235827D02*
D03*
X233858D02*
D03*
X231890D02*
D03*
X229921D02*
D03*
X227953D02*
D03*
X225984D02*
D03*
X224016D02*
D03*
X222047D02*
D03*
X220079D02*
D03*
X218110D02*
D03*
X216142D02*
D03*
X214173D02*
D03*
X212205D02*
D03*
X210236D02*
D03*
X275925Y79803D02*
D03*
X278091D02*
D03*
X280256D02*
D03*
X282421D02*
D03*
X284587D02*
D03*
X286752D02*
D03*
X288917D02*
D03*
X291083D02*
D03*
X293248D02*
D03*
X295413D02*
D03*
X297579D02*
D03*
X299744D02*
D03*
X301909D02*
D03*
X304075D02*
D03*
X275925Y30197D02*
D03*
X278091D02*
D03*
X280256D02*
D03*
X282421D02*
D03*
X284587D02*
D03*
X286752D02*
D03*
X288917D02*
D03*
X291083D02*
D03*
X293248D02*
D03*
X295413D02*
D03*
X297579D02*
D03*
X299744D02*
D03*
X301909D02*
D03*
X304075D02*
D03*
D27*
X51653Y191250D02*
D03*
Y188750D02*
D03*
Y186250D02*
D03*
Y183750D02*
D03*
Y181250D02*
D03*
Y178750D02*
D03*
Y176250D02*
D03*
Y173750D02*
D03*
X33346Y191250D02*
D03*
Y188750D02*
D03*
Y186250D02*
D03*
Y183750D02*
D03*
Y181250D02*
D03*
Y178750D02*
D03*
Y176250D02*
D03*
Y173750D02*
D03*
D28*
X184685Y26260D02*
D03*
Y30000D02*
D03*
Y33740D02*
D03*
X195315D02*
D03*
Y30000D02*
D03*
Y26260D02*
D03*
D29*
X78220Y124516D02*
D03*
Y121957D02*
D03*
Y119398D02*
D03*
Y116839D02*
D03*
Y114280D02*
D03*
Y111720D02*
D03*
Y109161D02*
D03*
Y106602D02*
D03*
Y104043D02*
D03*
Y101484D02*
D03*
X55780Y124516D02*
D03*
Y121957D02*
D03*
Y119398D02*
D03*
Y116839D02*
D03*
Y114280D02*
D03*
Y111720D02*
D03*
Y109161D02*
D03*
Y106602D02*
D03*
Y104043D02*
D03*
Y101484D02*
D03*
D30*
X121024Y137677D02*
D03*
Y135118D02*
D03*
Y132559D02*
D03*
Y130000D02*
D03*
Y127441D02*
D03*
Y124882D02*
D03*
Y122323D02*
D03*
X98976Y137677D02*
D03*
Y135118D02*
D03*
Y132559D02*
D03*
Y130000D02*
D03*
Y127441D02*
D03*
Y124882D02*
D03*
Y122323D02*
D03*
X138976Y122323D02*
D03*
Y124882D02*
D03*
Y127441D02*
D03*
Y130000D02*
D03*
Y132559D02*
D03*
Y135118D02*
D03*
Y137677D02*
D03*
X161024Y122323D02*
D03*
Y124882D02*
D03*
Y127441D02*
D03*
Y130000D02*
D03*
Y132559D02*
D03*
Y135118D02*
D03*
Y137677D02*
D03*
X281024D02*
D03*
Y135118D02*
D03*
Y132559D02*
D03*
Y130000D02*
D03*
Y127441D02*
D03*
Y124882D02*
D03*
Y122323D02*
D03*
X258976Y137677D02*
D03*
Y135118D02*
D03*
Y132559D02*
D03*
Y130000D02*
D03*
Y127441D02*
D03*
Y124882D02*
D03*
Y122323D02*
D03*
X241024Y137677D02*
D03*
Y135118D02*
D03*
Y132559D02*
D03*
Y130000D02*
D03*
Y127441D02*
D03*
Y124882D02*
D03*
Y122323D02*
D03*
X218976Y137677D02*
D03*
Y135118D02*
D03*
Y132559D02*
D03*
Y130000D02*
D03*
Y127441D02*
D03*
Y124882D02*
D03*
Y122323D02*
D03*
D31*
X39252Y29409D02*
D03*
X42402D02*
D03*
X45551D02*
D03*
X48701D02*
D03*
X51850D02*
D03*
X55000D02*
D03*
X58150D02*
D03*
X61299D02*
D03*
X64449D02*
D03*
X67598D02*
D03*
X70748D02*
D03*
Y80591D02*
D03*
X67598D02*
D03*
X64449D02*
D03*
X61299D02*
D03*
X58150D02*
D03*
X55000D02*
D03*
X51850D02*
D03*
X48701D02*
D03*
X45551D02*
D03*
X42402D02*
D03*
X39252D02*
D03*
X160748D02*
D03*
X157598D02*
D03*
X154449D02*
D03*
X151299D02*
D03*
X148150D02*
D03*
X145000D02*
D03*
X141850D02*
D03*
X138701D02*
D03*
X135551D02*
D03*
X132402D02*
D03*
X129252D02*
D03*
Y29409D02*
D03*
X132402D02*
D03*
X135551D02*
D03*
X138701D02*
D03*
X141850D02*
D03*
X145000D02*
D03*
X148150D02*
D03*
X151299D02*
D03*
X154449D02*
D03*
X157598D02*
D03*
X160748D02*
D03*
D32*
X80591Y39252D02*
D03*
Y42402D02*
D03*
Y45551D02*
D03*
Y48701D02*
D03*
Y51850D02*
D03*
Y55000D02*
D03*
Y58150D02*
D03*
Y61299D02*
D03*
Y64449D02*
D03*
Y67598D02*
D03*
Y70748D02*
D03*
X29409D02*
D03*
Y67598D02*
D03*
Y64449D02*
D03*
Y61299D02*
D03*
Y58150D02*
D03*
Y55000D02*
D03*
Y51850D02*
D03*
Y48701D02*
D03*
Y45551D02*
D03*
Y42402D02*
D03*
Y39252D02*
D03*
X119409Y70748D02*
D03*
Y67598D02*
D03*
Y64449D02*
D03*
Y61299D02*
D03*
Y58150D02*
D03*
Y55000D02*
D03*
Y51850D02*
D03*
Y48701D02*
D03*
Y45551D02*
D03*
Y42402D02*
D03*
Y39252D02*
D03*
X170591D02*
D03*
Y42402D02*
D03*
Y45551D02*
D03*
Y48701D02*
D03*
Y51850D02*
D03*
Y55000D02*
D03*
Y58150D02*
D03*
Y61299D02*
D03*
Y64449D02*
D03*
Y67598D02*
D03*
Y70748D02*
D03*
D33*
X314449Y145000D02*
D03*
Y140000D02*
D03*
Y135000D02*
D03*
Y130000D02*
D03*
Y125000D02*
D03*
Y120000D02*
D03*
Y115000D02*
D03*
X295551Y145000D02*
D03*
Y140000D02*
D03*
Y135000D02*
D03*
Y130000D02*
D03*
Y125000D02*
D03*
Y120000D02*
D03*
Y115000D02*
D03*
D34*
X195000Y120157D02*
D03*
Y139843D02*
D03*
D35*
Y130000D02*
D03*
D36*
X95988Y208000D02*
D03*
X107012D02*
D03*
D37*
X97563Y199500D02*
D03*
X105437D02*
D03*
X85563Y159500D02*
D03*
X93437D02*
D03*
X70563Y139500D02*
D03*
X78437D02*
D03*
X105437Y187500D02*
D03*
X97563D02*
D03*
X55563Y139500D02*
D03*
X63437D02*
D03*
D38*
X21543Y187000D02*
D03*
X14457D02*
D03*
X93043Y152500D02*
D03*
X85957D02*
D03*
X55957Y146500D02*
D03*
X63043D02*
D03*
X78043D02*
D03*
X70957D02*
D03*
X76543Y19000D02*
D03*
X69457D02*
D03*
X76543Y12000D02*
D03*
X69457D02*
D03*
X58543Y19000D02*
D03*
X51457D02*
D03*
X58543Y12000D02*
D03*
X51457D02*
D03*
X33457D02*
D03*
X40543D02*
D03*
X33457Y19000D02*
D03*
X40543D02*
D03*
X31457Y97000D02*
D03*
X38543D02*
D03*
X31457Y103000D02*
D03*
X38543D02*
D03*
X31457Y109000D02*
D03*
X38543D02*
D03*
X31457Y115000D02*
D03*
X38543D02*
D03*
X31457Y121000D02*
D03*
X38543D02*
D03*
X31457Y127000D02*
D03*
X38543D02*
D03*
X31457Y133000D02*
D03*
X38543D02*
D03*
X31457Y139000D02*
D03*
X38543D02*
D03*
X94543Y26000D02*
D03*
X87457D02*
D03*
X93043Y146500D02*
D03*
X85957D02*
D03*
X218543Y110000D02*
D03*
X211457D02*
D03*
X231457D02*
D03*
X238543D02*
D03*
X124543Y19000D02*
D03*
X117457D02*
D03*
X132457D02*
D03*
X139543D02*
D03*
X55957Y152500D02*
D03*
X63043D02*
D03*
X166957Y22500D02*
D03*
X174043D02*
D03*
X78043Y152500D02*
D03*
X70957D02*
D03*
X91043Y92000D02*
D03*
X83957D02*
D03*
X162043Y146000D02*
D03*
X154957D02*
D03*
X21543Y181000D02*
D03*
X14457D02*
D03*
X282043Y146000D02*
D03*
X274957D02*
D03*
X234957D02*
D03*
X242043D02*
D03*
X301457Y151500D02*
D03*
X308543D02*
D03*
X202543Y76000D02*
D03*
X195457D02*
D03*
X166957Y29500D02*
D03*
X174043D02*
D03*
X78043Y132500D02*
D03*
X70957D02*
D03*
X55957Y132500D02*
D03*
X63043D02*
D03*
X114957Y146000D02*
D03*
X122043D02*
D03*
X14457Y175000D02*
D03*
X21543D02*
D03*
X69957Y186500D02*
D03*
X77043D02*
D03*
X90543D02*
D03*
X83457D02*
D03*
X96957Y180500D02*
D03*
X104043D02*
D03*
X22543Y12000D02*
D03*
X15457D02*
D03*
X87457Y19000D02*
D03*
X94543D02*
D03*
Y12000D02*
D03*
X87457D02*
D03*
X15457Y19000D02*
D03*
X22543D02*
D03*
X77043Y180500D02*
D03*
X69957D02*
D03*
X83457D02*
D03*
X90543D02*
D03*
X14457Y193000D02*
D03*
X21543D02*
D03*
D39*
X260000Y150000D02*
D03*
D40*
X180000Y126457D02*
D03*
Y133543D02*
D03*
X203000Y30457D02*
D03*
Y37543D02*
D03*
X266500Y77543D02*
D03*
Y70457D02*
D03*
D41*
X89563Y213563D02*
X97563D01*
X86000Y210000D02*
X89563Y213563D01*
X80000Y210000D02*
X86000D01*
X106500Y209000D02*
Y212500D01*
X108000Y214000D01*
X112000D01*
X116000Y210000D01*
X120000D01*
X45750Y181250D02*
X51653D01*
X21793D02*
X33346D01*
X26742Y184500D02*
X27492Y183750D01*
X25500Y184500D02*
X26742D01*
X27492Y183750D02*
X33346D01*
D42*
X106500Y188000D02*
Y208000D01*
X104500Y198075D02*
Y209000D01*
X104437Y187500D02*
Y197500D01*
D43*
X154957Y141957D02*
Y146000D01*
X150677Y137677D02*
X154957Y141957D01*
X146000Y137677D02*
X150677D01*
X155677Y122323D02*
X161024D01*
X138976Y137677D02*
X146000D01*
X115177Y122323D02*
X121024D01*
X213823Y137677D02*
X218976D01*
X212500Y139000D02*
X213823Y137677D01*
X212500Y139000D02*
Y141000D01*
X264500Y136500D02*
Y137677D01*
Y135118D02*
Y136500D01*
X276177Y122323D02*
X281024D01*
X289000Y132000D02*
Y135000D01*
X287000Y130000D02*
X289000Y132000D01*
X281024Y130000D02*
X287000D01*
X289000Y135000D02*
X295551D01*
X286323Y137677D02*
X289000Y135000D01*
X281024Y137677D02*
X286323D01*
X98976Y137677D02*
X104177D01*
X235677Y122323D02*
X241024D01*
X258976Y135118D02*
X264500D01*
X258976Y137677D02*
X264500D01*
X258976Y127441D02*
X270941D01*
X273500Y130000D01*
X281024D01*
M02*
