%FSLAX25Y25*%
%MOIN*%
G70*
G01*
G75*
%ADD10R,0.08661X0.09843*%
%ADD11R,0.01969X0.07874*%
%ADD12R,0.06102X0.05118*%
%ADD13C,0.04000*%
G04:AMPARAMS|DCode=14|XSize=60mil|YSize=300mil|CornerRadius=0mil|HoleSize=0mil|Usage=FLASHONLY|Rotation=90.000|XOffset=0mil|YOffset=0mil|HoleType=Round|Shape=Octagon|*
%AMOCTAGOND14*
4,1,8,-0.15000,-0.01500,-0.15000,0.01500,-0.13500,0.03000,0.13500,0.03000,0.15000,0.01500,0.15000,-0.01500,0.13500,-0.03000,-0.13500,-0.03000,-0.15000,-0.01500,0.0*
%
%ADD14OCTAGOND14*%

%ADD15R,0.03150X0.03150*%
%ADD16R,0.03937X0.11811*%
%ADD17C,0.01000*%
%ADD18C,0.02000*%
%ADD19C,0.01200*%
%ADD20C,0.02362*%
%ADD21C,0.02200*%
%ADD22C,0.04000*%
%ADD23C,0.07543*%
%ADD24C,0.04200*%
%ADD25R,0.04000X0.04000*%
%ADD26R,0.01181X0.06693*%
%ADD27R,0.07677X0.01575*%
%ADD28R,0.04134X0.02362*%
%ADD29R,0.06693X0.01378*%
%ADD30R,0.06299X0.01378*%
%ADD31R,0.02165X0.07677*%
%ADD32R,0.07677X0.02165*%
%ADD33R,0.07874X0.02362*%
%ADD34R,0.15748X0.06693*%
%ADD35R,0.15748X0.05906*%
%ADD36R,0.07677X0.05118*%
%ADD37R,0.05118X0.05906*%
%ADD38R,0.04331X0.03937*%
%ADD39R,0.04000X0.04000*%
%ADD40R,0.03937X0.04331*%
%ADD41C,0.01500*%
%ADD42C,0.03000*%
%ADD43C,0.01400*%
%ADD44C,0.00984*%
%ADD45C,0.02362*%
%ADD46C,0.00787*%
%ADD47C,0.08000*%
%ADD48C,0.01575*%
%ADD49C,0.05000*%
%ADD50C,0.00900*%
%ADD51C,0.00500*%
%ADD52C,0.00800*%
%ADD53C,0.00700*%
%ADD54C,0.01800*%
%ADD55C,0.00600*%
%ADD56C,0.00667*%
%ADD57C,0.01600*%
D17*
X0Y-93335D02*
X3332Y-100000D01*
X6664Y-93335D01*
X9997Y-91669D02*
X11663Y-90003D01*
X14995D01*
X16661Y-91669D01*
Y-98334D01*
X14995Y-100000D01*
X11663D01*
X9997Y-98334D01*
Y-91669D01*
X19994Y-100000D02*
Y-98334D01*
X21660D01*
Y-100000D01*
X19994D01*
X28324D02*
X31656D01*
X29990D01*
Y-90003D01*
X28324Y-91669D01*
X0Y-80000D02*
X4998D01*
X6664Y-78334D01*
X4998Y-76668D01*
X1666D01*
X0Y-75002D01*
X1666Y-73335D01*
X6664D01*
X9997Y-80000D02*
Y-73335D01*
X11663D01*
X13329Y-75002D01*
Y-80000D01*
Y-75002D01*
X14995Y-73335D01*
X16661Y-75002D01*
Y-80000D01*
X21660Y-73335D02*
X24992D01*
X26658Y-75002D01*
Y-80000D01*
X21660D01*
X19994Y-78334D01*
X21660Y-76668D01*
X26658D01*
X29990Y-73335D02*
Y-80000D01*
Y-76668D01*
X31656Y-75002D01*
X33323Y-73335D01*
X34989D01*
X39987Y-80000D02*
X43319D01*
X41653D01*
Y-73335D01*
X39987D01*
X58315Y-80000D02*
Y-73335D01*
X59981D01*
X61647Y-75002D01*
Y-80000D01*
Y-75002D01*
X63313Y-73335D01*
X64979Y-75002D01*
Y-80000D01*
X68311D02*
X71644D01*
X69977D01*
Y-73335D01*
X68311D01*
X76642Y-80000D02*
Y-73335D01*
X81640D01*
X83306Y-75002D01*
Y-80000D01*
X86639D02*
Y-73335D01*
X91637D01*
X93303Y-75002D01*
Y-80000D01*
X98302Y-73335D02*
X101634D01*
X103300Y-75002D01*
Y-80000D01*
X98302D01*
X96635Y-78334D01*
X98302Y-76668D01*
X103300D01*
X0Y-50003D02*
Y-60000D01*
X4998D01*
X6664Y-58334D01*
Y-51669D01*
X4998Y-50003D01*
X0D01*
X9997Y-53335D02*
Y-60000D01*
Y-56668D01*
X11663Y-55002D01*
X13329Y-53335D01*
X14995D01*
X19994Y-60000D02*
X23326D01*
X21660D01*
Y-53335D01*
X19994D01*
X28324Y-60000D02*
X31656D01*
X29990D01*
Y-50003D01*
X28324D01*
X36655Y-60000D02*
X39987D01*
X38321D01*
Y-50003D01*
X36655D01*
X61647Y-51669D02*
X59981Y-50003D01*
X56648D01*
X54982Y-51669D01*
Y-58334D01*
X56648Y-60000D01*
X59981D01*
X61647Y-58334D01*
Y-55002D01*
X58315D01*
X64979Y-53335D02*
Y-58334D01*
X66645Y-60000D01*
X71644D01*
Y-53335D01*
X74976Y-60000D02*
X78308D01*
X76642D01*
Y-53335D01*
X74976D01*
X89971Y-50003D02*
Y-60000D01*
X84973D01*
X83306Y-58334D01*
Y-55002D01*
X84973Y-53335D01*
X89971D01*
X98302Y-60000D02*
X94969D01*
X93303Y-58334D01*
Y-55002D01*
X94969Y-53335D01*
X98302D01*
X99968Y-55002D01*
Y-56668D01*
X93303D01*
D51*
X83118Y193000D02*
X86661D01*
X84890Y191228D02*
Y194772D01*
X69339Y193000D02*
X72882D01*
X71110Y191228D02*
Y194772D01*
X40198Y188803D02*
X41398D01*
X40798Y188203D02*
Y189403D01*
X44400Y211500D02*
X45600D01*
X45000Y210900D02*
Y212100D01*
X53900Y210000D02*
X55100D01*
X54500Y209400D02*
Y210600D01*
X38650Y186250D02*
X39850D01*
X39250Y185650D02*
Y186850D01*
X34900Y210000D02*
X36100D01*
X35500Y209400D02*
Y210600D01*
X32746Y193846D02*
X33946D01*
X33346Y193246D02*
Y194447D01*
X13400Y160500D02*
X14600D01*
X14000Y159900D02*
Y161100D01*
X64900Y177000D02*
X66100D01*
X65500Y176400D02*
Y177600D01*
X45150Y181250D02*
X46350D01*
X45750Y180650D02*
Y181850D01*
X63900Y158000D02*
X65100D01*
X64500Y157400D02*
Y158600D01*
X249400Y145500D02*
X250600D01*
X250000Y144900D02*
Y146100D01*
X208400Y131000D02*
X209600D01*
X209000Y130400D02*
Y131600D01*
X20900Y35000D02*
X22100D01*
X21500Y34400D02*
Y35600D01*
X67900Y23000D02*
X69100D01*
X68500Y22400D02*
Y23600D01*
X202900Y23500D02*
X204100D01*
X203500Y22900D02*
Y24100D01*
X269900Y26000D02*
X271100D01*
X270500Y25400D02*
Y26600D01*
X205400Y21000D02*
X206600D01*
X206000Y20400D02*
Y21600D01*
X23400Y42402D02*
X24600D01*
X24000Y41802D02*
Y43002D01*
X178900Y87500D02*
X180100D01*
X179500Y86900D02*
Y88100D01*
X153400Y72000D02*
X154600D01*
X154000Y71400D02*
Y72600D01*
X79400Y165500D02*
X80600D01*
X80000Y164900D02*
Y166100D01*
X101900Y149500D02*
X103100D01*
X102500Y148900D02*
Y150100D01*
X113995Y154095D02*
X115194D01*
X114594Y153495D02*
Y154694D01*
X76400Y163000D02*
X77600D01*
X77000Y162400D02*
Y163600D01*
X18900Y144500D02*
X20100D01*
X19500Y143900D02*
Y145100D01*
X118900Y196000D02*
X120100D01*
X119500Y195400D02*
Y196600D01*
X13750Y166366D02*
X14950D01*
X14350Y165766D02*
Y166966D01*
X93943Y22500D02*
X95143D01*
X94543Y21900D02*
Y23100D01*
X4900Y187000D02*
X6100D01*
X5500Y186400D02*
Y187600D01*
X7400Y193000D02*
X8600D01*
X8000Y192400D02*
Y193600D01*
X24900Y181250D02*
X26100D01*
X25500Y180650D02*
Y181850D01*
X83900Y172500D02*
X85100D01*
X84500Y171900D02*
Y173100D01*
X89943Y176543D02*
X91143D01*
X90543Y175943D02*
Y177143D01*
X72800Y177000D02*
X74000D01*
X73400Y176400D02*
Y177600D01*
X107400Y180500D02*
X108600D01*
X108000Y179900D02*
Y181100D01*
X103900Y204000D02*
X105100D01*
X104500Y203400D02*
Y204600D01*
X103837Y192000D02*
X105037D01*
X104437Y191400D02*
Y192600D01*
X103837Y195000D02*
X105037D01*
X104437Y194400D02*
Y195600D01*
X86900Y173500D02*
X88100D01*
X87500Y172900D02*
Y174100D01*
X81900Y175500D02*
X83100D01*
X82500Y174900D02*
Y176100D01*
X77400Y175500D02*
X78600D01*
X78000Y174900D02*
Y176100D01*
X96963Y213563D02*
X98163D01*
X97563Y212963D02*
Y214163D01*
X59346Y199000D02*
X60546D01*
X59946Y198400D02*
Y199600D01*
X60865Y177000D02*
X62065D01*
X61465Y176400D02*
Y177600D01*
X14857Y8043D02*
X16057D01*
X15457Y7443D02*
Y8643D01*
X293750Y184000D02*
X294950D01*
X294350Y183400D02*
Y184600D01*
X58400Y158000D02*
X59600D01*
X59000Y157400D02*
Y158600D01*
X232400Y132500D02*
X233600D01*
X233000Y131900D02*
Y133100D01*
X197900Y112500D02*
X199100D01*
X198500Y111900D02*
Y113100D01*
X318900Y159500D02*
X320100D01*
X319500Y158900D02*
Y160100D01*
X301900Y162000D02*
X303100D01*
X302500Y161400D02*
Y162600D01*
X285900Y176500D02*
X287100D01*
X286500Y175900D02*
Y177100D01*
X120900Y177500D02*
X122100D01*
X121500Y176900D02*
Y178100D01*
X285900Y172000D02*
X287100D01*
X286500Y171400D02*
Y172600D01*
X55357Y156457D02*
X56557D01*
X55957Y155857D02*
Y157057D01*
X77443Y157000D02*
X78643D01*
X78043Y156400D02*
Y157600D01*
X99900Y146500D02*
X101100D01*
X100500Y145900D02*
Y147100D01*
X80400Y159000D02*
X81600D01*
X81000Y158400D02*
Y159600D01*
X70400Y128500D02*
X71600D01*
X71000Y127900D02*
Y129100D01*
X107900Y145000D02*
X109100D01*
X108500Y144400D02*
Y145600D01*
X101400Y68000D02*
X102600D01*
X102000Y67400D02*
Y68600D01*
X103400Y58150D02*
X104600D01*
X104000Y57550D02*
Y58750D01*
X98900Y55000D02*
X100100D01*
X99500Y54400D02*
Y55600D01*
X106400Y64449D02*
X107600D01*
X107000Y63849D02*
Y65049D01*
X162900Y55000D02*
X164100D01*
X163500Y54400D02*
Y55600D01*
X272400Y46500D02*
X273600D01*
X273000Y45900D02*
Y47100D01*
X51400Y127500D02*
X52600D01*
X52000Y126900D02*
Y128100D01*
X117400Y177500D02*
X118600D01*
X118000Y176900D02*
Y178100D01*
X120900Y193500D02*
X122100D01*
X121500Y192900D02*
Y194100D01*
X274357Y150957D02*
X275557D01*
X274957Y150357D02*
Y151557D01*
X281443Y150957D02*
X282643D01*
X282043Y150357D02*
Y151557D01*
X301900Y158000D02*
X303100D01*
X302500Y157400D02*
Y158600D01*
X249400Y132500D02*
X250600D01*
X250000Y131900D02*
Y133100D01*
X328400Y124000D02*
X329600D01*
X329000Y123400D02*
Y124600D01*
X324400Y90500D02*
X325600D01*
X325000Y89900D02*
Y91100D01*
X263900Y141500D02*
X265100D01*
X264500Y140900D02*
Y142100D01*
X272900Y141500D02*
X274100D01*
X273500Y140900D02*
Y142100D01*
X77620Y98720D02*
X78820D01*
X78220Y98120D02*
Y99320D01*
X161443Y142043D02*
X162643D01*
X162043Y141443D02*
Y142643D01*
X155077Y122323D02*
X156277D01*
X155677Y121723D02*
Y122923D01*
X114577Y122323D02*
X115777D01*
X115177Y121723D02*
Y122923D01*
X95400Y113500D02*
X96600D01*
X96000Y112900D02*
Y114100D01*
X319542Y171358D02*
X320742D01*
X320142Y170758D02*
Y171958D01*
X319400Y205000D02*
X320600D01*
X320000Y204400D02*
Y205600D01*
X116900Y22900D02*
X118100D01*
X117500Y22300D02*
Y23500D01*
X184400Y130000D02*
X185600D01*
X185000Y129400D02*
Y130600D01*
X206400Y110000D02*
X207600D01*
X207000Y109400D02*
Y110600D01*
X211900Y141000D02*
X213100D01*
X212500Y140400D02*
Y141600D01*
X263900Y136500D02*
X265100D01*
X264500Y135900D02*
Y137100D01*
X275577Y122323D02*
X276777D01*
X276177Y121723D02*
Y122923D01*
X300900Y135000D02*
X302100D01*
X301500Y134400D02*
Y135600D01*
X234357Y141543D02*
X235557D01*
X234957Y140943D02*
Y142143D01*
X241443Y141543D02*
X242643D01*
X242043Y140943D02*
Y142143D01*
X145400Y137677D02*
X146600D01*
X146000Y137077D02*
Y138277D01*
X327400Y131500D02*
X328600D01*
X328000Y130900D02*
Y132100D01*
X235077Y122323D02*
X236277D01*
X235677Y121723D02*
Y122923D01*
X242400Y110000D02*
X243600D01*
X243000Y109400D02*
Y110600D01*
X143900Y19000D02*
X145100D01*
X144500Y18400D02*
Y19600D01*
X90443Y71043D02*
X91643D01*
X91043Y70443D02*
Y71643D01*
X73400Y29409D02*
X74600D01*
X74000Y28809D02*
Y30009D01*
X138101Y23000D02*
X139301D01*
X138701Y22400D02*
Y23600D01*
X110200Y46000D02*
X111400D01*
X110800Y45400D02*
Y46600D01*
X98900Y42500D02*
X100100D01*
X99500Y41900D02*
Y43100D01*
X62400Y15500D02*
X63600D01*
X63000Y14900D02*
Y16100D01*
X32857Y23500D02*
X34057D01*
X33457Y22900D02*
Y24100D01*
X318900Y56500D02*
X320100D01*
X319500Y55900D02*
Y57100D01*
X223416Y86984D02*
X224616D01*
X224016Y86384D02*
Y87584D01*
X196900Y69500D02*
X198100D01*
X197500Y68900D02*
Y70100D01*
X201943Y72043D02*
X203143D01*
X202543Y71443D02*
Y72643D01*
X159400Y55000D02*
X160600D01*
X160000Y54400D02*
Y55600D01*
X331900Y121000D02*
X333100D01*
X332500Y120400D02*
Y121600D01*
X328900Y106000D02*
X330100D01*
X329500Y105400D02*
Y106600D01*
X296400Y57000D02*
X297600D01*
X297000Y56400D02*
Y57600D01*
X296900Y43500D02*
X298100D01*
X297500Y42900D02*
Y44100D01*
X299900Y54500D02*
X301100D01*
X300500Y53900D02*
Y55100D01*
X299900Y42500D02*
X301100D01*
X300500Y41900D02*
Y43100D01*
X285900Y167000D02*
X287100D01*
X286500Y166400D02*
Y167600D01*
X295400Y164000D02*
X296600D01*
X296000Y163400D02*
Y164600D01*
X305400Y109000D02*
X306600D01*
X306000Y108400D02*
Y109600D01*
X325400Y20500D02*
X326600D01*
X326000Y19900D02*
Y21100D01*
X310400Y17000D02*
X311600D01*
X311000Y16400D02*
Y17600D01*
X313900Y17000D02*
X315100D01*
X314500Y16400D02*
Y17600D01*
X259400Y110500D02*
X260600D01*
X260000Y109900D02*
Y111100D01*
X258900Y115000D02*
X260100D01*
X259500Y114400D02*
Y115600D01*
X307900Y89500D02*
X309100D01*
X308500Y88900D02*
Y90100D01*
X234400Y105500D02*
X235600D01*
X235000Y104900D02*
Y106100D01*
X263900Y124500D02*
X265100D01*
X264500Y123900D02*
Y125100D01*
X331400Y109000D02*
X332600D01*
X332000Y108400D02*
Y109600D01*
X316400Y89500D02*
X317600D01*
X317000Y88900D02*
Y90100D01*
X141400Y106000D02*
X142600D01*
X142000Y105400D02*
Y106600D01*
X135900Y142500D02*
X137100D01*
X136500Y141900D02*
Y143100D01*
X297900Y167000D02*
X299100D01*
X298500Y166400D02*
Y167600D01*
X146400Y68000D02*
X147600D01*
X147000Y67400D02*
Y68600D01*
X285900Y164000D02*
X287100D01*
X286500Y163400D02*
Y164600D01*
X138900Y142500D02*
X140100D01*
X139500Y141900D02*
Y143100D01*
X148900Y66000D02*
X150100D01*
X149500Y65400D02*
Y66600D01*
X292900Y161000D02*
X294100D01*
X293500Y160400D02*
Y161600D01*
X285900Y161000D02*
X287100D01*
X286500Y160400D02*
Y161600D01*
X141900Y142500D02*
X143100D01*
X142500Y141900D02*
Y143100D01*
X152400Y66000D02*
X153600D01*
X153000Y65400D02*
Y66600D01*
X143400Y69000D02*
X144600D01*
X144000Y68400D02*
Y69600D01*
X124900Y88500D02*
X126100D01*
X125500Y87900D02*
Y89100D01*
X155900Y68500D02*
X157100D01*
X156500Y67900D02*
Y69100D01*
X131802Y74098D02*
X133002D01*
X132402Y73498D02*
Y74698D01*
X182900Y64000D02*
X184100D01*
X183500Y63400D02*
Y64600D01*
X325400Y23500D02*
X326600D01*
X326000Y22900D02*
Y24100D01*
X156900Y23000D02*
X158100D01*
X157500Y22400D02*
Y23600D01*
X150400Y41000D02*
X151600D01*
X151000Y40400D02*
Y41600D01*
X198400Y40500D02*
X199600D01*
X199000Y39900D02*
Y41100D01*
X255400Y44000D02*
X256600D01*
X256000Y43400D02*
Y44600D01*
X325400Y26500D02*
X326600D01*
X326000Y25900D02*
Y27100D01*
X317900Y11500D02*
X319100D01*
X318500Y10900D02*
Y12100D01*
X321400Y58000D02*
X322600D01*
X322000Y57400D02*
Y58600D01*
X221447Y76047D02*
X222647D01*
X222047Y75447D02*
Y76647D01*
X224900Y71000D02*
X226100D01*
X225500Y70400D02*
Y71600D01*
X259864Y25964D02*
X261064D01*
X260464Y25364D02*
Y26564D01*
X264400Y27000D02*
X265600D01*
X265000Y26400D02*
Y27600D01*
X218900Y15500D02*
X220100D01*
X219500Y14900D02*
Y16100D01*
X206400Y41500D02*
X207600D01*
X207000Y40900D02*
Y42100D01*
X272900Y26000D02*
X274100D01*
X273500Y25400D02*
Y26600D01*
X258900Y29000D02*
X260100D01*
X259500Y28400D02*
Y29600D01*
X130900Y124000D02*
X132100D01*
X131500Y123400D02*
Y124600D01*
X110900Y149500D02*
X112100D01*
X111500Y148900D02*
Y150100D01*
X118900Y117000D02*
X120100D01*
X119500Y116400D02*
Y117600D01*
X118900Y87000D02*
X120100D01*
X119500Y86400D02*
Y87600D01*
X116400Y119500D02*
X117600D01*
X117000Y118900D02*
Y120100D01*
X116400Y89500D02*
X117600D01*
X117000Y88900D02*
Y90100D01*
X160148Y87252D02*
X161348D01*
X160748Y86652D02*
Y87852D01*
X169400Y90500D02*
X170600D01*
X170000Y89900D02*
Y91100D01*
X106900Y124882D02*
X108100D01*
X107500Y124282D02*
Y125482D01*
X109400Y94500D02*
X110600D01*
X110000Y93900D02*
Y95100D01*
X109400Y127441D02*
X110600D01*
X110000Y126841D02*
Y128041D01*
X145400Y127441D02*
X146600D01*
X146000Y126841D02*
Y128041D01*
X173900Y130000D02*
X175100D01*
X174500Y129400D02*
Y130600D01*
X145400Y132559D02*
X146600D01*
X146000Y131959D02*
Y133159D01*
X34900Y45551D02*
X36100D01*
X35500Y44951D02*
Y46151D01*
X107900Y37500D02*
X109100D01*
X108500Y36900D02*
Y38100D01*
X34900Y48701D02*
X36100D01*
X35500Y48101D02*
Y49301D01*
X48101Y56000D02*
X49301D01*
X48701Y55400D02*
Y56600D01*
X40250Y58150D02*
X41450D01*
X40850Y57550D02*
Y58750D01*
X155900Y17500D02*
X157100D01*
X156500Y16900D02*
Y18100D01*
X112400Y20500D02*
X113600D01*
X113000Y19900D02*
Y21100D01*
X249400Y124882D02*
X250600D01*
X250000Y124282D02*
Y125482D01*
X184400Y15500D02*
X185600D01*
X185000Y14900D02*
Y16100D01*
X102400Y11500D02*
X103600D01*
X103000Y10900D02*
Y12100D01*
X93750Y40000D02*
X94950D01*
X94350Y39400D02*
Y40600D01*
X34900Y40500D02*
X36100D01*
X35500Y39900D02*
Y41100D01*
X155018Y135118D02*
X156218D01*
X155618Y134518D02*
Y135718D01*
X95400Y110000D02*
X96600D01*
X96000Y109400D02*
Y110600D01*
X165900Y130000D02*
X167100D01*
X166500Y129400D02*
Y130600D01*
X251711Y177500D02*
X252911D01*
X252311Y176900D02*
Y178100D01*
X258089Y169978D02*
X259289D01*
X258689Y169378D02*
Y170578D01*
X263995Y172500D02*
X265195D01*
X264595Y171900D02*
Y173100D01*
X275805Y175000D02*
X277006D01*
X276406Y174400D02*
Y175600D01*
X281711Y177500D02*
X282911D01*
X282311Y176900D02*
Y178100D01*
X281700Y193500D02*
X282900D01*
X282300Y192900D02*
Y194100D01*
X138400Y74000D02*
X139600D01*
X139000Y73400D02*
Y74600D01*
X70000Y48642D02*
X71200D01*
X70600Y48042D02*
Y49242D01*
X160148Y23500D02*
X161348D01*
X160748Y22900D02*
Y24100D01*
X177900Y22500D02*
X179100D01*
X178500Y21900D02*
Y23100D01*
X22400Y70748D02*
X23600D01*
X23000Y70148D02*
Y71348D01*
X17400Y113000D02*
X18600D01*
X18000Y112400D02*
Y113600D01*
X24900Y88000D02*
X26100D01*
X25500Y87400D02*
Y88600D01*
X109400Y61299D02*
X110600D01*
X110000Y60699D02*
Y61899D01*
X63400Y67000D02*
X64600D01*
X64000Y66400D02*
Y67600D01*
X63400Y72000D02*
X64600D01*
X64000Y71400D02*
Y72600D01*
X53900Y61500D02*
X55100D01*
X54500Y60900D02*
Y62100D01*
X63400Y12000D02*
X64600D01*
X64000Y11400D02*
Y12600D01*
X72900Y58500D02*
X74100D01*
X73500Y57900D02*
Y59100D01*
X66900Y69500D02*
X68100D01*
X67500Y68900D02*
Y70100D01*
X19900Y77500D02*
X21100D01*
X20500Y76900D02*
Y78100D01*
X39400Y67500D02*
X40600D01*
X40000Y66900D02*
Y68100D01*
X193900Y83000D02*
X195100D01*
X194500Y82400D02*
Y83600D01*
X222400Y94000D02*
X223600D01*
X223000Y93400D02*
Y94600D01*
X26400Y133000D02*
X27600D01*
X27000Y132400D02*
Y133600D01*
X26400Y127000D02*
X27600D01*
X27000Y126400D02*
Y127600D01*
X26400Y121000D02*
X27600D01*
X27000Y120400D02*
Y121600D01*
X26400Y115000D02*
X27600D01*
X27000Y114400D02*
Y115600D01*
X26400Y109000D02*
X27600D01*
X27000Y108400D02*
Y109600D01*
X26400Y103000D02*
X27600D01*
X27000Y102400D02*
Y103600D01*
X87900Y8000D02*
X89100D01*
X88500Y7400D02*
Y8600D01*
X148900Y17500D02*
X150100D01*
X149500Y16900D02*
Y18100D01*
X98900Y45551D02*
X100100D01*
X99500Y44951D02*
Y46151D01*
X98900Y48701D02*
X100100D01*
X99500Y48101D02*
Y49301D01*
X98900Y51850D02*
X100100D01*
X99500Y51250D02*
Y52450D01*
X152900Y51500D02*
X154100D01*
X153500Y50900D02*
Y52100D01*
X159699Y48701D02*
X160899D01*
X160299Y48101D02*
Y49301D01*
X223400Y21500D02*
X224600D01*
X224000Y20900D02*
Y22100D01*
X187900Y26300D02*
X189100D01*
X188500Y25700D02*
Y26900D01*
X230900Y23000D02*
X232100D01*
X231500Y22400D02*
Y23600D01*
X204900Y55500D02*
X206100D01*
X205500Y54900D02*
Y56100D01*
X229400Y43000D02*
X230600D01*
X230000Y42400D02*
Y43600D01*
X198400Y51850D02*
X199600D01*
X199000Y51250D02*
Y52450D01*
X156900Y37500D02*
X158100D01*
X157500Y36900D02*
Y38100D01*
X235400Y130000D02*
X236600D01*
X236000Y129400D02*
Y130600D01*
X191400Y22500D02*
X192600D01*
X192000Y21900D02*
Y23100D01*
X181400Y22500D02*
X182600D01*
X182000Y21900D02*
Y23100D01*
X62900Y19000D02*
X64100D01*
X63500Y18400D02*
Y19600D01*
X57550Y23150D02*
X58750D01*
X58150Y22550D02*
Y23750D01*
X63849Y35500D02*
X65049D01*
X64449Y34900D02*
Y36100D01*
X51250Y38000D02*
X52450D01*
X51850Y37400D02*
Y38600D01*
X26400Y97000D02*
X27600D01*
X27000Y96400D02*
Y97600D01*
X258089Y201000D02*
X259289D01*
X258689Y200400D02*
Y201600D01*
X263995Y198500D02*
X265195D01*
X264595Y197900D02*
Y199100D01*
X275801Y196000D02*
X277001D01*
X276401Y195400D02*
Y196600D01*
X251711Y193500D02*
X252911D01*
X252311Y192900D02*
Y194100D01*
X245806Y196000D02*
X247006D01*
X246406Y195400D02*
Y196600D01*
X233995Y198500D02*
X235194D01*
X234594Y197900D02*
Y199100D01*
X228089Y201000D02*
X229289D01*
X228689Y200400D02*
Y201600D01*
X221711Y193500D02*
X222911D01*
X222311Y192900D02*
Y194100D01*
X215806Y196000D02*
X217005D01*
X216406Y195400D02*
Y196600D01*
X203994Y198500D02*
X205194D01*
X204594Y197900D02*
Y199100D01*
X198089Y201000D02*
X199289D01*
X198689Y200400D02*
Y201600D01*
X191711Y193500D02*
X192911D01*
X192311Y192900D02*
Y194100D01*
X185805Y196000D02*
X187005D01*
X186406Y195400D02*
Y196600D01*
X173995Y198500D02*
X175195D01*
X174594Y197900D02*
Y199100D01*
X168089Y201000D02*
X169289D01*
X168689Y200400D02*
Y201600D01*
X161711Y193500D02*
X162911D01*
X162311Y192900D02*
Y194100D01*
X155806Y196000D02*
X157006D01*
X156405Y195400D02*
Y196600D01*
X143994Y198500D02*
X145194D01*
X144595Y197900D02*
Y199100D01*
X138089Y201000D02*
X139289D01*
X138689Y200400D02*
Y201600D01*
X131711Y193500D02*
X132911D01*
X132311Y192900D02*
Y194100D01*
X125805Y196000D02*
X127006D01*
X126406Y195400D02*
Y196600D01*
X113995Y198500D02*
X115194D01*
X114594Y197900D02*
Y199100D01*
X110400Y198500D02*
X111600D01*
X111000Y197900D02*
Y199100D01*
X245806Y175000D02*
X247006D01*
X246406Y174400D02*
Y175600D01*
X233995Y172500D02*
X235194D01*
X234594Y171900D02*
Y173100D01*
X228089Y169978D02*
X229289D01*
X228689Y169378D02*
Y170578D01*
X221711Y177500D02*
X222911D01*
X222311Y176900D02*
Y178100D01*
X215806Y175000D02*
X217005D01*
X216406Y174400D02*
Y175600D01*
X203994Y172500D02*
X205194D01*
X204594Y171900D02*
Y173100D01*
X198089Y169978D02*
X199289D01*
X198689Y169378D02*
Y170578D01*
X191711Y177500D02*
X192911D01*
X192311Y176900D02*
Y178100D01*
X185805Y175000D02*
X187005D01*
X186406Y174400D02*
Y175600D01*
X173995Y172500D02*
X175195D01*
X174594Y171900D02*
Y173100D01*
X168089Y169978D02*
X169289D01*
X168689Y169378D02*
Y170578D01*
X161711Y177500D02*
X162911D01*
X162311Y176900D02*
Y178100D01*
X155806Y175000D02*
X157006D01*
X156405Y174400D02*
Y175600D01*
X143994Y172500D02*
X145194D01*
X144595Y171900D02*
Y173100D01*
X138089Y169978D02*
X139289D01*
X138689Y169378D02*
Y170578D01*
X131711Y177500D02*
X132911D01*
X132311Y176900D02*
Y178100D01*
X125805Y175000D02*
X127006D01*
X126406Y174400D02*
Y175600D01*
X118900Y172500D02*
X120100D01*
X119500Y171900D02*
Y173100D01*
X113400Y172500D02*
X114600D01*
X114000Y171900D02*
Y173100D01*
X122900Y153500D02*
X124100D01*
X123500Y152900D02*
Y154100D01*
X149900Y153500D02*
X151100D01*
X150500Y152900D02*
Y154100D01*
X179900Y153500D02*
X181100D01*
X180500Y152900D02*
Y154100D01*
X209900Y153500D02*
X211100D01*
X210500Y152900D02*
Y154100D01*
X239900Y153500D02*
X241100D01*
X240500Y152900D02*
Y154100D01*
X237900Y150500D02*
X239100D01*
X238500Y149900D02*
Y151100D01*
X208400Y141000D02*
X209600D01*
X209000Y140400D02*
Y141600D01*
X215900Y141000D02*
X217100D01*
X216500Y140400D02*
Y141600D01*
X127400Y151000D02*
X128600D01*
X128000Y150400D02*
Y151600D01*
X224400Y142500D02*
X225600D01*
X225000Y141900D02*
Y143100D01*
X304900Y11000D02*
X306100D01*
X305500Y10400D02*
Y11600D01*
X307900Y86500D02*
X309100D01*
X308500Y85900D02*
Y87100D01*
X103400Y130000D02*
X104600D01*
X104000Y129400D02*
Y130600D01*
X102400Y101500D02*
X103600D01*
X103000Y100900D02*
Y102100D01*
X112900Y127441D02*
X114100D01*
X113500Y126841D02*
Y128041D01*
X111900Y104000D02*
X113100D01*
X112500Y103400D02*
Y104600D01*
X198400Y37000D02*
X199600D01*
X199000Y36400D02*
Y37600D01*
X165400Y90500D02*
X166600D01*
X166000Y89900D02*
Y91100D01*
X182900Y67500D02*
X184100D01*
X183500Y66900D02*
Y68100D01*
X191400Y80000D02*
X192600D01*
X192000Y79400D02*
Y80600D01*
X150900Y90500D02*
X152100D01*
X151500Y89900D02*
Y91100D01*
X153400Y93000D02*
X154600D01*
X154000Y92400D02*
Y93600D01*
X185400Y41500D02*
X186600D01*
X186000Y40900D02*
Y42100D01*
X114900Y130500D02*
X116100D01*
X115500Y129900D02*
Y131100D01*
X207400Y71000D02*
X208600D01*
X208000Y70400D02*
Y71600D01*
X185400Y69000D02*
X186600D01*
X186000Y68400D02*
Y69600D01*
X330400Y13000D02*
X331600D01*
X331000Y12400D02*
Y13600D01*
X320900Y43500D02*
X322100D01*
X321500Y42900D02*
Y44100D01*
X143400Y35500D02*
X144600D01*
X144000Y34900D02*
Y36100D01*
X145400Y41000D02*
X146600D01*
X146000Y40400D02*
Y41600D01*
X143400Y43500D02*
X144600D01*
X144000Y42900D02*
Y44100D01*
X142900Y46500D02*
X144100D01*
X143500Y45900D02*
Y47100D01*
X299900Y8500D02*
X301100D01*
X300500Y7900D02*
Y9100D01*
X320400Y8500D02*
X321600D01*
X321000Y7900D02*
Y9100D01*
X310400Y13000D02*
X311600D01*
X311000Y12400D02*
Y13600D01*
X257400Y41500D02*
X258600D01*
X258000Y40900D02*
Y42100D01*
X256400Y110500D02*
X257600D01*
X257000Y109900D02*
Y111100D01*
X312900Y99500D02*
X314100D01*
X313500Y98900D02*
Y100100D01*
X315400Y102000D02*
X316600D01*
X316000Y101400D02*
Y102600D01*
X264900Y57500D02*
X266100D01*
X265500Y56900D02*
Y58100D01*
X269900Y60000D02*
X271100D01*
X270500Y59400D02*
Y60600D01*
X269900Y82000D02*
X271100D01*
X270500Y81400D02*
Y82600D01*
X268900Y110500D02*
X270100D01*
X269500Y109900D02*
Y111100D01*
X222400Y110000D02*
X223600D01*
X223000Y109400D02*
Y110600D01*
X226400Y94000D02*
X227600D01*
X227000Y93400D02*
Y94600D01*
X226400Y110000D02*
X227600D01*
X227000Y109400D02*
Y110600D01*
X263900Y132559D02*
X265100D01*
X264500Y131959D02*
Y133159D01*
X262400Y110500D02*
X263600D01*
X263000Y109900D02*
Y111100D01*
X293900Y71000D02*
X295100D01*
X294500Y70400D02*
Y71600D01*
X284400Y73000D02*
X285600D01*
X285000Y72400D02*
Y73600D01*
X277491Y69500D02*
X278691D01*
X278091Y68900D02*
Y70100D01*
X290483Y73000D02*
X291683D01*
X291083Y72400D02*
Y73600D01*
X285400Y123500D02*
X286600D01*
X286000Y122900D02*
Y124100D01*
X273900Y91500D02*
X275100D01*
X274500Y90900D02*
Y92100D01*
X319900Y195000D02*
X321100D01*
X320500Y194400D02*
Y195600D01*
X293750Y211350D02*
X294950D01*
X294350Y210750D02*
Y211950D01*
X307900Y135000D02*
X309100D01*
X308500Y134400D02*
Y135600D01*
X290483Y40917D02*
X291683D01*
X291083Y40317D02*
Y41517D01*
X232400Y38000D02*
X233600D01*
X233000Y37400D02*
Y38600D01*
X220900Y23000D02*
X222100D01*
X221500Y22400D02*
Y23600D01*
X226400Y22500D02*
X227600D01*
X227000Y21900D02*
Y23100D01*
X202400Y41500D02*
X203600D01*
X203000Y40900D02*
Y42100D01*
X227900Y45500D02*
X229100D01*
X228500Y44900D02*
Y46100D01*
X230900Y40500D02*
X232100D01*
X231500Y39900D02*
Y41100D01*
X212400Y39500D02*
X213600D01*
X213000Y38900D02*
Y40100D01*
X179400Y30000D02*
X180600D01*
X180000Y29400D02*
Y30600D01*
X190400Y30000D02*
X191600D01*
X191000Y29400D02*
Y30600D01*
X163100Y26000D02*
X164300D01*
X163700Y25400D02*
Y26600D01*
X103577Y137677D02*
X104777D01*
X104177Y137077D02*
Y138277D01*
X114357Y141043D02*
X115557D01*
X114957Y140443D02*
Y141643D01*
X121443Y141043D02*
X122643D01*
X122043Y140443D02*
Y141643D01*
X239900Y13642D02*
X241100D01*
X240500Y13042D02*
Y14242D01*
X105900Y34500D02*
X107100D01*
X106500Y33900D02*
Y35100D01*
X60101Y124500D02*
X61301D01*
X60701Y123900D02*
Y125100D01*
X265900Y82000D02*
X267100D01*
X266500Y81400D02*
Y82600D01*
X265900Y66000D02*
X267100D01*
X266500Y65400D02*
Y66600D01*
X287400Y73000D02*
X288600D01*
X288000Y72400D02*
Y73600D01*
X45050Y201350D02*
X46250D01*
X45650Y200750D02*
Y201950D01*
X24900Y184500D02*
X26100D01*
X25500Y183900D02*
Y185100D01*
X42400Y178000D02*
X43600D01*
X43000Y177400D02*
Y178600D01*
M02*
