%FSLAX25Y25*%
%MOIN*%
G70*
G01*
G75*
G04 Layer_Color=32896*
%ADD10R,0.08661X0.09843*%
%ADD11R,0.01969X0.07874*%
%ADD12R,0.06102X0.05118*%
%ADD13C,0.04000*%
G04:AMPARAMS|DCode=14|XSize=60mil|YSize=300mil|CornerRadius=0mil|HoleSize=0mil|Usage=FLASHONLY|Rotation=90.000|XOffset=0mil|YOffset=0mil|HoleType=Round|Shape=Octagon|*
%AMOCTAGOND14*
4,1,8,-0.15000,-0.01500,-0.15000,0.01500,-0.13500,0.03000,0.13500,0.03000,0.15000,0.01500,0.15000,-0.01500,0.13500,-0.03000,-0.13500,-0.03000,-0.15000,-0.01500,0.0*
%
%ADD14OCTAGOND14*%

%ADD15R,0.03150X0.03150*%
%ADD16R,0.03937X0.11811*%
%ADD17C,0.01000*%
%ADD18C,0.02000*%
%ADD19C,0.01200*%
%ADD20C,0.02362*%
%ADD21C,0.02200*%
%ADD22C,0.04000*%
%ADD23C,0.07543*%
%ADD24C,0.04200*%
%ADD25R,0.04000X0.04000*%
%ADD26R,0.01181X0.06693*%
%ADD27R,0.07677X0.01575*%
%ADD28R,0.04134X0.02362*%
%ADD29R,0.06693X0.01378*%
%ADD30R,0.06299X0.01378*%
%ADD31R,0.02165X0.07677*%
%ADD32R,0.07677X0.02165*%
%ADD33R,0.07874X0.02362*%
%ADD34R,0.15748X0.06693*%
%ADD35R,0.15748X0.05906*%
%ADD36R,0.07677X0.05118*%
%ADD37R,0.05118X0.05906*%
%ADD38R,0.04331X0.03937*%
%ADD39R,0.04000X0.04000*%
%ADD40R,0.03937X0.04331*%
%ADD41C,0.01500*%
%ADD42C,0.03000*%
%ADD43C,0.01400*%
%ADD44C,0.00984*%
%ADD45C,0.02362*%
%ADD46C,0.00787*%
%ADD47C,0.08000*%
%ADD48C,0.01575*%
%ADD49C,0.05000*%
D17*
X93000Y201998D02*
X89001D01*
X91001D01*
Y196000D01*
X87002D02*
Y201998D01*
X84003D01*
X83003Y200998D01*
Y198999D01*
X84003Y197999D01*
X87002D01*
X81004Y196000D02*
X79005D01*
X80004D01*
Y201998D01*
X81004Y200998D01*
X73006Y196000D02*
Y201998D01*
X76006Y198999D01*
X72007D01*
X255000Y83498D02*
Y78500D01*
X254000Y77500D01*
X252001D01*
X251001Y78500D01*
Y83498D01*
X245003Y77500D02*
X249002D01*
X245003Y81499D01*
Y82498D01*
X246003Y83498D01*
X248002D01*
X249002Y82498D01*
X50000Y169998D02*
Y165000D01*
X49000Y164000D01*
X47001D01*
X46001Y165000D01*
Y169998D01*
X44002Y164000D02*
X42003D01*
X43002D01*
Y169998D01*
X44002Y168998D01*
X35005Y164000D02*
X39004D01*
X35005Y167999D01*
Y168998D01*
X36004Y169998D01*
X38004D01*
X39004Y168998D01*
X194000Y44998D02*
Y40000D01*
X193000Y39000D01*
X191001D01*
X190001Y40000D01*
Y44998D01*
X188002D02*
X184003D01*
Y43998D01*
X188002Y40000D01*
Y39000D01*
X94500Y119498D02*
Y114500D01*
X93500Y113500D01*
X91501D01*
X90501Y114500D01*
Y119498D01*
X88502Y118498D02*
X87502Y119498D01*
X85503D01*
X84503Y118498D01*
Y117499D01*
X85503Y116499D01*
X84503Y115499D01*
Y114500D01*
X85503Y113500D01*
X87502D01*
X88502Y114500D01*
Y115499D01*
X87502Y116499D01*
X88502Y117499D01*
Y118498D01*
X87502Y116499D02*
X85503D01*
X110000Y148998D02*
Y144000D01*
X109000Y143000D01*
X107001D01*
X106001Y144000D01*
Y148998D01*
X104002Y143000D02*
X102003D01*
X103002D01*
Y148998D01*
X104002Y147998D01*
X99004Y143000D02*
X97004D01*
X98004D01*
Y148998D01*
X99004Y147998D01*
X102000Y83998D02*
Y79000D01*
X101000Y78000D01*
X99001D01*
X98001Y79000D01*
Y83998D01*
X96002Y78000D02*
X94003D01*
X95002D01*
Y83998D01*
X96002Y82998D01*
X91004D02*
X90004Y83998D01*
X88004D01*
X87005Y82998D01*
Y79000D01*
X88004Y78000D01*
X90004D01*
X91004Y79000D01*
Y82998D01*
X186500Y83498D02*
Y78500D01*
X185500Y77500D01*
X183501D01*
X182501Y78500D01*
Y83498D01*
X180502Y77500D02*
X178503D01*
X179502D01*
Y83498D01*
X180502Y82498D01*
X320000Y83498D02*
Y78500D01*
X319000Y77500D01*
X317001D01*
X316001Y78500D01*
Y83498D01*
X314002Y82498D02*
X313002Y83498D01*
X311003D01*
X310003Y82498D01*
Y81499D01*
X311003Y80499D01*
X312003D01*
X311003D01*
X310003Y79499D01*
Y78500D01*
X311003Y77500D01*
X313002D01*
X314002Y78500D01*
X296000Y155998D02*
Y151000D01*
X295000Y150000D01*
X293001D01*
X292001Y151000D01*
Y155998D01*
X287003Y150000D02*
Y155998D01*
X290002Y152999D01*
X286003D01*
X333801Y12500D02*
X337000D01*
X333801Y15699D01*
Y16499D01*
X334601Y17298D01*
X336200D01*
X337000Y16499D01*
X332202Y12500D02*
X330602D01*
X331402D01*
Y17298D01*
X332202Y16499D01*
X334601Y202500D02*
Y207298D01*
X337000Y204899D01*
X333801D01*
X332202Y206499D02*
X331402Y207298D01*
X329802D01*
X329003Y206499D01*
Y203300D01*
X329802Y202500D01*
X331402D01*
X332202Y203300D01*
Y206499D01*
X199000Y153998D02*
X195001Y148000D01*
Y153998D02*
X199000Y148000D01*
X193002D02*
X191003D01*
X192002D01*
Y153998D01*
X193002Y152998D01*
X23000Y31998D02*
X19001D01*
X21001D01*
Y26000D01*
X17002D02*
Y31998D01*
X14003D01*
X13003Y30998D01*
Y28999D01*
X14003Y27999D01*
X17002D01*
X7005Y26000D02*
X11004D01*
X7005Y29999D01*
Y30998D01*
X8005Y31998D01*
X10004D01*
X11004Y30998D01*
X23000Y63998D02*
X19001D01*
X21001D01*
Y58000D01*
X17002D02*
Y63998D01*
X14003D01*
X13003Y62998D01*
Y60999D01*
X14003Y59999D01*
X17002D01*
X11004Y58000D02*
X9004D01*
X10004D01*
Y63998D01*
X11004Y62998D01*
X253000Y163998D02*
X249001D01*
X251001D01*
Y158000D01*
X247002D02*
Y163998D01*
X244003D01*
X243003Y162998D01*
Y160999D01*
X244003Y159999D01*
X247002D01*
X241004Y158000D02*
X239004D01*
X240004D01*
Y163998D01*
X241004Y162998D01*
X236005D02*
X235006Y163998D01*
X233007D01*
X232007Y162998D01*
Y159000D01*
X233007Y158000D01*
X235006D01*
X236005Y159000D01*
Y162998D01*
X226000Y11998D02*
X222001D01*
X224001D01*
Y6000D01*
X220002D02*
Y11998D01*
X217003D01*
X216003Y10998D01*
Y8999D01*
X217003Y7999D01*
X220002D01*
X214004Y6000D02*
X212004D01*
X213004D01*
Y11998D01*
X214004Y10998D01*
X209005Y6000D02*
X207006D01*
X208006D01*
Y11998D01*
X209005Y10998D01*
X203000Y11998D02*
X199001D01*
X201001D01*
Y6000D01*
X197002D02*
Y11998D01*
X194003D01*
X193003Y10998D01*
Y8999D01*
X194003Y7999D01*
X197002D01*
X191004Y6000D02*
X189005D01*
X190004D01*
Y11998D01*
X191004Y10998D01*
X182007Y6000D02*
X186005D01*
X182007Y9999D01*
Y10998D01*
X183007Y11998D01*
X185006D01*
X186005Y10998D01*
X273000Y163998D02*
X269001D01*
X271001D01*
Y158000D01*
X267002D02*
Y163998D01*
X264003D01*
X263003Y162998D01*
Y160999D01*
X264003Y159999D01*
X267002D01*
X261004Y159000D02*
X260004Y158000D01*
X258005D01*
X257005Y159000D01*
Y162998D01*
X258005Y163998D01*
X260004D01*
X261004Y162998D01*
Y161999D01*
X260004Y160999D01*
X257005D01*
X146500Y148998D02*
Y144000D01*
X145500Y143000D01*
X143501D01*
X142501Y144000D01*
Y148998D01*
X140502Y144000D02*
X139502Y143000D01*
X137503D01*
X136503Y144000D01*
Y147998D01*
X137503Y148998D01*
X139502D01*
X140502Y147998D01*
Y146999D01*
X139502Y145999D01*
X136503D01*
X276000Y117998D02*
Y113000D01*
X275000Y112000D01*
X273001D01*
X272001Y113000D01*
Y117998D01*
X266003D02*
X268003Y116998D01*
X270002Y114999D01*
Y113000D01*
X269002Y112000D01*
X267003D01*
X266003Y113000D01*
Y113999D01*
X267003Y114999D01*
X270002D01*
X226500Y148998D02*
Y144000D01*
X225500Y143000D01*
X223501D01*
X222501Y144000D01*
Y148998D01*
X216503D02*
X220502D01*
Y145999D01*
X218503Y146999D01*
X217503D01*
X216503Y145999D01*
Y144000D01*
X217503Y143000D01*
X219502D01*
X220502Y144000D01*
X138000Y201998D02*
X134001D01*
X136001D01*
Y196000D01*
X132002D02*
Y201998D01*
X129003D01*
X128003Y200998D01*
Y198999D01*
X129003Y197999D01*
X132002D01*
X126004Y196000D02*
X124004D01*
X125004D01*
Y201998D01*
X126004Y200998D01*
X121005D02*
X120006Y201998D01*
X118007D01*
X117007Y200998D01*
Y199999D01*
X118007Y198999D01*
X119006D01*
X118007D01*
X117007Y197999D01*
Y197000D01*
X118007Y196000D01*
X120006D01*
X121005Y197000D01*
X0Y-80000D02*
X4998D01*
X6664Y-78334D01*
X4998Y-76668D01*
X1666D01*
X0Y-75002D01*
X1666Y-73335D01*
X6664D01*
X9997Y-80000D02*
Y-73335D01*
X11663D01*
X13329Y-75002D01*
Y-80000D01*
Y-75002D01*
X14995Y-73335D01*
X16661Y-75002D01*
Y-80000D01*
X21660Y-73335D02*
X24992D01*
X26658Y-75002D01*
Y-80000D01*
X21660D01*
X19994Y-78334D01*
X21660Y-76668D01*
X26658D01*
X29990Y-73335D02*
Y-80000D01*
Y-76668D01*
X31656Y-75002D01*
X33323Y-73335D01*
X34989D01*
X39987Y-80000D02*
X43319D01*
X41653D01*
Y-73335D01*
X39987D01*
X58315Y-80000D02*
Y-73335D01*
X59981D01*
X61647Y-75002D01*
Y-80000D01*
Y-75002D01*
X63313Y-73335D01*
X64979Y-75002D01*
Y-80000D01*
X68311D02*
X71644D01*
X69977D01*
Y-73335D01*
X68311D01*
X76642Y-80000D02*
Y-73335D01*
X81640D01*
X83306Y-75002D01*
Y-80000D01*
X86639D02*
Y-73335D01*
X91637D01*
X93303Y-75002D01*
Y-80000D01*
X98302Y-73335D02*
X101634D01*
X103300Y-75002D01*
Y-80000D01*
X98302D01*
X96635Y-78334D01*
X98302Y-76668D01*
X103300D01*
X0Y-50003D02*
Y-60000D01*
X4998D01*
X6664Y-58334D01*
Y-56668D01*
X4998Y-55002D01*
X0D01*
X4998D01*
X6664Y-53335D01*
Y-51669D01*
X4998Y-50003D01*
X0D01*
X11663Y-60000D02*
X14995D01*
X16661Y-58334D01*
Y-55002D01*
X14995Y-53335D01*
X11663D01*
X9997Y-55002D01*
Y-58334D01*
X11663Y-60000D01*
X21660Y-51669D02*
Y-53335D01*
X19994D01*
X23326D01*
X21660D01*
Y-58334D01*
X23326Y-60000D01*
X29990Y-51669D02*
Y-53335D01*
X28324D01*
X31656D01*
X29990D01*
Y-58334D01*
X31656Y-60000D01*
X38321D02*
X41653D01*
X43319Y-58334D01*
Y-55002D01*
X41653Y-53335D01*
X38321D01*
X36655Y-55002D01*
Y-58334D01*
X38321Y-60000D01*
X46652D02*
Y-53335D01*
X48318D01*
X49984Y-55002D01*
Y-60000D01*
Y-55002D01*
X51650Y-53335D01*
X53316Y-55002D01*
Y-60000D01*
X71644Y-50003D02*
X68311D01*
X66645Y-51669D01*
Y-58334D01*
X68311Y-60000D01*
X71644D01*
X73310Y-58334D01*
Y-51669D01*
X71644Y-50003D01*
X76642Y-53335D02*
X79974Y-60000D01*
X83306Y-53335D01*
X91637Y-60000D02*
X88305D01*
X86639Y-58334D01*
Y-55002D01*
X88305Y-53335D01*
X91637D01*
X93303Y-55002D01*
Y-56668D01*
X86639D01*
X96635Y-53335D02*
Y-60000D01*
Y-56668D01*
X98302Y-55002D01*
X99968Y-53335D01*
X101634D01*
X106632Y-60000D02*
X109965D01*
X108298D01*
Y-50003D01*
X106632D01*
X116629Y-53335D02*
X119961D01*
X121627Y-55002D01*
Y-60000D01*
X116629D01*
X114963Y-58334D01*
X116629Y-56668D01*
X121627D01*
X124960Y-53335D02*
Y-58334D01*
X126626Y-60000D01*
X131624D01*
Y-61666D01*
X129958Y-63332D01*
X128292D01*
X131624Y-60000D02*
Y-53335D01*
X65000Y201998D02*
X61001D01*
X63001D01*
Y196000D01*
X59002D02*
Y201998D01*
X56003D01*
X55003Y200998D01*
Y198999D01*
X56003Y197999D01*
X59002D01*
X53004Y200998D02*
X52004Y201998D01*
X50005D01*
X49005Y200998D01*
Y199999D01*
X50005Y198999D01*
X51004D01*
X50005D01*
X49005Y197999D01*
Y197000D01*
X50005Y196000D01*
X52004D01*
X53004Y197000D01*
X47006Y198999D02*
X43007D01*
X41008Y201998D02*
X37009D01*
X39008D01*
Y196000D01*
X35010D02*
Y201998D01*
X32011D01*
X31011Y200998D01*
Y198999D01*
X32011Y197999D01*
X35010D01*
X29012Y200998D02*
X28012Y201998D01*
X26013D01*
X25013Y200998D01*
Y199999D01*
X26013Y198999D01*
X25013Y197999D01*
Y197000D01*
X26013Y196000D01*
X28012D01*
X29012Y197000D01*
Y197999D01*
X28012Y198999D01*
X29012Y199999D01*
Y200998D01*
X28012Y198999D02*
X26013D01*
X202000Y166000D02*
Y169999D01*
X201000D01*
X200001Y168999D01*
Y166000D01*
Y168999D01*
X199001Y169999D01*
X198001Y168999D01*
Y166000D01*
X196002D02*
X194003D01*
X195002D01*
Y169999D01*
X196002D01*
X191004Y166000D02*
Y169999D01*
X188005D01*
X187005Y168999D01*
Y166000D01*
X185005D02*
Y169999D01*
X182007D01*
X181007Y168999D01*
Y166000D01*
X178008Y169999D02*
X176008D01*
X175009Y168999D01*
Y166000D01*
X178008D01*
X179007Y167000D01*
X178008Y167999D01*
X175009D01*
X167011Y169999D02*
X165012Y166000D01*
X163013Y169999D01*
X161013Y170998D02*
X160014Y171998D01*
X158014D01*
X157015Y170998D01*
Y167000D01*
X158014Y166000D01*
X160014D01*
X161013Y167000D01*
Y170998D01*
X155015Y166000D02*
Y167000D01*
X154016D01*
Y166000D01*
X155015D01*
X150017D02*
X148018D01*
X149017D01*
Y171998D01*
X150017Y170998D01*
X0Y-93335D02*
X3332Y-100000D01*
X6664Y-93335D01*
X9997Y-91669D02*
X11663Y-90003D01*
X14995D01*
X16661Y-91669D01*
Y-98334D01*
X14995Y-100000D01*
X11663D01*
X9997Y-98334D01*
Y-91669D01*
X19994Y-100000D02*
Y-98334D01*
X21660D01*
Y-100000D01*
X19994D01*
X28324D02*
X31656D01*
X29990D01*
Y-90003D01*
X28324Y-91669D01*
X316001Y6000D02*
X320000D01*
X316001Y9999D01*
Y10998D01*
X317001Y11998D01*
X319000D01*
X320000Y10998D01*
X314002D02*
X313002Y11998D01*
X311003D01*
X310003Y10998D01*
Y7000D01*
X311003Y6000D01*
X313002D01*
X314002Y7000D01*
Y10998D01*
X308004Y6000D02*
X306005D01*
X307004D01*
Y11998D01*
X308004Y10998D01*
X299007Y6000D02*
X303006D01*
X299007Y9999D01*
Y10998D01*
X300007Y11998D01*
X302006D01*
X303006Y10998D01*
X297007Y8999D02*
X293009D01*
X291009Y10998D02*
X290010Y11998D01*
X288010D01*
X287011Y10998D01*
Y7000D01*
X288010Y6000D01*
X290010D01*
X291009Y7000D01*
Y10998D01*
X285011D02*
X284012Y11998D01*
X282012D01*
X281013Y10998D01*
Y9999D01*
X282012Y8999D01*
X281013Y7999D01*
Y7000D01*
X282012Y6000D01*
X284012D01*
X285011Y7000D01*
Y7999D01*
X284012Y8999D01*
X285011Y9999D01*
Y10998D01*
X284012Y8999D02*
X282012D01*
X279013D02*
X275015D01*
X273015Y10998D02*
X272016Y11998D01*
X270016D01*
X269017Y10998D01*
Y7000D01*
X270016Y6000D01*
X272016D01*
X273015Y7000D01*
Y10998D01*
X263018Y11998D02*
X265018Y10998D01*
X267017Y8999D01*
Y7000D01*
X266018Y6000D01*
X264018D01*
X263018Y7000D01*
Y7999D01*
X264018Y8999D01*
X267017D01*
X255021Y9999D02*
Y6000D01*
Y7999D01*
X254021Y8999D01*
X253022Y9999D01*
X252022D01*
X245024Y11998D02*
X247024Y10998D01*
X249023Y8999D01*
Y7000D01*
X248023Y6000D01*
X246024D01*
X245024Y7000D01*
Y7999D01*
X246024Y8999D01*
X249023D01*
X243025Y7000D02*
X242025Y6000D01*
X240026D01*
X239026Y7000D01*
Y10998D01*
X240026Y11998D01*
X242025D01*
X243025Y10998D01*
Y9999D01*
X242025Y8999D01*
X239026D01*
D44*
X208071Y81378D02*
G03*
X208071Y81378I-492J0D01*
G01*
X59500Y191500D02*
G03*
X59500Y191500I-492J0D01*
G01*
X185768Y22618D02*
G03*
X185768Y22618I-492J0D01*
G01*
X83500Y127000D02*
G03*
X83500Y127000I-492J0D01*
G01*
X126000Y141000D02*
G03*
X126000Y141000I-492J0D01*
G01*
X29902Y36004D02*
G03*
X29902Y36004I-492J0D01*
G01*
X171083Y73996D02*
G03*
X171083Y73996I-492J0D01*
G01*
X273661Y79803D02*
G03*
X273661Y79803I-492J0D01*
G01*
X296043Y111653D02*
G03*
X296043Y111653I-492J0D01*
G01*
X139469Y119567D02*
G03*
X139469Y119567I-492J0D01*
G01*
X281516Y140433D02*
G03*
X281516Y140433I-492J0D01*
G01*
X247500Y137500D02*
G03*
X247500Y137500I-492J0D01*
G01*
D45*
X215354Y71929D02*
G03*
X215354Y71929I-1181J0D01*
G01*
X70543Y122055D02*
G03*
X70543Y122055I-1181J0D01*
G01*
X113642Y136201D02*
G03*
X113642Y136201I-1181J0D01*
G01*
X40039Y38858D02*
G03*
X40039Y38858I-1181J0D01*
G01*
X162323Y71142D02*
G03*
X162323Y71142I-1181J0D01*
G01*
X279173Y70945D02*
G03*
X279173Y70945I-1181J0D01*
G01*
X148721Y123799D02*
G03*
X148721Y123799I-1181J0D01*
G01*
X273642Y136201D02*
G03*
X273642Y136201I-1181J0D01*
G01*
X233642D02*
G03*
X233642Y136201I-1181J0D01*
G01*
D46*
X77000Y207000D02*
X83000D01*
Y213000D01*
X77000D02*
X83000D01*
X77000Y207000D02*
Y213000D01*
X239764Y33740D02*
Y76260D01*
X210236Y33740D02*
Y76260D01*
Y33740D02*
X239764D01*
X210236Y76260D02*
X239764D01*
X46437Y172658D02*
Y192342D01*
X38563Y172658D02*
Y192342D01*
X46437D01*
X38563Y172658D02*
X46437D01*
X189016Y23898D02*
X190984D01*
X189016Y36102D02*
X190984D01*
X189016Y23898D02*
Y36102D01*
X190984Y23898D02*
Y36102D01*
X73299Y100008D02*
Y125992D01*
X60701Y100008D02*
Y125992D01*
X73299D01*
X60701Y100008D02*
X73299D01*
X116299Y119961D02*
Y140039D01*
X103701Y119961D02*
Y140039D01*
X116299D01*
X103701Y119961D02*
X116299D01*
X35315Y74685D02*
X74685D01*
X35315Y35315D02*
X74685D01*
Y74685D01*
X35315Y35315D02*
Y74685D01*
X125315Y35315D02*
X164685D01*
X125315Y74685D02*
X164685D01*
X125315Y35315D02*
Y74685D01*
X164685Y35315D02*
Y74685D01*
X274055Y74882D02*
X305945D01*
X274055Y35118D02*
X305945D01*
X274055D02*
Y74882D01*
X305945Y35118D02*
Y74882D01*
X301457Y147323D02*
X308543D01*
X301457Y112677D02*
X308543D01*
Y147323D01*
X301457Y112677D02*
Y147323D01*
X204843Y114843D02*
Y145157D01*
X185256Y114843D02*
X204843D01*
X185157D02*
Y145157D01*
X204843D01*
X90673Y203965D02*
Y212035D01*
Y203965D02*
X112327D01*
Y212035D01*
X90673D02*
X112327D01*
X114197Y203965D02*
Y212035D01*
X101500Y196941D02*
Y202059D01*
X18000Y185425D02*
Y188575D01*
X17000Y207000D02*
X23000D01*
Y213000D01*
X17000D02*
X23000D01*
X17000Y207000D02*
Y213000D01*
X27000Y207000D02*
Y213000D01*
X33000D01*
Y207000D02*
Y213000D01*
X27000Y207000D02*
X33000D01*
X37000D02*
X43000D01*
Y213000D01*
X37000D02*
X43000D01*
X37000Y207000D02*
Y213000D01*
X47000Y207000D02*
Y213000D01*
X53000D01*
Y207000D02*
Y213000D01*
X47000Y207000D02*
X53000D01*
X57000D02*
X63000D01*
Y213000D01*
X57000D02*
X63000D01*
X57000Y207000D02*
Y213000D01*
X67000Y207000D02*
Y213000D01*
X73000D01*
Y207000D02*
Y213000D01*
X67000Y207000D02*
X73000D01*
X17000Y37000D02*
X23000D01*
Y43000D01*
X17000D02*
X23000D01*
X17000Y37000D02*
Y43000D01*
Y47000D02*
Y53000D01*
X23000D01*
Y47000D02*
Y53000D01*
X17000Y47000D02*
X23000D01*
X247000Y147000D02*
X253000D01*
Y153000D01*
X247000D02*
X253000D01*
X247000Y147000D02*
Y153000D01*
X207000Y17000D02*
Y23000D01*
X213000D01*
Y17000D02*
Y23000D01*
X207000Y17000D02*
X213000D01*
X197000D02*
X203000D01*
Y23000D01*
X197000D02*
X203000D01*
X197000Y17000D02*
Y23000D01*
X257000Y147000D02*
X263000D01*
X257000D02*
Y153000D01*
X263000D01*
Y147000D02*
Y153000D01*
X89500Y150925D02*
Y154075D01*
X59500Y144925D02*
Y148075D01*
X74500Y144925D02*
Y148075D01*
X89500Y156941D02*
Y162059D01*
X74500Y136941D02*
Y142059D01*
X143701Y119961D02*
Y140039D01*
X156299Y119961D02*
Y140039D01*
X143701Y119961D02*
X156299D01*
X143701Y140039D02*
X156299D01*
X276299Y119961D02*
Y140039D01*
X263701Y119961D02*
Y140039D01*
X276299D01*
X263701Y119961D02*
X276299D01*
X236299D02*
Y140039D01*
X223701Y119961D02*
Y140039D01*
X236299D01*
X223701Y119961D02*
X236299D01*
X73000Y17425D02*
Y20575D01*
Y10425D02*
Y13575D01*
X55000Y17425D02*
Y20575D01*
Y10425D02*
Y13575D01*
X37000Y10425D02*
Y13575D01*
Y17425D02*
Y20575D01*
X35000Y95425D02*
Y98575D01*
Y101425D02*
Y104575D01*
Y107425D02*
Y110575D01*
Y113425D02*
Y116575D01*
Y119425D02*
Y122575D01*
Y125425D02*
Y128575D01*
Y131425D02*
Y134575D01*
Y137425D02*
Y140575D01*
X91000Y24425D02*
Y27575D01*
X89500Y144925D02*
Y148075D01*
X178425Y130000D02*
X181575D01*
X215000Y108425D02*
Y111575D01*
X235000Y108425D02*
Y111575D01*
X121000Y17425D02*
Y20575D01*
X136000Y17425D02*
Y20575D01*
X59500Y150925D02*
Y154075D01*
X170500Y20925D02*
Y24075D01*
X74500Y150925D02*
Y154075D01*
X87500Y90425D02*
Y93575D01*
X158500Y144425D02*
Y147575D01*
X18000Y179425D02*
Y182575D01*
X201425Y34000D02*
X204575D01*
X278500Y144425D02*
Y147575D01*
X238500Y144425D02*
Y147575D01*
X305000Y149925D02*
Y153075D01*
X264925Y74000D02*
X268075D01*
X199000Y74425D02*
Y77575D01*
X170500Y27925D02*
Y31075D01*
X74500Y130925D02*
Y134075D01*
X59500Y130925D02*
Y134075D01*
X118500Y144425D02*
Y147575D01*
X18000Y173425D02*
Y176575D01*
X73500Y184925D02*
Y188075D01*
X87000Y184925D02*
Y188075D01*
X100500Y178925D02*
Y182075D01*
X101500Y184941D02*
Y190059D01*
X19000Y10425D02*
Y13575D01*
X91000Y17425D02*
Y20575D01*
Y10425D02*
Y13575D01*
X19000Y17425D02*
Y20575D01*
X73500Y178925D02*
Y182075D01*
X87000Y178925D02*
Y182075D01*
X59500Y136941D02*
Y142059D01*
X18000Y191425D02*
Y194575D01*
X117000Y207000D02*
X123000D01*
Y213000D01*
X117000D02*
X123000D01*
X117000Y207000D02*
Y213000D01*
D48*
X44075Y189193D02*
G03*
X44075Y189193I-787J0D01*
G01*
D49*
X280000Y180000D02*
X265005D01*
X260006Y184998D01*
X265005Y189997D01*
X275002D01*
X280000Y194995D01*
X275002Y199994D01*
X260006D01*
X250010Y180000D02*
Y199994D01*
X245011D01*
X240013Y194995D01*
Y180000D01*
Y194995D01*
X235015Y199994D01*
X230016Y194995D01*
Y180000D01*
X215021Y199994D02*
X205024D01*
X200026Y194995D01*
Y180000D01*
X215021D01*
X220019Y184998D01*
X215021Y189997D01*
X200026D01*
X190029Y199994D02*
Y180000D01*
Y189997D01*
X185031Y194995D01*
X180032Y199994D01*
X175034D01*
X160039Y180000D02*
X150042D01*
X155040D01*
Y199994D01*
X160039D01*
M02*
