%FSLAX25Y25*%
%MOIN*%
G70*
G01*
G75*
%ADD10R,0.08661X0.09843*%
%ADD11R,0.01969X0.07874*%
%ADD12R,0.06102X0.05118*%
%ADD13C,0.04000*%
G04:AMPARAMS|DCode=14|XSize=60mil|YSize=300mil|CornerRadius=0mil|HoleSize=0mil|Usage=FLASHONLY|Rotation=90.000|XOffset=0mil|YOffset=0mil|HoleType=Round|Shape=Octagon|*
%AMOCTAGOND14*
4,1,8,-0.15000,-0.01500,-0.15000,0.01500,-0.13500,0.03000,0.13500,0.03000,0.15000,0.01500,0.15000,-0.01500,0.13500,-0.03000,-0.13500,-0.03000,-0.15000,-0.01500,0.0*
%
%ADD14OCTAGOND14*%

%ADD15R,0.03150X0.03150*%
%ADD16R,0.03937X0.11811*%
%ADD17C,0.01000*%
%ADD18C,0.02000*%
%ADD19C,0.01200*%
%ADD20C,0.02362*%
%ADD21C,0.02200*%
%ADD22C,0.04000*%
%ADD23C,0.07543*%
%ADD24C,0.04200*%
%ADD25R,0.04000X0.04000*%
%ADD26R,0.01181X0.06693*%
%ADD27R,0.07677X0.01575*%
%ADD28R,0.04134X0.02362*%
%ADD29R,0.06693X0.01378*%
%ADD30R,0.06299X0.01378*%
%ADD31R,0.02165X0.07677*%
%ADD32R,0.07677X0.02165*%
%ADD33R,0.07874X0.02362*%
%ADD34R,0.15748X0.06693*%
%ADD35R,0.15748X0.05906*%
%ADD36R,0.07677X0.05118*%
%ADD37R,0.05118X0.05906*%
%ADD38R,0.04331X0.03937*%
%ADD39R,0.04000X0.04000*%
%ADD40R,0.03937X0.04331*%
%ADD41C,0.01500*%
%ADD42C,0.03000*%
%ADD43C,0.01400*%
%ADD44C,0.00984*%
%ADD45C,0.02362*%
%ADD46C,0.00787*%
D17*
X77999Y205998D02*
X75999D01*
X76999D01*
Y201000D01*
X75999Y200000D01*
X75000D01*
X74000Y201000D01*
X79998Y200000D02*
X81997D01*
X80998D01*
Y205998D01*
X79998Y204998D01*
X103999Y147498D02*
X102999Y148498D01*
X101000D01*
X100000Y147498D01*
Y146499D01*
X101000Y145499D01*
X102999D01*
X103999Y144499D01*
Y143500D01*
X102999Y142500D01*
X101000D01*
X100000Y143500D01*
X105998Y148498D02*
Y142500D01*
X108997D01*
X109997Y143500D01*
Y144499D01*
X108997Y145499D01*
X105998D01*
X108997D01*
X109997Y146499D01*
Y147498D01*
X108997Y148498D01*
X105998D01*
X111996Y142500D02*
Y148498D01*
X114995D01*
X115995Y147498D01*
Y145499D01*
X114995Y144499D01*
X111996D01*
X335500Y202500D02*
X337100D01*
X336300D01*
Y207298D01*
X335500Y206499D01*
X332199Y20000D02*
X329000D01*
X332199Y23199D01*
Y23999D01*
X331399Y24798D01*
X329800D01*
X329000Y23999D01*
X333799D02*
X334598Y24798D01*
X336198D01*
X336997Y23999D01*
Y20800D01*
X336198Y20000D01*
X334598D01*
X333799Y20800D01*
Y23999D01*
X80000Y166998D02*
X83999D01*
X81999D01*
Y161000D01*
X85998Y166998D02*
X89997Y161000D01*
Y166998D02*
X85998Y161000D01*
X112500Y188498D02*
Y182500D01*
X115499D01*
X116499Y183500D01*
Y187498D01*
X115499Y188498D01*
X112500D01*
X122497Y187498D02*
X121497Y188498D01*
X119498D01*
X118498Y187498D01*
Y186499D01*
X119498Y185499D01*
X121497D01*
X122497Y184499D01*
Y183500D01*
X121497Y182500D01*
X119498D01*
X118498Y183500D01*
X124496Y182500D02*
X126496D01*
X125496D01*
Y188498D01*
X124496Y187498D01*
X172500Y188498D02*
Y182500D01*
X175499D01*
X176499Y183500D01*
Y187498D01*
X175499Y188498D01*
X172500D01*
X182497Y187498D02*
X181497Y188498D01*
X179498D01*
X178498Y187498D01*
Y186499D01*
X179498Y185499D01*
X181497D01*
X182497Y184499D01*
Y183500D01*
X181497Y182500D01*
X179498D01*
X178498Y183500D01*
X184496Y187498D02*
X185496Y188498D01*
X187495D01*
X188495Y187498D01*
Y186499D01*
X187495Y185499D01*
X186495D01*
X187495D01*
X188495Y184499D01*
Y183500D01*
X187495Y182500D01*
X185496D01*
X184496Y183500D01*
X232500Y188498D02*
Y182500D01*
X235499D01*
X236499Y183500D01*
Y187498D01*
X235499Y188498D01*
X232500D01*
X242497Y187498D02*
X241497Y188498D01*
X239498D01*
X238498Y187498D01*
Y186499D01*
X239498Y185499D01*
X241497D01*
X242497Y184499D01*
Y183500D01*
X241497Y182500D01*
X239498D01*
X238498Y183500D01*
X248495Y188498D02*
X244496D01*
Y185499D01*
X246496Y186499D01*
X247495D01*
X248495Y185499D01*
Y183500D01*
X247495Y182500D01*
X245496D01*
X244496Y183500D01*
X12500Y78498D02*
Y73500D01*
X13500Y72500D01*
X15499D01*
X16499Y73500D01*
Y78498D01*
X22497Y77498D02*
X21497Y78498D01*
X19498D01*
X18498Y77498D01*
Y76499D01*
X19498Y75499D01*
X21497D01*
X22497Y74499D01*
Y73500D01*
X21497Y72500D01*
X19498D01*
X18498Y73500D01*
X24496Y78498D02*
Y72500D01*
X27495D01*
X28495Y73500D01*
Y74499D01*
X27495Y75499D01*
X24496D01*
X27495D01*
X28495Y76499D01*
Y77498D01*
X27495Y78498D01*
X24496D01*
X36492D02*
Y72500D01*
X38492Y74499D01*
X40491Y72500D01*
Y78498D01*
X42490Y72500D02*
Y78498D01*
X45489D01*
X46489Y77498D01*
Y75499D01*
X45489Y74499D01*
X42490D01*
X44490D02*
X46489Y72500D01*
X300000Y216998D02*
Y212000D01*
X301000Y211000D01*
X302999D01*
X303999Y212000D01*
Y216998D01*
X309997Y215998D02*
X308997Y216998D01*
X306998D01*
X305998Y215998D01*
Y214999D01*
X306998Y213999D01*
X308997D01*
X309997Y212999D01*
Y212000D01*
X308997Y211000D01*
X306998D01*
X305998Y212000D01*
X315995Y216998D02*
X311996D01*
Y211000D01*
X315995D01*
X311996Y213999D02*
X313996D01*
X317994Y211000D02*
Y216998D01*
X320993D01*
X321993Y215998D01*
Y213999D01*
X320993Y212999D01*
X317994D01*
X319993D02*
X321993Y211000D01*
X300000Y183498D02*
X301999D01*
X301000D01*
Y177500D01*
X300000D01*
X301999D01*
X304998D02*
Y183498D01*
X308997Y177500D01*
Y183498D01*
X310996D02*
X314995D01*
X312996D01*
Y177500D01*
X316995D02*
Y183498D01*
X319993D01*
X320993Y182498D01*
Y180499D01*
X319993Y179499D01*
X316995D01*
X318994D02*
X320993Y177500D01*
X20000D02*
Y183498D01*
X21999Y181499D01*
X23999Y183498D01*
Y177500D01*
X28997Y183498D02*
X26998D01*
X25998Y182498D01*
Y178500D01*
X26998Y177500D01*
X28997D01*
X29997Y178500D01*
Y182498D01*
X28997Y183498D01*
X31996Y177500D02*
Y183498D01*
X35995Y177500D01*
Y183498D01*
X37994D02*
X39994D01*
X38994D01*
Y177500D01*
X37994D01*
X39994D01*
X16000Y211000D02*
Y216998D01*
X18999D01*
X19999Y215998D01*
Y213999D01*
X18999Y212999D01*
X16000D01*
X17999D02*
X19999Y211000D01*
X25997Y216998D02*
X21998D01*
Y211000D01*
X25997D01*
X21998Y213999D02*
X23997D01*
X31995Y215998D02*
X30995Y216998D01*
X28996D01*
X27996Y215998D01*
Y214999D01*
X28996Y213999D01*
X30995D01*
X31995Y212999D01*
Y212000D01*
X30995Y211000D01*
X28996D01*
X27996Y212000D01*
X37993Y216998D02*
X33994D01*
Y211000D01*
X37993D01*
X33994Y213999D02*
X35993D01*
X39992Y216998D02*
X43991D01*
X41992D01*
Y211000D01*
X20000Y142500D02*
Y148498D01*
X21999Y146499D01*
X23999Y148498D01*
Y142500D01*
X28997Y148498D02*
X26998D01*
X25998Y147498D01*
Y143500D01*
X26998Y142500D01*
X28997D01*
X29997Y143500D01*
Y147498D01*
X28997Y148498D01*
X31996D02*
Y144499D01*
X33996Y142500D01*
X35995Y144499D01*
Y148498D01*
X41993D02*
X37994D01*
Y142500D01*
X41993D01*
X37994Y145499D02*
X39994D01*
X60000Y148498D02*
X61999D01*
X61000D01*
Y142500D01*
X60000D01*
X61999D01*
X64998D02*
Y148498D01*
X68997Y142500D01*
Y148498D01*
X74995Y147498D02*
X73996Y148498D01*
X71996D01*
X70996Y147498D01*
Y146499D01*
X71996Y145499D01*
X73996D01*
X74995Y144499D01*
Y143500D01*
X73996Y142500D01*
X71996D01*
X70996Y143500D01*
X100000Y43498D02*
X101999D01*
X101000D01*
Y37500D01*
X100000D01*
X101999D01*
X104998D02*
Y43498D01*
X108997Y37500D01*
Y43498D01*
X114995Y42498D02*
X113996Y43498D01*
X111996D01*
X110996Y42498D01*
Y38500D01*
X111996Y37500D01*
X113996D01*
X114995Y38500D01*
X140000Y78498D02*
Y72500D01*
X142999D01*
X143999Y73500D01*
Y77498D01*
X142999Y78498D01*
X140000D01*
X145998Y72500D02*
Y76499D01*
X147997Y78498D01*
X149997Y76499D01*
Y72500D01*
Y75499D01*
X145998D01*
X151996Y78498D02*
X155995D01*
X153996D01*
Y72500D01*
X157994D02*
Y76499D01*
X159994Y78498D01*
X161993Y76499D01*
Y72500D01*
Y75499D01*
X157994D01*
X100000Y78498D02*
Y72500D01*
X102999D01*
X103999Y73500D01*
Y77498D01*
X102999Y78498D01*
X100000D01*
X109997D02*
X105998D01*
Y72500D01*
X109997D01*
X105998Y75499D02*
X107997D01*
X115995Y77498D02*
X114995Y78498D01*
X112996D01*
X111996Y77498D01*
Y73500D01*
X112996Y72500D01*
X114995D01*
X115995Y73500D01*
X20000Y107500D02*
Y113498D01*
X22999D01*
X23999Y112498D01*
Y110499D01*
X22999Y109499D01*
X20000D01*
X21999D02*
X23999Y107500D01*
X29997Y113498D02*
X25998D01*
Y107500D01*
X29997D01*
X25998Y110499D02*
X27997D01*
X31996Y113498D02*
Y107500D01*
X35995D01*
X37994D02*
Y111499D01*
X39994Y113498D01*
X41993Y111499D01*
Y107500D01*
Y110499D01*
X37994D01*
X60000Y113498D02*
Y107500D01*
X62999D01*
X63999Y108500D01*
Y112498D01*
X62999Y113498D01*
X60000D01*
X69997D02*
X65998D01*
Y107500D01*
X69997D01*
X65998Y110499D02*
X67997D01*
X71996Y113498D02*
Y107500D01*
X75995D01*
X140000Y37500D02*
Y41499D01*
X141999Y43498D01*
X143999Y41499D01*
Y37500D01*
Y40499D01*
X140000D01*
X145998Y43498D02*
Y37500D01*
X148997D01*
X149997Y38500D01*
Y42498D01*
X148997Y43498D01*
X145998D01*
X151996D02*
Y37500D01*
X154995D01*
X155995Y38500D01*
Y42498D01*
X154995Y43498D01*
X151996D01*
X157994Y37500D02*
Y43498D01*
X160993D01*
X161993Y42498D01*
Y40499D01*
X160993Y39499D01*
X157994D01*
X159994D02*
X161993Y37500D01*
X140000Y107500D02*
Y113498D01*
X142999D01*
X143999Y112498D01*
Y110499D01*
X142999Y109499D01*
X140000D01*
X141999D02*
X143999Y107500D01*
X149997Y113498D02*
X145998D01*
Y107500D01*
X149997D01*
X145998Y110499D02*
X147997D01*
X155995Y112498D02*
X154995Y113498D01*
X152996D01*
X151996Y112498D01*
Y108500D01*
X152996Y107500D01*
X154995D01*
X155995Y108500D01*
Y110499D01*
X153996D01*
X140000Y142500D02*
Y148498D01*
X142999D01*
X143999Y147498D01*
Y145499D01*
X142999Y144499D01*
X140000D01*
X149997Y147498D02*
X148997Y148498D01*
X146998D01*
X145998Y147498D01*
Y143500D01*
X146998Y142500D01*
X148997D01*
X149997Y143500D01*
X103999Y112498D02*
X102999Y113498D01*
X101000D01*
X100000Y112498D01*
Y108500D01*
X101000Y107500D01*
X102999D01*
X103999Y108500D01*
X105998Y113498D02*
Y107500D01*
X108997D01*
X109997Y108500D01*
Y109499D01*
X108997Y110499D01*
X105998D01*
X108997D01*
X109997Y111499D01*
Y112498D01*
X108997Y113498D01*
X105998D01*
X111996Y107500D02*
Y113498D01*
X114995D01*
X115995Y112498D01*
Y110499D01*
X114995Y109499D01*
X111996D01*
X63999Y42498D02*
X62999Y43498D01*
X61000D01*
X60000Y42498D01*
Y38500D01*
X61000Y37500D01*
X62999D01*
X63999Y38500D01*
Y40499D01*
X61999D01*
X68997Y43498D02*
X66998D01*
X65998Y42498D01*
Y38500D01*
X66998Y37500D01*
X68997D01*
X69997Y38500D01*
Y42498D01*
X68997Y43498D01*
X176499Y147498D02*
X175499Y148498D01*
X173500D01*
X172500Y147498D01*
Y143500D01*
X173500Y142500D01*
X175499D01*
X176499Y143500D01*
X188495Y147498D02*
X187495Y148498D01*
X185496D01*
X184496Y147498D01*
Y146499D01*
X185496Y145499D01*
X187495D01*
X188495Y144499D01*
Y143500D01*
X187495Y142500D01*
X185496D01*
X184496Y143500D01*
X190494Y148498D02*
X194493D01*
Y147498D01*
X190494Y143500D01*
Y142500D01*
X194493D01*
X196492Y141500D02*
X200491D01*
X202490Y148498D02*
Y142500D01*
Y145499D01*
X206489D01*
Y148498D01*
Y142500D01*
X172500Y112498D02*
X173500Y113498D01*
X175499D01*
X176499Y112498D01*
Y111499D01*
X175499Y110499D01*
X176499Y109499D01*
Y108500D01*
X175499Y107500D01*
X173500D01*
X172500Y108500D01*
Y109499D01*
X173500Y110499D01*
X172500Y111499D01*
Y112498D01*
X173500Y110499D02*
X175499D01*
X184496Y113498D02*
X186495D01*
X185496D01*
Y107500D01*
X184496D01*
X186495D01*
X189495Y113498D02*
X193493Y107500D01*
Y113498D02*
X189495Y107500D01*
X175499Y72500D02*
Y78498D01*
X172500Y75499D01*
X176499D01*
X184496Y72500D02*
Y76499D01*
X186495Y78498D01*
X188495Y76499D01*
Y72500D01*
Y75499D01*
X184496D01*
X194493Y78498D02*
X190494D01*
Y75499D01*
X192493D01*
X190494D01*
Y72500D01*
X197492Y79498D02*
Y77498D01*
X196492Y76499D01*
X172500Y42498D02*
X173500Y43498D01*
X175499D01*
X176499Y42498D01*
Y38500D01*
X175499Y37500D01*
X173500D01*
X172500Y38500D01*
Y42498D01*
X184496Y37500D02*
Y41499D01*
X186495Y43498D01*
X188495Y41499D01*
Y37500D01*
Y40499D01*
X184496D01*
X194493Y43498D02*
X190494D01*
Y40499D01*
X192493D01*
X190494D01*
Y37500D01*
X12500Y43498D02*
Y38500D01*
X13500Y37500D01*
X15499D01*
X16499Y38500D01*
Y43498D01*
X22497Y42498D02*
X21497Y43498D01*
X19498D01*
X18498Y42498D01*
Y41499D01*
X19498Y40499D01*
X21497D01*
X22497Y39499D01*
Y38500D01*
X21497Y37500D01*
X19498D01*
X18498Y38500D01*
X24496Y43498D02*
Y37500D01*
X27495D01*
X28495Y38500D01*
Y39499D01*
X27495Y40499D01*
X24496D01*
X27495D01*
X28495Y41499D01*
Y42498D01*
X27495Y43498D01*
X24496D01*
X36492Y37500D02*
Y43498D01*
X39491D01*
X40491Y42498D01*
Y40499D01*
X39491Y39499D01*
X36492D01*
X38492D02*
X40491Y37500D01*
X42490Y43498D02*
Y37500D01*
X45489D01*
X46489Y38500D01*
Y42498D01*
X45489Y43498D01*
X42490D01*
X63999Y77498D02*
X62999Y78498D01*
X61000D01*
X60000Y77498D01*
Y76499D01*
X61000Y75499D01*
X62999D01*
X63999Y74499D01*
Y73500D01*
X62999Y72500D01*
X61000D01*
X60000Y73500D01*
X65998Y78498D02*
X69997D01*
X67997D01*
Y72500D01*
X75995Y78498D02*
X71996D01*
Y72500D01*
X75995D01*
X71996Y75499D02*
X73996D01*
X77994Y72500D02*
Y78498D01*
X80993D01*
X81993Y77498D01*
Y75499D01*
X80993Y74499D01*
X77994D01*
X212500Y148498D02*
Y142500D01*
X215499D01*
X216499Y143500D01*
Y147498D01*
X215499Y148498D01*
X212500D01*
X224496Y141500D02*
X228495D01*
X230494Y142500D02*
Y148498D01*
X233493D01*
X234493Y147498D01*
Y145499D01*
X233493Y144499D01*
X230494D01*
X236492Y142500D02*
Y148498D01*
X240491Y142500D01*
Y148498D01*
X246489Y147498D02*
X245489Y148498D01*
X243490D01*
X242490Y147498D01*
Y143500D01*
X243490Y142500D01*
X245489D01*
X246489Y143500D01*
X212500Y108500D02*
X213500Y107500D01*
X215499D01*
X216499Y108500D01*
Y112498D01*
X215499Y113498D01*
X213500D01*
X212500Y112498D01*
Y111499D01*
X213500Y110499D01*
X216499D01*
X224496Y113498D02*
X226496D01*
X225496D01*
Y107500D01*
X224496D01*
X226496D01*
X229495Y113498D02*
Y112498D01*
X231494Y110499D01*
X233493Y112498D01*
Y113498D01*
X231494Y110499D02*
Y107500D01*
X216499Y78498D02*
X212500D01*
Y75499D01*
X214499Y76499D01*
X215499D01*
X216499Y75499D01*
Y73500D01*
X215499Y72500D01*
X213500D01*
X212500Y73500D01*
X224496Y78498D02*
Y72500D01*
X227495D01*
X228495Y73500D01*
Y74499D01*
X227495Y75499D01*
X224496D01*
X227495D01*
X228495Y76499D01*
Y77498D01*
X227495Y78498D01*
X224496D01*
X234493Y77498D02*
X233493Y78498D01*
X231494D01*
X230494Y77498D01*
Y73500D01*
X231494Y72500D01*
X233493D01*
X234493Y73500D01*
X237492Y79498D02*
Y77498D01*
X236492Y76499D01*
X212500Y37500D02*
X214499D01*
X213500D01*
Y43498D01*
X212500Y42498D01*
X223496Y43498D02*
Y37500D01*
X226496D01*
X227495Y38500D01*
Y39499D01*
X226496Y40499D01*
X223496D01*
X226496D01*
X227495Y41499D01*
Y42498D01*
X226496Y43498D01*
X223496D01*
X233493Y42498D02*
X232493Y43498D01*
X230494D01*
X229495Y42498D01*
Y38500D01*
X230494Y37500D01*
X232493D01*
X233493Y38500D01*
X256499Y148498D02*
X252500D01*
Y142500D01*
X256499D01*
X252500Y145499D02*
X254499D01*
X268495Y147498D02*
X267495Y148498D01*
X265496D01*
X264496Y147498D01*
Y146499D01*
X265496Y145499D01*
X267495D01*
X268495Y144499D01*
Y143500D01*
X267495Y142500D01*
X265496D01*
X264496Y143500D01*
X270494Y148498D02*
X274493D01*
Y147498D01*
X270494Y143500D01*
Y142500D01*
X274493D01*
X276492Y141500D02*
X280491D01*
X282490Y148498D02*
Y142500D01*
Y145499D01*
X286489D01*
Y148498D01*
Y142500D01*
X289488Y149498D02*
Y147498D01*
X288488Y146499D01*
X252500Y107500D02*
Y111499D01*
X254499Y113498D01*
X256499Y111499D01*
Y107500D01*
Y110499D01*
X252500D01*
X268495Y112498D02*
X267495Y113498D01*
X265496D01*
X264496Y112498D01*
Y111499D01*
X265496Y110499D01*
X267495D01*
X268495Y109499D01*
Y108500D01*
X267495Y107500D01*
X265496D01*
X264496Y108500D01*
X270494Y107500D02*
Y113498D01*
X273493D01*
X274493Y112498D01*
Y110499D01*
X273493Y109499D01*
X270494D01*
X256499Y78498D02*
X254499Y77498D01*
X252500Y75499D01*
Y73500D01*
X253500Y72500D01*
X255499D01*
X256499Y73500D01*
Y74499D01*
X255499Y75499D01*
X252500D01*
X264496Y78498D02*
Y72500D01*
X267495D01*
X268495Y73500D01*
Y77498D01*
X267495Y78498D01*
X264496D01*
X274493D02*
X270494D01*
Y72500D01*
X274493D01*
X270494Y75499D02*
X272494D01*
X277492Y79498D02*
Y77498D01*
X276492Y76499D01*
X256499Y37500D02*
X252500D01*
X256499Y41499D01*
Y42498D01*
X255499Y43498D01*
X253500D01*
X252500Y42498D01*
X264496Y43498D02*
Y37500D01*
X267495D01*
X268495Y38500D01*
Y42498D01*
X267495Y43498D01*
X264496D01*
X274493D02*
X270494D01*
Y37500D01*
X274493D01*
X270494Y40499D02*
X272494D01*
X296499Y148498D02*
X292500D01*
Y145499D01*
X294499D01*
X292500D01*
Y142500D01*
X304496Y141500D02*
X308495D01*
X310494Y142500D02*
Y148498D01*
X313493D01*
X314493Y147498D01*
Y145499D01*
X313493Y144499D01*
X310494D01*
X316492Y142500D02*
Y148498D01*
X320491Y142500D01*
Y148498D01*
X326489Y147498D02*
X325489Y148498D01*
X323490D01*
X322490Y147498D01*
Y143500D01*
X323490Y142500D01*
X325489D01*
X326489Y143500D01*
X329488Y149498D02*
Y147498D01*
X328488Y146499D01*
X292500Y113498D02*
Y107500D01*
X295499D01*
X296499Y108500D01*
Y109499D01*
X295499Y110499D01*
X292500D01*
X295499D01*
X296499Y111499D01*
Y112498D01*
X295499Y113498D01*
X292500D01*
X304496D02*
X306495D01*
X305496D01*
Y107500D01*
X304496D01*
X306495D01*
X309494Y106500D02*
X313493D01*
X315493Y113498D02*
X317492D01*
X316492D01*
Y107500D01*
X315493D01*
X317492D01*
X324490Y113498D02*
X320491D01*
Y110499D01*
X322490D01*
X320491D01*
Y107500D01*
X292500Y78498D02*
X296499D01*
Y77498D01*
X292500Y73500D01*
Y72500D01*
X304496Y78498D02*
Y72500D01*
Y75499D01*
X308495D01*
Y78498D01*
Y72500D01*
X310494Y78498D02*
Y72500D01*
X314493D01*
X317492Y79498D02*
Y77498D01*
X316492Y76499D01*
X292500Y42498D02*
X293500Y43498D01*
X295499D01*
X296499Y42498D01*
Y41499D01*
X295499Y40499D01*
X294499D01*
X295499D01*
X296499Y39499D01*
Y38500D01*
X295499Y37500D01*
X293500D01*
X292500Y38500D01*
X304496Y43498D02*
Y37500D01*
Y40499D01*
X308495D01*
Y43498D01*
Y37500D01*
X310494Y43498D02*
Y37500D01*
X314493D01*
X262500Y188498D02*
Y182500D01*
X265499D01*
X266499Y183500D01*
Y187498D01*
X265499Y188498D01*
X262500D01*
X272497Y187498D02*
X271497Y188498D01*
X269498D01*
X268498Y187498D01*
Y186499D01*
X269498Y185499D01*
X271497D01*
X272497Y184499D01*
Y183500D01*
X271497Y182500D01*
X269498D01*
X268498Y183500D01*
X278495Y188498D02*
X276496Y187498D01*
X274496Y185499D01*
Y183500D01*
X275496Y182500D01*
X277495D01*
X278495Y183500D01*
Y184499D01*
X277495Y185499D01*
X274496D01*
X202500Y188498D02*
Y182500D01*
X205499D01*
X206499Y183500D01*
Y187498D01*
X205499Y188498D01*
X202500D01*
X212497Y187498D02*
X211497Y188498D01*
X209498D01*
X208498Y187498D01*
Y186499D01*
X209498Y185499D01*
X211497D01*
X212497Y184499D01*
Y183500D01*
X211497Y182500D01*
X209498D01*
X208498Y183500D01*
X217495Y182500D02*
Y188498D01*
X214496Y185499D01*
X218495D01*
X142500Y188498D02*
Y182500D01*
X145499D01*
X146499Y183500D01*
Y187498D01*
X145499Y188498D01*
X142500D01*
X152497Y187498D02*
X151497Y188498D01*
X149498D01*
X148498Y187498D01*
Y186499D01*
X149498Y185499D01*
X151497D01*
X152497Y184499D01*
Y183500D01*
X151497Y182500D01*
X149498D01*
X148498Y183500D01*
X158495Y182500D02*
X154496D01*
X158495Y186499D01*
Y187498D01*
X157495Y188498D01*
X155496D01*
X154496Y187498D01*
X80000Y169500D02*
Y175498D01*
X82999D01*
X83999Y174498D01*
Y172499D01*
X82999Y171499D01*
X80000D01*
X81999D02*
X83999Y169500D01*
X85998Y175498D02*
X89997Y169500D01*
Y175498D02*
X85998Y169500D01*
X0Y-93335D02*
X3332Y-100000D01*
X6664Y-93335D01*
X9997Y-91669D02*
X11663Y-90003D01*
X14995D01*
X16661Y-91669D01*
Y-98334D01*
X14995Y-100000D01*
X11663D01*
X9997Y-98334D01*
Y-91669D01*
X19994Y-100000D02*
Y-98334D01*
X21660D01*
Y-100000D01*
X19994D01*
X28324D02*
X31656D01*
X29990D01*
Y-90003D01*
X28324Y-91669D01*
X0Y-80000D02*
X4998D01*
X6664Y-78334D01*
X4998Y-76668D01*
X1666D01*
X0Y-75002D01*
X1666Y-73335D01*
X6664D01*
X9997Y-80000D02*
Y-73335D01*
X11663D01*
X13329Y-75002D01*
Y-80000D01*
Y-75002D01*
X14995Y-73335D01*
X16661Y-75002D01*
Y-80000D01*
X21660Y-73335D02*
X24992D01*
X26658Y-75002D01*
Y-80000D01*
X21660D01*
X19994Y-78334D01*
X21660Y-76668D01*
X26658D01*
X29990Y-73335D02*
Y-80000D01*
Y-76668D01*
X31656Y-75002D01*
X33323Y-73335D01*
X34989D01*
X39987Y-80000D02*
X43319D01*
X41653D01*
Y-73335D01*
X39987D01*
X58315Y-80000D02*
Y-73335D01*
X59981D01*
X61647Y-75002D01*
Y-80000D01*
Y-75002D01*
X63313Y-73335D01*
X64979Y-75002D01*
Y-80000D01*
X68311D02*
X71644D01*
X69977D01*
Y-73335D01*
X68311D01*
X76642Y-80000D02*
Y-73335D01*
X81640D01*
X83306Y-75002D01*
Y-80000D01*
X86639D02*
Y-73335D01*
X91637D01*
X93303Y-75002D01*
Y-80000D01*
X98302Y-73335D02*
X101634D01*
X103300Y-75002D01*
Y-80000D01*
X98302D01*
X96635Y-78334D01*
X98302Y-76668D01*
X103300D01*
X0Y-50003D02*
X6664D01*
X3332D01*
Y-60000D01*
X11663D02*
X14995D01*
X16661Y-58334D01*
Y-55002D01*
X14995Y-53335D01*
X11663D01*
X9997Y-55002D01*
Y-58334D01*
X11663Y-60000D01*
X19994Y-63332D02*
Y-53335D01*
X24992D01*
X26658Y-55002D01*
Y-58334D01*
X24992Y-60000D01*
X19994D01*
X44985Y-50003D02*
X41653D01*
X39987Y-51669D01*
Y-58334D01*
X41653Y-60000D01*
X44985D01*
X46652Y-58334D01*
Y-51669D01*
X44985Y-50003D01*
X49984Y-53335D02*
X53316Y-60000D01*
X56648Y-53335D01*
X64979Y-60000D02*
X61647D01*
X59981Y-58334D01*
Y-55002D01*
X61647Y-53335D01*
X64979D01*
X66645Y-55002D01*
Y-56668D01*
X59981D01*
X69977Y-53335D02*
Y-60000D01*
Y-56668D01*
X71644Y-55002D01*
X73310Y-53335D01*
X74976D01*
X79974Y-60000D02*
X83306D01*
X81640D01*
Y-50003D01*
X79974D01*
X89971Y-53335D02*
X93303D01*
X94969Y-55002D01*
Y-60000D01*
X89971D01*
X88305Y-58334D01*
X89971Y-56668D01*
X94969D01*
X98302Y-53335D02*
Y-58334D01*
X99968Y-60000D01*
X104966D01*
Y-61666D01*
X103300Y-63332D01*
X101634D01*
X104966Y-60000D02*
Y-53335D01*
D44*
X84800Y178000D02*
G03*
X84800Y178000I-492J0D01*
G01*
X94744Y131437D02*
G03*
X94744Y131437I-492J0D01*
G01*
X109181Y153610D02*
G03*
X109181Y153610I-492J0D01*
G01*
X169181D02*
G03*
X169181Y153610I-492J0D01*
G01*
X229181D02*
G03*
X229181Y153610I-492J0D01*
G01*
X14744Y61437D02*
G03*
X14744Y61437I-492J0D01*
G01*
X294744Y201437D02*
G03*
X294744Y201437I-492J0D01*
G01*
Y166437D02*
G03*
X294744Y166437I-492J0D01*
G01*
X14744D02*
G03*
X14744Y166437I-492J0D01*
G01*
Y201437D02*
G03*
X14744Y201437I-492J0D01*
G01*
Y131437D02*
G03*
X14744Y131437I-492J0D01*
G01*
X54744D02*
G03*
X54744Y131437I-492J0D01*
G01*
X94744Y26437D02*
G03*
X94744Y26437I-492J0D01*
G01*
X134744Y61437D02*
G03*
X134744Y61437I-492J0D01*
G01*
X94744D02*
G03*
X94744Y61437I-492J0D01*
G01*
X14744Y96437D02*
G03*
X14744Y96437I-492J0D01*
G01*
X54744D02*
G03*
X54744Y96437I-492J0D01*
G01*
X134744Y26437D02*
G03*
X134744Y26437I-492J0D01*
G01*
Y96437D02*
G03*
X134744Y96437I-492J0D01*
G01*
Y131437D02*
G03*
X134744Y131437I-492J0D01*
G01*
X94744Y96437D02*
G03*
X94744Y96437I-492J0D01*
G01*
X54744Y26437D02*
G03*
X54744Y26437I-492J0D01*
G01*
X174744Y131437D02*
G03*
X174744Y131437I-492J0D01*
G01*
Y96437D02*
G03*
X174744Y96437I-492J0D01*
G01*
Y61437D02*
G03*
X174744Y61437I-492J0D01*
G01*
Y26437D02*
G03*
X174744Y26437I-492J0D01*
G01*
X14744D02*
G03*
X14744Y26437I-492J0D01*
G01*
X54744Y61437D02*
G03*
X54744Y61437I-492J0D01*
G01*
X214744Y131437D02*
G03*
X214744Y131437I-492J0D01*
G01*
Y96437D02*
G03*
X214744Y96437I-492J0D01*
G01*
Y61437D02*
G03*
X214744Y61437I-492J0D01*
G01*
Y26437D02*
G03*
X214744Y26437I-492J0D01*
G01*
X254744Y131437D02*
G03*
X254744Y131437I-492J0D01*
G01*
Y96437D02*
G03*
X254744Y96437I-492J0D01*
G01*
Y61437D02*
G03*
X254744Y61437I-492J0D01*
G01*
Y26437D02*
G03*
X254744Y26437I-492J0D01*
G01*
X294744Y131437D02*
G03*
X294744Y131437I-492J0D01*
G01*
Y96437D02*
G03*
X294744Y96437I-492J0D01*
G01*
Y61437D02*
G03*
X294744Y61437I-492J0D01*
G01*
Y26437D02*
G03*
X294744Y26437I-492J0D01*
G01*
X259181Y153610D02*
G03*
X259181Y153610I-492J0D01*
G01*
X199181D02*
G03*
X199181Y153610I-492J0D01*
G01*
X139181D02*
G03*
X139181Y153610I-492J0D01*
G01*
D45*
X105276Y133405D02*
G03*
X105276Y133405I-1181J0D01*
G01*
X112823Y173689D02*
G03*
X112823Y173689I-1181J0D01*
G01*
X172823D02*
G03*
X172823Y173689I-1181J0D01*
G01*
X232823D02*
G03*
X232823Y173689I-1181J0D01*
G01*
X25276Y63406D02*
G03*
X25276Y63406I-1181J0D01*
G01*
X305276Y203405D02*
G03*
X305276Y203405I-1181J0D01*
G01*
Y168405D02*
G03*
X305276Y168405I-1181J0D01*
G01*
X25276D02*
G03*
X25276Y168405I-1181J0D01*
G01*
Y203405D02*
G03*
X25276Y203405I-1181J0D01*
G01*
Y133405D02*
G03*
X25276Y133405I-1181J0D01*
G01*
X65276D02*
G03*
X65276Y133405I-1181J0D01*
G01*
X105276Y28405D02*
G03*
X105276Y28405I-1181J0D01*
G01*
X145276Y63406D02*
G03*
X145276Y63406I-1181J0D01*
G01*
X105276D02*
G03*
X105276Y63406I-1181J0D01*
G01*
X25276Y98405D02*
G03*
X25276Y98405I-1181J0D01*
G01*
X65276D02*
G03*
X65276Y98405I-1181J0D01*
G01*
X145276Y28405D02*
G03*
X145276Y28405I-1181J0D01*
G01*
Y98405D02*
G03*
X145276Y98405I-1181J0D01*
G01*
Y133405D02*
G03*
X145276Y133405I-1181J0D01*
G01*
X105276Y98405D02*
G03*
X105276Y98405I-1181J0D01*
G01*
X65276Y28405D02*
G03*
X65276Y28405I-1181J0D01*
G01*
X185276Y133405D02*
G03*
X185276Y133405I-1181J0D01*
G01*
Y98405D02*
G03*
X185276Y98405I-1181J0D01*
G01*
Y63406D02*
G03*
X185276Y63406I-1181J0D01*
G01*
Y28405D02*
G03*
X185276Y28405I-1181J0D01*
G01*
X25276D02*
G03*
X25276Y28405I-1181J0D01*
G01*
X65276Y63406D02*
G03*
X65276Y63406I-1181J0D01*
G01*
X225276Y133405D02*
G03*
X225276Y133405I-1181J0D01*
G01*
Y98405D02*
G03*
X225276Y98405I-1181J0D01*
G01*
Y63406D02*
G03*
X225276Y63406I-1181J0D01*
G01*
Y28405D02*
G03*
X225276Y28405I-1181J0D01*
G01*
X265276Y133405D02*
G03*
X265276Y133405I-1181J0D01*
G01*
Y98405D02*
G03*
X265276Y98405I-1181J0D01*
G01*
Y63406D02*
G03*
X265276Y63406I-1181J0D01*
G01*
Y28405D02*
G03*
X265276Y28405I-1181J0D01*
G01*
X305276Y133405D02*
G03*
X305276Y133405I-1181J0D01*
G01*
Y98405D02*
G03*
X305276Y98405I-1181J0D01*
G01*
Y63406D02*
G03*
X305276Y63406I-1181J0D01*
G01*
Y28405D02*
G03*
X305276Y28405I-1181J0D01*
G01*
X262823Y173689D02*
G03*
X262823Y173689I-1181J0D01*
G01*
X202823D02*
G03*
X202823Y173689I-1181J0D01*
G01*
X142823D02*
G03*
X142823Y173689I-1181J0D01*
G01*
D46*
X58315Y218197D02*
X97685D01*
X58315Y212488D02*
Y218197D01*
X97685Y191622D02*
Y199496D01*
Y212488D02*
Y218197D01*
X67370Y181189D02*
X69142D01*
X86858D02*
X88630D01*
X58315Y191622D02*
Y199496D01*
X100157Y117657D02*
Y137343D01*
Y117657D02*
X119843D01*
Y137343D01*
X100157D02*
X119843D01*
X61831Y160850D02*
Y167150D01*
X63602Y160850D02*
X76398D01*
Y167150D01*
X63602D02*
X76398D01*
X63602Y160850D02*
Y167150D01*
X133295Y169752D02*
Y201248D01*
X107705Y169752D02*
X133295D01*
X107705D02*
Y201248D01*
X133295D01*
X167705D02*
X193295D01*
X167705Y169752D02*
Y201248D01*
Y169752D02*
X193295D01*
Y201248D01*
X253295Y169752D02*
Y201248D01*
X227705Y169752D02*
X253295D01*
X227705D02*
Y201248D01*
X253295D01*
X20157Y47657D02*
Y67343D01*
Y47657D02*
X39843D01*
Y67343D01*
X20157D02*
X39843D01*
X300157Y187657D02*
Y207343D01*
Y187657D02*
X319843D01*
Y207343D01*
X300157D02*
X319843D01*
X300157Y152657D02*
Y172343D01*
Y152657D02*
X319843D01*
Y172343D01*
X300157D02*
X319843D01*
X20157Y152657D02*
Y172343D01*
Y152657D02*
X39843D01*
Y172343D01*
X20157D02*
X39843D01*
X20157Y187657D02*
Y207343D01*
Y187657D02*
X39843D01*
Y207343D01*
X20157D02*
X39843D01*
X20157Y117657D02*
Y137343D01*
Y117657D02*
X39843D01*
Y137343D01*
X20157D02*
X39843D01*
X60157Y117657D02*
Y137343D01*
Y117657D02*
X79843D01*
Y137343D01*
X60157D02*
X79843D01*
X100157Y12657D02*
Y32343D01*
Y12657D02*
X119843D01*
Y32343D01*
X100157D02*
X119843D01*
X140157Y47657D02*
Y67343D01*
Y47657D02*
X159843D01*
Y67343D01*
X140157D02*
X159843D01*
X100157Y47657D02*
Y67343D01*
Y47657D02*
X119843D01*
Y67343D01*
X100157D02*
X119843D01*
X20157Y82657D02*
Y102343D01*
Y82657D02*
X39843D01*
Y102343D01*
X20157D02*
X39843D01*
X60157Y82657D02*
Y102343D01*
Y82657D02*
X79843D01*
Y102343D01*
X60157D02*
X79843D01*
X140157Y12657D02*
Y32343D01*
Y12657D02*
X159843D01*
Y32343D01*
X140157D02*
X159843D01*
X140157Y82657D02*
Y102343D01*
Y82657D02*
X159843D01*
Y102343D01*
X140157D02*
X159843D01*
X140157Y117657D02*
Y137343D01*
Y117657D02*
X159843D01*
Y137343D01*
X140157D02*
X159843D01*
X100157Y82657D02*
Y102343D01*
Y82657D02*
X119843D01*
Y102343D01*
X100157D02*
X119843D01*
X60157Y12657D02*
Y32343D01*
Y12657D02*
X79843D01*
Y32343D01*
X60157D02*
X79843D01*
X180157Y117657D02*
Y137343D01*
Y117657D02*
X199843D01*
Y137343D01*
X180157D02*
X199843D01*
X180157Y82657D02*
Y102343D01*
Y82657D02*
X199843D01*
Y102343D01*
X180157D02*
X199843D01*
X180157Y47657D02*
Y67343D01*
Y47657D02*
X199843D01*
Y67343D01*
X180157D02*
X199843D01*
X180157Y12657D02*
Y32343D01*
Y12657D02*
X199843D01*
Y32343D01*
X180157D02*
X199843D01*
X20157Y12657D02*
Y32343D01*
Y12657D02*
X39843D01*
Y32343D01*
X20157D02*
X39843D01*
X60157Y47657D02*
Y67343D01*
Y47657D02*
X79843D01*
Y67343D01*
X60157D02*
X79843D01*
X220157Y117657D02*
Y137343D01*
Y117657D02*
X239843D01*
Y137343D01*
X220157D02*
X239843D01*
X220157Y82657D02*
Y102343D01*
Y82657D02*
X239843D01*
Y102343D01*
X220157D02*
X239843D01*
X220157Y47657D02*
Y67343D01*
Y47657D02*
X239843D01*
Y67343D01*
X220157D02*
X239843D01*
X220157Y12657D02*
Y32343D01*
Y12657D02*
X239843D01*
Y32343D01*
X220157D02*
X239843D01*
X260157Y117657D02*
Y137343D01*
Y117657D02*
X279843D01*
Y137343D01*
X260157D02*
X279843D01*
X260157Y82657D02*
Y102343D01*
Y82657D02*
X279843D01*
Y102343D01*
X260157D02*
X279843D01*
X260157Y47657D02*
Y67343D01*
Y47657D02*
X279843D01*
Y67343D01*
X260157D02*
X279843D01*
X260157Y12657D02*
Y32343D01*
Y12657D02*
X279843D01*
Y32343D01*
X260157D02*
X279843D01*
X300157Y117657D02*
Y137343D01*
Y117657D02*
X319843D01*
Y137343D01*
X300157D02*
X319843D01*
X300157Y82657D02*
Y102343D01*
Y82657D02*
X319843D01*
Y102343D01*
X300157D02*
X319843D01*
X300157Y47657D02*
Y67343D01*
Y47657D02*
X319843D01*
Y67343D01*
X300157D02*
X319843D01*
X300157Y12657D02*
Y32343D01*
Y12657D02*
X319843D01*
Y32343D01*
X300157D02*
X319843D01*
X257705Y201248D02*
X283295D01*
X257705Y169752D02*
Y201248D01*
Y169752D02*
X283295D01*
Y201248D01*
X223295Y169752D02*
Y201248D01*
X197705Y169752D02*
X223295D01*
X197705D02*
Y201248D01*
X223295D01*
X137705D02*
X163295D01*
X137705Y169752D02*
Y201248D01*
Y169752D02*
X163295D01*
Y201248D01*
X63602Y169350D02*
Y175650D01*
X76398D01*
Y169350D02*
Y175650D01*
X63602Y169350D02*
X76398D01*
X61831D02*
Y175650D01*
X176398Y19350D02*
Y25650D01*
X163602Y19350D02*
X176398D01*
X163602D02*
Y25650D01*
X176398D01*
X178169Y19350D02*
Y25650D01*
M02*
