%FSLAX25Y25*%
%MOIN*%
G70*
G01*
G75*
G04 Layer_Color=8388736*
%ADD10R,0.08661X0.09843*%
%ADD11R,0.01969X0.07874*%
%ADD12R,0.06102X0.05118*%
%ADD13C,0.04000*%
G04:AMPARAMS|DCode=14|XSize=60mil|YSize=300mil|CornerRadius=0mil|HoleSize=0mil|Usage=FLASHONLY|Rotation=90.000|XOffset=0mil|YOffset=0mil|HoleType=Round|Shape=Octagon|*
%AMOCTAGOND14*
4,1,8,-0.15000,-0.01500,-0.15000,0.01500,-0.13500,0.03000,0.13500,0.03000,0.15000,0.01500,0.15000,-0.01500,0.13500,-0.03000,-0.13500,-0.03000,-0.15000,-0.01500,0.0*
%
%ADD14OCTAGOND14*%

%ADD15R,0.03150X0.03150*%
%ADD16R,0.03937X0.11811*%
%ADD17C,0.01000*%
%ADD18C,0.02000*%
%ADD19C,0.01200*%
%ADD20C,0.02362*%
%ADD21C,0.02200*%
%ADD22C,0.04000*%
%ADD23C,0.07543*%
%ADD24C,0.04200*%
%ADD25R,0.04000X0.04000*%
%ADD26R,0.01181X0.06693*%
%ADD27R,0.07677X0.01575*%
%ADD28R,0.04134X0.02362*%
%ADD29R,0.06693X0.01378*%
%ADD30R,0.06299X0.01378*%
%ADD31R,0.02165X0.07677*%
%ADD32R,0.07677X0.02165*%
%ADD33R,0.07874X0.02362*%
%ADD34R,0.15748X0.06693*%
%ADD35R,0.15748X0.05906*%
%ADD36R,0.07677X0.05118*%
%ADD37R,0.05118X0.05906*%
%ADD38R,0.04331X0.03937*%
%ADD39R,0.04000X0.04000*%
%ADD40R,0.03937X0.04331*%
%ADD41C,0.01500*%
%ADD42C,0.03000*%
%ADD43C,0.01400*%
%ADD44C,0.00984*%
%ADD45C,0.02362*%
%ADD46C,0.00787*%
%ADD47C,0.08000*%
D10*
X61465Y185126D02*
D03*
X94535D02*
D03*
Y205992D02*
D03*
X61465D02*
D03*
D11*
X71701Y184142D02*
D03*
X74850D02*
D03*
X78000D02*
D03*
X81150D02*
D03*
X84299D02*
D03*
D12*
X94350Y136358D02*
D03*
X125650D02*
D03*
X94350Y118642D02*
D03*
X125650D02*
D03*
X14350Y66358D02*
D03*
X45650D02*
D03*
X14350Y48642D02*
D03*
X45650D02*
D03*
X294350Y206358D02*
D03*
X325650D02*
D03*
X294350Y188642D02*
D03*
X325650D02*
D03*
X294350Y171358D02*
D03*
X325650D02*
D03*
X294350Y153642D02*
D03*
X325650D02*
D03*
X14350Y171358D02*
D03*
X45650D02*
D03*
X14350Y153642D02*
D03*
X45650D02*
D03*
X14350Y206358D02*
D03*
X45650D02*
D03*
X14350Y188642D02*
D03*
X45650D02*
D03*
X14350Y136358D02*
D03*
X45650D02*
D03*
X14350Y118642D02*
D03*
X45650D02*
D03*
X54350Y136358D02*
D03*
X85650D02*
D03*
X54350Y118642D02*
D03*
X85650D02*
D03*
X94350Y31358D02*
D03*
X125650D02*
D03*
X94350Y13642D02*
D03*
X125650D02*
D03*
X134350Y66358D02*
D03*
X165650D02*
D03*
X134350Y48642D02*
D03*
X165650D02*
D03*
X94350Y66358D02*
D03*
X125650D02*
D03*
X94350Y48642D02*
D03*
X125650D02*
D03*
X14350Y101358D02*
D03*
X45650D02*
D03*
X14350Y83642D02*
D03*
X45650D02*
D03*
X54350Y101358D02*
D03*
X85650D02*
D03*
X54350Y83642D02*
D03*
X85650D02*
D03*
X134350Y31358D02*
D03*
X165650D02*
D03*
X134350Y13642D02*
D03*
X165650D02*
D03*
X134350Y101358D02*
D03*
X165650D02*
D03*
X134350Y83642D02*
D03*
X165650D02*
D03*
X134350Y136358D02*
D03*
X165650D02*
D03*
X134350Y118642D02*
D03*
X165650D02*
D03*
X94350Y101358D02*
D03*
X125650D02*
D03*
X94350Y83642D02*
D03*
X125650D02*
D03*
X54350Y31358D02*
D03*
X85650D02*
D03*
X54350Y13642D02*
D03*
X85650D02*
D03*
X174350Y136358D02*
D03*
X205650D02*
D03*
X174350Y118642D02*
D03*
X205650D02*
D03*
X174350Y101358D02*
D03*
X205650D02*
D03*
X174350Y83642D02*
D03*
X205650D02*
D03*
X174350Y66358D02*
D03*
X205650D02*
D03*
X174350Y48642D02*
D03*
X205650D02*
D03*
X174350Y31358D02*
D03*
X205650D02*
D03*
X174350Y13642D02*
D03*
X205650D02*
D03*
X14350Y31358D02*
D03*
X45650D02*
D03*
X14350Y13642D02*
D03*
X45650D02*
D03*
X54350Y66358D02*
D03*
X85650D02*
D03*
X54350Y48642D02*
D03*
X85650D02*
D03*
X214350Y136358D02*
D03*
X245650D02*
D03*
X214350Y118642D02*
D03*
X245650D02*
D03*
X214350Y101358D02*
D03*
X245650D02*
D03*
X214350Y83642D02*
D03*
X245650D02*
D03*
X214350Y66358D02*
D03*
X245650D02*
D03*
X214350Y48642D02*
D03*
X245650D02*
D03*
X214350Y31358D02*
D03*
X245650D02*
D03*
X214350Y13642D02*
D03*
X245650D02*
D03*
X254350Y136358D02*
D03*
X285650D02*
D03*
X254350Y118642D02*
D03*
X285650D02*
D03*
X254350Y101358D02*
D03*
X285650D02*
D03*
X254350Y83642D02*
D03*
X285650D02*
D03*
X254350Y66358D02*
D03*
X285650D02*
D03*
X254350Y48642D02*
D03*
X285650D02*
D03*
X254350Y31358D02*
D03*
X285650D02*
D03*
X254350Y13642D02*
D03*
X285650D02*
D03*
X294350Y136358D02*
D03*
X325650D02*
D03*
X294350Y118642D02*
D03*
X325650D02*
D03*
X294350Y101358D02*
D03*
X325650D02*
D03*
X294350Y83642D02*
D03*
X325650D02*
D03*
X294350Y66358D02*
D03*
X325650D02*
D03*
X294350Y48642D02*
D03*
X325650D02*
D03*
X294350Y31358D02*
D03*
X325650D02*
D03*
X294350Y13642D02*
D03*
X325650D02*
D03*
D14*
X355000Y15000D02*
D03*
Y25000D02*
D03*
Y35000D02*
D03*
Y45000D02*
D03*
Y55000D02*
D03*
Y65000D02*
D03*
Y75000D02*
D03*
Y85000D02*
D03*
Y95000D02*
D03*
Y105000D02*
D03*
Y115000D02*
D03*
Y125000D02*
D03*
Y135000D02*
D03*
Y145000D02*
D03*
Y155000D02*
D03*
Y165000D02*
D03*
Y175000D02*
D03*
Y185000D02*
D03*
Y195000D02*
D03*
Y205000D02*
D03*
D15*
X73248Y164000D02*
D03*
X66752D02*
D03*
Y172500D02*
D03*
X73248D02*
D03*
X173248Y22500D02*
D03*
X166752D02*
D03*
D16*
X108689Y161878D02*
D03*
X114594D02*
D03*
X120500D02*
D03*
X126406D02*
D03*
X132311D02*
D03*
Y209122D02*
D03*
X126406D02*
D03*
X120500D02*
D03*
X114594D02*
D03*
X108689D02*
D03*
X168689D02*
D03*
X174594D02*
D03*
X180500D02*
D03*
X186406D02*
D03*
X192311D02*
D03*
Y161878D02*
D03*
X186406D02*
D03*
X180500D02*
D03*
X174594D02*
D03*
X168689D02*
D03*
X228689D02*
D03*
X234594D02*
D03*
X240500D02*
D03*
X246406D02*
D03*
X252311D02*
D03*
Y209122D02*
D03*
X246406D02*
D03*
X240500D02*
D03*
X234594D02*
D03*
X228689D02*
D03*
X258689D02*
D03*
X264595D02*
D03*
X270500D02*
D03*
X276406D02*
D03*
X282311D02*
D03*
Y161878D02*
D03*
X276406D02*
D03*
X270500D02*
D03*
X264595D02*
D03*
X258689D02*
D03*
X198689D02*
D03*
X204594D02*
D03*
X210500D02*
D03*
X216406D02*
D03*
X222311D02*
D03*
Y209122D02*
D03*
X216406D02*
D03*
X210500D02*
D03*
X204594D02*
D03*
X198689D02*
D03*
X138689D02*
D03*
X144595D02*
D03*
X150500D02*
D03*
X156405D02*
D03*
X162311D02*
D03*
Y161878D02*
D03*
X156405D02*
D03*
X150500D02*
D03*
X144595D02*
D03*
X138689D02*
D03*
D17*
X0Y-93335D02*
X3332Y-100000D01*
X6664Y-93335D01*
X9997Y-91669D02*
X11663Y-90003D01*
X14995D01*
X16661Y-91669D01*
Y-98334D01*
X14995Y-100000D01*
X11663D01*
X9997Y-98334D01*
Y-91669D01*
X19994Y-100000D02*
Y-98334D01*
X21660D01*
Y-100000D01*
X19994D01*
X28324D02*
X31656D01*
X29990D01*
Y-90003D01*
X28324Y-91669D01*
X0Y-50003D02*
X6664D01*
X3332D01*
Y-60000D01*
X11663D02*
X14995D01*
X16661Y-58334D01*
Y-55002D01*
X14995Y-53335D01*
X11663D01*
X9997Y-55002D01*
Y-58334D01*
X11663Y-60000D01*
X19994Y-63332D02*
Y-53335D01*
X24992D01*
X26658Y-55002D01*
Y-58334D01*
X24992Y-60000D01*
X19994D01*
X46652Y-51669D02*
X44985Y-50003D01*
X41653D01*
X39987Y-51669D01*
Y-53335D01*
X41653Y-55002D01*
X44985D01*
X46652Y-56668D01*
Y-58334D01*
X44985Y-60000D01*
X41653D01*
X39987Y-58334D01*
X51650Y-60000D02*
X54982D01*
X56648Y-58334D01*
Y-55002D01*
X54982Y-53335D01*
X51650D01*
X49984Y-55002D01*
Y-58334D01*
X51650Y-60000D01*
X59981D02*
X63313D01*
X61647D01*
Y-50003D01*
X59981D01*
X74976D02*
Y-60000D01*
X69977D01*
X68311Y-58334D01*
Y-55002D01*
X69977Y-53335D01*
X74976D01*
X83306Y-60000D02*
X79974D01*
X78308Y-58334D01*
Y-55002D01*
X79974Y-53335D01*
X83306D01*
X84973Y-55002D01*
Y-56668D01*
X78308D01*
X88305Y-53335D02*
Y-60000D01*
Y-56668D01*
X89971Y-55002D01*
X91637Y-53335D01*
X93303D01*
X0Y-80000D02*
X4998D01*
X6664Y-78334D01*
X4998Y-76668D01*
X1666D01*
X0Y-75002D01*
X1666Y-73335D01*
X6664D01*
X9997Y-80000D02*
Y-73335D01*
X11663D01*
X13329Y-75002D01*
Y-80000D01*
Y-75002D01*
X14995Y-73335D01*
X16661Y-75002D01*
Y-80000D01*
X21660Y-73335D02*
X24992D01*
X26658Y-75002D01*
Y-80000D01*
X21660D01*
X19994Y-78334D01*
X21660Y-76668D01*
X26658D01*
X29990Y-73335D02*
Y-80000D01*
Y-76668D01*
X31656Y-75002D01*
X33323Y-73335D01*
X34989D01*
X39987Y-80000D02*
X43319D01*
X41653D01*
Y-73335D01*
X39987D01*
X58315Y-80000D02*
Y-73335D01*
X59981D01*
X61647Y-75002D01*
Y-80000D01*
Y-75002D01*
X63313Y-73335D01*
X64979Y-75002D01*
Y-80000D01*
X68311D02*
X71644D01*
X69977D01*
Y-73335D01*
X68311D01*
X76642Y-80000D02*
Y-73335D01*
X81640D01*
X83306Y-75002D01*
Y-80000D01*
X86639D02*
Y-73335D01*
X91637D01*
X93303Y-75002D01*
Y-80000D01*
X98302Y-73335D02*
X101634D01*
X103300Y-75002D01*
Y-80000D01*
X98302D01*
X96635Y-78334D01*
X98302Y-76668D01*
X103300D01*
D20*
X84890Y193000D02*
D03*
X71110D02*
D03*
D47*
X6000Y214000D02*
D03*
X334000Y6000D02*
D03*
X6000D02*
D03*
X334000Y214000D02*
D03*
M02*
