%FSLAX25Y25*%
%MOIN*%
G70*
G01*
G75*
G04 Layer_Color=255*
%ADD10R,0.08661X0.09843*%
%ADD11R,0.01969X0.07874*%
%ADD12R,0.06102X0.05118*%
%ADD13C,0.04000*%
G04:AMPARAMS|DCode=14|XSize=60mil|YSize=300mil|CornerRadius=0mil|HoleSize=0mil|Usage=FLASHONLY|Rotation=90.000|XOffset=0mil|YOffset=0mil|HoleType=Round|Shape=Octagon|*
%AMOCTAGOND14*
4,1,8,-0.15000,-0.01500,-0.15000,0.01500,-0.13500,0.03000,0.13500,0.03000,0.15000,0.01500,0.15000,-0.01500,0.13500,-0.03000,-0.13500,-0.03000,-0.15000,-0.01500,0.0*
%
%ADD14OCTAGOND14*%

%ADD15R,0.03150X0.03150*%
%ADD16R,0.03937X0.11811*%
%ADD17C,0.01000*%
%ADD18C,0.02000*%
%ADD19C,0.01200*%
%ADD20C,0.02362*%
%ADD21C,0.02200*%
%ADD22C,0.04000*%
%ADD23C,0.07543*%
%ADD24C,0.04200*%
%ADD25R,0.04000X0.04000*%
%ADD26R,0.01181X0.06693*%
%ADD27R,0.07677X0.01575*%
%ADD28R,0.04134X0.02362*%
%ADD29R,0.06693X0.01378*%
%ADD30R,0.06299X0.01378*%
%ADD31R,0.02165X0.07677*%
%ADD32R,0.07677X0.02165*%
%ADD33R,0.07874X0.02362*%
%ADD34R,0.15748X0.06693*%
%ADD35R,0.15748X0.05906*%
%ADD36R,0.07677X0.05118*%
%ADD37R,0.05118X0.05906*%
%ADD38R,0.04331X0.03937*%
%ADD39R,0.04000X0.04000*%
%ADD40R,0.03937X0.04331*%
%ADD41C,0.01500*%
%ADD42C,0.03000*%
%ADD43C,0.01400*%
D13*
X30000Y30000D02*
D03*
X80000Y80000D02*
D03*
X120000Y30000D02*
D03*
X170000Y80000D02*
D03*
X6000Y6000D02*
D03*
X334000D02*
D03*
X6000Y214000D02*
D03*
X334000D02*
D03*
D14*
X355000Y15000D02*
D03*
Y25000D02*
D03*
Y35000D02*
D03*
Y45000D02*
D03*
Y55000D02*
D03*
Y65000D02*
D03*
Y75000D02*
D03*
Y85000D02*
D03*
Y95000D02*
D03*
Y105000D02*
D03*
Y115000D02*
D03*
Y125000D02*
D03*
Y135000D02*
D03*
Y145000D02*
D03*
Y155000D02*
D03*
Y165000D02*
D03*
Y175000D02*
D03*
Y185000D02*
D03*
Y195000D02*
D03*
Y205000D02*
D03*
D20*
X84890Y193000D02*
D03*
X71110D02*
D03*
D25*
X80000Y210000D02*
D03*
X20000D02*
D03*
X30000D02*
D03*
X40000D02*
D03*
X50000D02*
D03*
X60000D02*
D03*
X70000D02*
D03*
X20000Y40000D02*
D03*
Y50000D02*
D03*
X250000Y150000D02*
D03*
X210000Y20000D02*
D03*
X200000D02*
D03*
X120000Y210000D02*
D03*
D26*
X239764Y28622D02*
D03*
X237795D02*
D03*
X235827D02*
D03*
X233858D02*
D03*
X231890D02*
D03*
X229921D02*
D03*
X227953D02*
D03*
X225984D02*
D03*
X224016D02*
D03*
X222047D02*
D03*
X220079D02*
D03*
X218110D02*
D03*
X216142D02*
D03*
X214173D02*
D03*
X212205D02*
D03*
X210236D02*
D03*
X239764Y81378D02*
D03*
X237795D02*
D03*
X235827D02*
D03*
X233858D02*
D03*
X231890D02*
D03*
X229921D02*
D03*
X227953D02*
D03*
X225984D02*
D03*
X224016D02*
D03*
X222047D02*
D03*
X220079D02*
D03*
X218110D02*
D03*
X216142D02*
D03*
X214173D02*
D03*
X212205D02*
D03*
X210236D02*
D03*
X275925Y79803D02*
D03*
X278091D02*
D03*
X280256D02*
D03*
X282421D02*
D03*
X284587D02*
D03*
X286752D02*
D03*
X288917D02*
D03*
X291083D02*
D03*
X293248D02*
D03*
X295413D02*
D03*
X297579D02*
D03*
X299744D02*
D03*
X301909D02*
D03*
X304075D02*
D03*
X275925Y30197D02*
D03*
X278091D02*
D03*
X280256D02*
D03*
X282421D02*
D03*
X284587D02*
D03*
X286752D02*
D03*
X288917D02*
D03*
X291083D02*
D03*
X293248D02*
D03*
X295413D02*
D03*
X297579D02*
D03*
X299744D02*
D03*
X301909D02*
D03*
X304075D02*
D03*
D27*
X51653Y191250D02*
D03*
Y188750D02*
D03*
Y186250D02*
D03*
Y183750D02*
D03*
Y181250D02*
D03*
Y178750D02*
D03*
Y176250D02*
D03*
Y173750D02*
D03*
X33346Y191250D02*
D03*
Y188750D02*
D03*
Y186250D02*
D03*
Y183750D02*
D03*
Y181250D02*
D03*
Y178750D02*
D03*
Y176250D02*
D03*
Y173750D02*
D03*
D28*
X184685Y26260D02*
D03*
Y30000D02*
D03*
Y33740D02*
D03*
X195315D02*
D03*
Y30000D02*
D03*
Y26260D02*
D03*
D29*
X78220Y124516D02*
D03*
Y121957D02*
D03*
Y119398D02*
D03*
Y116839D02*
D03*
Y114280D02*
D03*
Y111720D02*
D03*
Y109161D02*
D03*
Y106602D02*
D03*
Y104043D02*
D03*
Y101484D02*
D03*
X55780Y124516D02*
D03*
Y121957D02*
D03*
Y119398D02*
D03*
Y116839D02*
D03*
Y114280D02*
D03*
Y111720D02*
D03*
Y109161D02*
D03*
Y106602D02*
D03*
Y104043D02*
D03*
Y101484D02*
D03*
D30*
X121024Y137677D02*
D03*
Y135118D02*
D03*
Y132559D02*
D03*
Y130000D02*
D03*
Y127441D02*
D03*
Y124882D02*
D03*
Y122323D02*
D03*
X98976Y137677D02*
D03*
Y135118D02*
D03*
Y132559D02*
D03*
Y130000D02*
D03*
Y127441D02*
D03*
Y124882D02*
D03*
Y122323D02*
D03*
X138976Y122323D02*
D03*
Y124882D02*
D03*
Y127441D02*
D03*
Y130000D02*
D03*
Y132559D02*
D03*
Y135118D02*
D03*
Y137677D02*
D03*
X161024Y122323D02*
D03*
Y124882D02*
D03*
Y127441D02*
D03*
Y130000D02*
D03*
Y132559D02*
D03*
Y135118D02*
D03*
Y137677D02*
D03*
X281024D02*
D03*
Y135118D02*
D03*
Y132559D02*
D03*
Y130000D02*
D03*
Y127441D02*
D03*
Y124882D02*
D03*
Y122323D02*
D03*
X258976Y137677D02*
D03*
Y135118D02*
D03*
Y132559D02*
D03*
Y130000D02*
D03*
Y127441D02*
D03*
Y124882D02*
D03*
Y122323D02*
D03*
X241024Y137677D02*
D03*
Y135118D02*
D03*
Y132559D02*
D03*
Y130000D02*
D03*
Y127441D02*
D03*
Y124882D02*
D03*
Y122323D02*
D03*
X218976Y137677D02*
D03*
Y135118D02*
D03*
Y132559D02*
D03*
Y130000D02*
D03*
Y127441D02*
D03*
Y124882D02*
D03*
Y122323D02*
D03*
D31*
X39252Y29409D02*
D03*
X42402D02*
D03*
X45551D02*
D03*
X48701D02*
D03*
X51850D02*
D03*
X55000D02*
D03*
X58150D02*
D03*
X61299D02*
D03*
X64449D02*
D03*
X67598D02*
D03*
X70748D02*
D03*
Y80591D02*
D03*
X67598D02*
D03*
X64449D02*
D03*
X61299D02*
D03*
X58150D02*
D03*
X55000D02*
D03*
X51850D02*
D03*
X48701D02*
D03*
X45551D02*
D03*
X42402D02*
D03*
X39252D02*
D03*
X160748D02*
D03*
X157598D02*
D03*
X154449D02*
D03*
X151299D02*
D03*
X148150D02*
D03*
X145000D02*
D03*
X141850D02*
D03*
X138701D02*
D03*
X135551D02*
D03*
X132402D02*
D03*
X129252D02*
D03*
Y29409D02*
D03*
X132402D02*
D03*
X135551D02*
D03*
X138701D02*
D03*
X141850D02*
D03*
X145000D02*
D03*
X148150D02*
D03*
X151299D02*
D03*
X154449D02*
D03*
X157598D02*
D03*
X160748D02*
D03*
D32*
X80591Y39252D02*
D03*
Y42402D02*
D03*
Y45551D02*
D03*
Y48701D02*
D03*
Y51850D02*
D03*
Y55000D02*
D03*
Y58150D02*
D03*
Y61299D02*
D03*
Y64449D02*
D03*
Y67598D02*
D03*
Y70748D02*
D03*
X29409D02*
D03*
Y67598D02*
D03*
Y64449D02*
D03*
Y61299D02*
D03*
Y58150D02*
D03*
Y55000D02*
D03*
Y51850D02*
D03*
Y48701D02*
D03*
Y45551D02*
D03*
Y42402D02*
D03*
Y39252D02*
D03*
X119409Y70748D02*
D03*
Y67598D02*
D03*
Y64449D02*
D03*
Y61299D02*
D03*
Y58150D02*
D03*
Y55000D02*
D03*
Y51850D02*
D03*
Y48701D02*
D03*
Y45551D02*
D03*
Y42402D02*
D03*
Y39252D02*
D03*
X170591D02*
D03*
Y42402D02*
D03*
Y45551D02*
D03*
Y48701D02*
D03*
Y51850D02*
D03*
Y55000D02*
D03*
Y58150D02*
D03*
Y61299D02*
D03*
Y64449D02*
D03*
Y67598D02*
D03*
Y70748D02*
D03*
D33*
X314449Y145000D02*
D03*
Y140000D02*
D03*
Y135000D02*
D03*
Y130000D02*
D03*
Y125000D02*
D03*
Y120000D02*
D03*
Y115000D02*
D03*
X295551Y145000D02*
D03*
Y140000D02*
D03*
Y135000D02*
D03*
Y130000D02*
D03*
Y125000D02*
D03*
Y120000D02*
D03*
Y115000D02*
D03*
D34*
X195000Y120157D02*
D03*
Y139843D02*
D03*
D35*
Y130000D02*
D03*
D36*
X95988Y208000D02*
D03*
X107012D02*
D03*
D37*
X97563Y199500D02*
D03*
X105437D02*
D03*
X85563Y159500D02*
D03*
X93437D02*
D03*
X70563Y139500D02*
D03*
X78437D02*
D03*
X105437Y187500D02*
D03*
X97563D02*
D03*
X55563Y139500D02*
D03*
X63437D02*
D03*
D38*
X21543Y187000D02*
D03*
X14457D02*
D03*
X93043Y152500D02*
D03*
X85957D02*
D03*
X55957Y146500D02*
D03*
X63043D02*
D03*
X78043D02*
D03*
X70957D02*
D03*
X76543Y19000D02*
D03*
X69457D02*
D03*
X76543Y12000D02*
D03*
X69457D02*
D03*
X58543Y19000D02*
D03*
X51457D02*
D03*
X58543Y12000D02*
D03*
X51457D02*
D03*
X33457D02*
D03*
X40543D02*
D03*
X33457Y19000D02*
D03*
X40543D02*
D03*
X31457Y97000D02*
D03*
X38543D02*
D03*
X31457Y103000D02*
D03*
X38543D02*
D03*
X31457Y109000D02*
D03*
X38543D02*
D03*
X31457Y115000D02*
D03*
X38543D02*
D03*
X31457Y121000D02*
D03*
X38543D02*
D03*
X31457Y127000D02*
D03*
X38543D02*
D03*
X31457Y133000D02*
D03*
X38543D02*
D03*
X31457Y139000D02*
D03*
X38543D02*
D03*
X94543Y26000D02*
D03*
X87457D02*
D03*
X93043Y146500D02*
D03*
X85957D02*
D03*
X218543Y110000D02*
D03*
X211457D02*
D03*
X231457D02*
D03*
X238543D02*
D03*
X124543Y19000D02*
D03*
X117457D02*
D03*
X132457D02*
D03*
X139543D02*
D03*
X55957Y152500D02*
D03*
X63043D02*
D03*
X166957Y22500D02*
D03*
X174043D02*
D03*
X78043Y152500D02*
D03*
X70957D02*
D03*
X91043Y92000D02*
D03*
X83957D02*
D03*
X162043Y146000D02*
D03*
X154957D02*
D03*
X21543Y181000D02*
D03*
X14457D02*
D03*
X282043Y146000D02*
D03*
X274957D02*
D03*
X234957D02*
D03*
X242043D02*
D03*
X301457Y151500D02*
D03*
X308543D02*
D03*
X202543Y76000D02*
D03*
X195457D02*
D03*
X166957Y29500D02*
D03*
X174043D02*
D03*
X78043Y132500D02*
D03*
X70957D02*
D03*
X55957Y132500D02*
D03*
X63043D02*
D03*
X114957Y146000D02*
D03*
X122043D02*
D03*
X14457Y175000D02*
D03*
X21543D02*
D03*
X69957Y186500D02*
D03*
X77043D02*
D03*
X90543D02*
D03*
X83457D02*
D03*
X96957Y180500D02*
D03*
X104043D02*
D03*
X22543Y12000D02*
D03*
X15457D02*
D03*
X87457Y19000D02*
D03*
X94543D02*
D03*
Y12000D02*
D03*
X87457D02*
D03*
X15457Y19000D02*
D03*
X22543D02*
D03*
X77043Y180500D02*
D03*
X69957D02*
D03*
X83457D02*
D03*
X90543D02*
D03*
X14457Y193000D02*
D03*
X21543D02*
D03*
D39*
X260000Y150000D02*
D03*
D40*
X180000Y126457D02*
D03*
Y133543D02*
D03*
X203000Y30457D02*
D03*
Y37543D02*
D03*
X266500Y77543D02*
D03*
Y70457D02*
D03*
M02*
